<?xml version="1.0" encoding="UTF-8"?>
<!DOCTYPE svg PUBLIC "-//W3C//DTD SVG 1.1//EN" "http://www.w3.org/Graphics/SVG/1.1/DTD/svg11.dtd">
<svg xmlns="http://www.w3.org/2000/svg" version="1.1" width="482px" height="340px" style="shape-rendering:geometricPrecision; text-rendering:geometricPrecision; image-rendering:optimizeQuality; fill-rule:evenodd; clip-rule:evenodd" xmlns:xlink="http://www.w3.org/1999/xlink">
<g><path style="opacity:1" fill="#fefefe" d="M -0.5,-0.5 C 160.167,-0.5 320.833,-0.5 481.5,-0.5C 481.5,112.833 481.5,226.167 481.5,339.5C 320.833,339.5 160.167,339.5 -0.5,339.5C -0.5,226.167 -0.5,112.833 -0.5,-0.5 Z"/></g>
<g><path style="opacity:1" fill="#dedede" d="M 271.5,9.5 C 278.37,8.32403 284.37,9.9907 289.5,14.5C 296.146,10.0244 301.979,11.0244 307,17.5C 309.269,21.7135 308.769,25.5469 305.5,29C 309,31.1667 311.833,34 314,37.5C 313.797,49.172 308.297,52.5053 297.5,47.5C 295.093,57.3713 289.426,60.2046 280.5,56C 278.919,54.172 277.585,52.172 276.5,50C 267.102,50.2703 262.935,45.7703 264,36.5C 266.205,33.9598 268.705,31.7932 271.5,30C 264.862,23.2132 264.862,16.3798 271.5,9.5 Z"/></g>
<g><path style="opacity:1" fill="#fefefe" d="M 273.5,13.5 C 276.518,13.3354 279.518,13.502 282.5,14C 285.146,16.8696 287.146,20.0362 288.5,23.5C 290.121,21.8474 291.288,19.8474 292,17.5C 295.55,14.9166 299.05,15.0833 302.5,18C 305.547,22.3177 304.713,25.8177 300,28.5C 299.506,30.1341 299.34,31.8008 299.5,33.5C 308.082,32.8971 311.249,36.5637 309,44.5C 305.216,46.0547 301.716,45.5547 298.5,43C 296.833,42.3333 295.167,42.3333 293.5,43C 292.851,46.1948 292.018,49.3614 291,52.5C 287.626,55.4052 284.626,55.0719 282,51.5C 281.205,49.0988 280.038,46.9321 278.5,45C 274.437,46.4546 270.937,45.6213 268,42.5C 267.319,37.004 269.819,34.004 275.5,33.5C 275.357,31.7376 275.691,30.0709 276.5,28.5C 275.345,27.0495 273.845,26.0495 272,25.5C 269.66,21.0521 270.16,17.0521 273.5,13.5 Z"/></g>
<g><path style="opacity:1" fill="#dedede" d="M 225.5,18.5 C 229.599,18.3666 233.266,19.5333 236.5,22C 238.389,24.9586 240.389,27.7919 242.5,30.5C 252.265,28.472 257.098,32.472 257,42.5C 255.895,45.9371 253.728,48.4371 250.5,50C 253.803,55.5651 252.803,60.2317 247.5,64C 243.05,65.1136 239.05,64.2803 235.5,61.5C 232.909,67.9516 228.242,70.7849 221.5,70C 216.137,67.0895 214.137,62.5895 215.5,56.5C 205.805,56.7501 201.305,52.0835 202,42.5C 204.751,36.0384 209.418,33.705 216,35.5C 216.333,32.1667 216.667,28.8333 217,25.5C 219.464,22.519 222.297,20.1856 225.5,18.5 Z"/></g>
<g><path style="opacity:1" fill="#fefefe" d="M 224.5,23.5 C 227.187,23.3359 229.854,23.5026 232.5,24C 235.604,27.54 237.937,31.54 239.5,36C 242.48,34.2111 245.814,33.5444 249.5,34C 255.043,39.0186 254.377,43.1853 247.5,46.5C 247.167,47.3333 246.833,48.1667 246.5,49C 249.033,52.6664 249.033,56.3331 246.5,60C 244.5,60.6667 242.5,60.6667 240.5,60C 238.004,58.4459 235.837,56.6126 234,54.5C 233.228,54.6448 232.561,54.9781 232,55.5C 232.445,61.302 229.945,64.9687 224.5,66.5C 222.617,66.1243 221.117,65.1243 220,63.5C 219.518,60.0934 219.518,56.76 220,53.5C 216.137,52.8838 212.304,52.0505 208.5,51C 204.399,46.7057 204.732,42.7057 209.5,39C 212.798,38.4583 215.965,38.9583 219,40.5C 219.772,40.3552 220.439,40.0219 221,39.5C 220.674,35.5305 220.674,31.5305 221,27.5C 221.69,25.6498 222.856,24.3164 224.5,23.5 Z"/></g>
<g><path style="opacity:1" fill="#dedede" d="M 337.5,31.5 C 342.628,31.1115 347.628,31.6115 352.5,33C 355.029,35.6417 356.029,38.8084 355.5,42.5C 368.436,40.6071 372.936,45.9404 369,58.5C 367.039,61.1353 364.539,62.9686 361.5,64C 365.327,69.3085 365.494,74.8085 362,80.5C 354.815,86.5247 348.815,85.5247 344,77.5C 341.833,81 339,83.8333 335.5,86C 325.198,86.0165 321.032,80.8499 323,70.5C 324.046,68.9095 325.213,67.4095 326.5,66C 318.879,63.5944 315.712,58.4278 317,50.5C 320.399,44.2955 325.399,41.9622 332,43.5C 332.333,41.1667 332.667,38.8333 333,36.5C 334.366,34.6383 335.866,32.9717 337.5,31.5 Z"/></g>
<g><path style="opacity:1" fill="#fefefe" d="M 340.5,34.5 C 351.546,33.8606 354.212,38.194 348.5,47.5C 348.709,48.086 349.043,48.586 349.5,49C 353.229,48.0753 357.062,47.2419 361,46.5C 366.341,46.4816 368.341,49.1483 367,54.5C 366.535,55.9308 365.701,57.0975 364.5,58C 360.619,59.1901 356.619,59.8568 352.5,60C 351.663,61.0113 351.33,62.1779 351.5,63.5C 358.969,64.0823 361.802,68.0823 360,75.5C 358.053,79.5568 354.886,81.0568 350.5,80C 348.943,77.7045 347.276,75.5378 345.5,73.5C 343.885,74.154 342.218,74.654 340.5,75C 338.714,79.8182 335.38,82.1516 330.5,82C 326.788,79.487 325.622,75.987 327,71.5C 329.566,68.9336 332.066,66.4336 334.5,64C 334.355,63.228 334.022,62.5613 333.5,62C 330.11,61.7537 326.777,61.2537 323.5,60.5C 319.545,56.3707 319.545,52.204 323.5,48C 328.291,45.2908 331.958,46.2908 334.5,51C 336.826,51.1849 338.16,50.0182 338.5,47.5C 337.031,44.2778 336.531,40.9444 337,37.5C 338.145,36.3636 339.312,35.3636 340.5,34.5 Z"/></g>
<g><path style="opacity:1" fill="#dedede" d="M 277.5,64.5 C 279.635,64.147 280.968,64.9803 281.5,67C 278.913,77.4234 276.747,87.9234 275,98.5C 272.52,100.09 270.687,99.5897 269.5,97C 271.734,85.9773 274.401,75.144 277.5,64.5 Z"/></g>
<g><path style="opacity:1" fill="#dddddd" d="M 304.5,74.5 C 305.822,74.33 306.989,74.6634 308,75.5C 306.949,83.3109 304.282,90.6442 300,97.5C 298.644,98.3802 297.144,98.7135 295.5,98.5C 295.34,96.8008 295.506,95.1341 296,93.5C 299.511,87.4642 302.345,81.1309 304.5,74.5 Z"/></g>
<g><path style="opacity:1" fill="#261b18" d="M 260.5,301.5 C 261.043,301.44 261.376,301.107 261.5,300.5C 254.167,299.167 246.833,299.167 239.5,300.5C 239.624,301.107 239.957,301.44 240.5,301.5C 244.604,308.649 246.104,316.316 245,324.5C 239.8,333.355 232.3,336.522 222.5,334C 218.289,329.723 215.789,324.556 215,318.5C 214.254,312.449 214.421,306.449 215.5,300.5C 216.404,299.791 216.737,298.791 216.5,297.5C 214.167,297.5 211.833,297.5 209.5,297.5C 206.482,297.296 203.482,296.963 200.5,296.5C 201.031,299.237 201.864,301.904 203,304.5C 204.531,320.302 197.365,327.469 181.5,326C 176.747,322.003 173.914,316.837 173,310.5C 172.212,304.78 172.379,299.114 173.5,293.5C 170.721,292.354 168.054,291.021 165.5,289.5C 164.592,290.79 164.759,292.123 166,293.5C 168.752,309.746 161.919,317.579 145.5,317C 138.481,310.782 135.481,302.949 136.5,293.5C 136.039,286.138 137.373,279.138 140.5,272.5C 121.866,248.807 114.033,221.807 117,191.5C 101.249,184.083 89.916,172.417 83,156.5C 79.7179,133.221 86.5512,113.388 103.5,97C 110.928,91.2242 118.928,90.2242 127.5,94C 132.727,99.6384 138.061,105.138 143.5,110.5C 148.592,99.5141 155.426,98.5141 164,107.5C 164.211,100.915 166.711,95.4148 171.5,91C 177.979,89.4766 182.813,91.6433 186,97.5C 188.735,87.3887 194.568,84.8887 203.5,90C 205,92.1667 206.5,94.3333 208,96.5C 211.807,90.8443 216.973,88.3443 223.5,89C 227.726,91.6166 229.726,95.4499 229.5,100.5C 260.461,102.037 291.128,105.87 321.5,112C 328.664,114.499 335.497,117.666 342,121.5C 344.654,120.179 346.654,118.179 348,115.5C 351.748,107.654 355.081,99.6535 358,91.5C 363.237,85.7387 369.737,83.9053 377.5,86C 387.418,91.6282 393.584,100.128 396,111.5C 399.629,126.944 399.296,142.277 395,157.5C 392.416,163.584 388.25,168.25 382.5,171.5C 376.489,178.343 370.322,185.01 364,191.5C 364.981,207.843 364.648,224.176 363,240.5C 360.831,248.7 357.331,256.2 352.5,263C 361.762,273.789 365.595,286.289 364,300.5C 360.877,310.33 354.377,313.496 344.5,310C 336.752,306.508 333.419,300.508 334.5,292C 334.389,287.213 335.055,282.546 336.5,278C 336.167,277.5 335.833,277 335.5,276.5C 330.341,278.912 325.341,281.579 320.5,284.5C 327.416,296.073 328.249,308.073 323,320.5C 314.9,324.946 307.234,324.279 300,318.5C 296.015,310.542 295.515,302.376 298.5,294C 298.167,293.5 297.833,293 297.5,292.5C 293.649,294.129 289.649,295.129 285.5,295.5C 286.558,299.844 287.724,304.177 289,308.5C 290.011,315.024 289.345,321.357 287,327.5C 282.509,332.259 277.009,333.759 270.5,332C 262.025,329.066 258.358,323.066 259.5,314C 259.723,309.816 260.057,305.649 260.5,301.5 Z"/></g>
<g><path style="opacity:1" fill="#906035" d="M 167.5,168.5 C 177.124,174.56 176.79,180.06 166.5,185C 162.113,185.706 157.78,185.54 153.5,184.5C 154.812,182.521 156.479,180.855 158.5,179.5C 161.703,182.122 164.87,182.122 168,179.5C 167.89,175.871 167.724,172.204 167.5,168.5 Z"/></g>
<g><path style="opacity:1" fill="#bb955c" d="M 185.5,182.5 C 185.441,184.722 184.275,185.722 182,185.5C 179.774,184.967 177.607,184.3 175.5,183.5C 178.298,178.78 177.964,174.28 174.5,170C 175.448,169.517 176.448,169.351 177.5,169.5C 177.876,175.253 180.542,179.586 185.5,182.5 Z"/></g>
<g><path style="opacity:1" fill="#c69e61" d="M 235.5,172.5 C 235.27,176.052 235.27,179.552 235.5,183C 232.272,184.909 229.105,184.742 226,182.5C 224.225,183.27 222.725,184.437 221.5,186C 220.207,186.49 218.873,186.657 217.5,186.5C 217.5,185.167 217.5,183.833 217.5,182.5C 214.966,182.741 213.3,181.741 212.5,179.5C 213.479,178.235 214.479,176.901 215.5,175.5C 219.384,174.559 223.051,173.059 226.5,171C 229.863,170.073 232.863,170.573 235.5,172.5 Z"/></g>
<g><path style="opacity:1" fill="#e62d30" d="M 350.5,171.5 C 352.442,175.026 353.609,179.026 354,183.5C 356.763,202.133 357.096,220.8 355,239.5C 353.217,245.067 350.883,250.401 348,255.5C 339.089,266.088 327.923,272.922 314.5,276C 312.289,272.725 309.289,271.392 305.5,272C 303.446,275.498 301.779,279.165 300.5,283C 294.586,285.145 288.586,286.978 282.5,288.5C 278.74,285.248 274.573,282.581 270,280.5C 269.167,280.833 268.333,281.167 267.5,281.5C 266.065,284.643 264.732,287.81 263.5,291C 253.833,291.667 244.167,291.667 234.5,291C 232.714,287.388 230.38,284.221 227.5,281.5C 224.34,283.828 221.673,286.661 219.5,290C 211.444,289.979 203.444,289.146 195.5,287.5C 193.187,281.844 189.687,277.177 185,273.5C 183.056,274.439 181.389,275.773 180,277.5C 178.569,280.04 176.902,282.373 175,284.5C 169.063,282.948 163.563,280.448 158.5,277C 155.833,272.667 153.167,268.333 150.5,264C 148.633,263.289 147.133,263.789 146,265.5C 133.887,251.842 127.22,235.842 126,217.5C 125.167,202.489 125.334,187.489 126.5,172.5C 134.992,183.755 145.992,191.589 159.5,196C 183.674,202.89 208.341,205.723 233.5,204.5C 249.517,204.484 265.517,203.984 281.5,203C 308.472,202.464 331.305,192.631 350,173.5C 350.464,172.906 350.631,172.239 350.5,171.5 Z"/></g>
<g><path style="opacity:1" fill="#e6e5e5" d="M 327.5,177.5 C 329.505,178.254 330.172,179.421 329.5,181C 326.05,183.949 322.05,185.116 317.5,184.5C 317.5,183.167 317.5,181.833 317.5,180.5C 321.378,180.976 324.712,179.976 327.5,177.5 Z"/></g>
<g><path style="opacity:1" fill="#dcdbdb" d="M 263.5,177.5 C 266.572,177.183 269.572,177.516 272.5,178.5C 272.833,179.167 273.167,179.833 273.5,180.5C 268.855,182.103 264.522,181.603 260.5,179C 261.737,178.768 262.737,178.268 263.5,177.5 Z"/></g>
<g><path style="opacity:1" fill="#e6e6e5" d="M 305.5,168.5 C 308.315,169.324 310.482,170.991 312,173.5C 313.541,178.075 314.208,182.742 314,187.5C 310.183,184.863 308.516,181.196 309,176.5C 307.546,173.929 306.38,171.262 305.5,168.5 Z"/></g>
<g><path style="opacity:1" fill="#8f6034" d="M 190.5,161.5 C 189.206,163.296 188.206,165.296 187.5,167.5C 180.709,170.911 181.043,173.245 188.5,174.5C 188.366,176.292 188.699,177.958 189.5,179.5C 182.978,178.126 180.145,174.126 181,167.5C 183.464,164.353 186.63,162.353 190.5,161.5 Z"/></g>
<g><path style="opacity:1" fill="#976536" d="M 151.5,166.5 C 150.406,168.359 149.573,170.359 149,172.5C 142.763,176.104 143.096,178.771 150,180.5C 150.49,181.793 150.657,183.127 150.5,184.5C 144.22,182.951 141.72,178.951 143,172.5C 145.177,169.477 148.011,167.477 151.5,166.5 Z"/></g>
<g><path style="opacity:1" fill="#992e2e" d="M 117.5,182.5 C 117.821,176.974 117.488,171.64 116.5,166.5C 116.783,165.711 117.283,165.044 118,164.5C 118.819,170.681 118.653,176.681 117.5,182.5 Z"/></g>
<g><path style="opacity:1" fill="#e22d30" d="M 358.5,159.5 C 361.206,165.046 365.206,169.546 370.5,173C 367.667,175.833 364.833,178.667 362,181.5C 360.506,174.21 359.34,166.877 358.5,159.5 Z"/></g>
<g><path style="opacity:1" fill="#f0f0f0" d="M 243.5,168.5 C 246.247,168.187 248.914,168.52 251.5,169.5C 253.292,179.28 259.292,184.614 269.5,185.5C 267.78,186.934 265.78,187.767 263.5,188C 256.488,188.434 249.488,188.934 242.5,189.5C 241.72,183.816 240.72,178.149 239.5,172.5C 239.667,171.833 239.833,171.167 240,170.5C 241.302,169.915 242.469,169.249 243.5,168.5 Z"/></g>
<g><path style="opacity:1" fill="#956235" d="M 206.5,163.5 C 214.483,168.825 214.483,173.992 206.5,179C 201.511,179.499 196.511,179.666 191.5,179.5C 193.456,177.886 195.456,176.219 197.5,174.5C 200.703,177.122 203.87,177.122 207,174.5C 207.429,172.331 206.929,170.331 205.5,168.5C 206.309,166.929 206.643,165.262 206.5,163.5 Z"/></g>
<g><path style="opacity:1" fill="#c2995e" d="M 167.5,168.5 C 167.724,172.204 167.89,175.871 168,179.5C 164.87,182.122 161.703,182.122 158.5,179.5C 156.479,180.855 154.812,182.521 153.5,184.5C 152.5,184.5 151.5,184.5 150.5,184.5C 150.657,183.127 150.49,181.793 150,180.5C 143.096,178.771 142.763,176.104 149,172.5C 149.573,170.359 150.406,168.359 151.5,166.5C 157.132,164.796 162.465,165.463 167.5,168.5 Z"/></g>
<g><path style="opacity:1" fill="#e32d30" d="M 116.5,166.5 C 117.488,171.64 117.821,176.974 117.5,182.5C 111.993,180.323 107.326,176.99 103.5,172.5C 108.239,171.296 112.573,169.296 116.5,166.5 Z"/></g>
<g><path style="opacity:1" fill="#f2f2f2" d="M 292.5,165.5 C 295.119,165.232 297.619,165.565 300,166.5C 302,170.5 304,174.5 306,178.5C 307.271,182.166 306.104,184.666 302.5,186C 294.882,187.819 287.216,189.319 279.5,190.5C 277.671,184.519 276.171,178.519 275,172.5C 280.831,170.059 286.665,167.725 292.5,165.5 Z"/></g>
<g><path style="opacity:1" fill="#a74405" d="M 336.5,165.5 C 337.376,165.631 338.043,165.298 338.5,164.5C 337.675,163.614 336.675,163.281 335.5,163.5C 334.027,161.605 332.36,159.939 330.5,158.5C 331.552,158.649 332.552,158.483 333.5,158C 331.138,156.269 328.471,155.435 325.5,155.5C 316.706,155.091 308.04,155.924 299.5,158C 297.978,160.305 295.978,161.805 293.5,162.5C 292.937,160.09 292.437,157.757 292,155.5C 294.564,153.273 297.397,151.439 300.5,150C 305.29,150.956 310.124,152.122 315,153.5C 318.62,152.197 322.287,150.864 326,149.5C 338.31,151.102 343.643,158.102 342,170.5C 341.282,171.451 340.449,171.617 339.5,171C 337.393,169.736 336.393,167.903 336.5,165.5 Z"/></g>
<g><path style="opacity:1" fill="#c69e61" d="M 190.5,161.5 C 195.328,163.151 200.328,163.817 205.5,163.5C 205.833,163.5 206.167,163.5 206.5,163.5C 206.643,165.262 206.309,166.929 205.5,168.5C 206.929,170.331 207.429,172.331 207,174.5C 203.87,177.122 200.703,177.122 197.5,174.5C 195.456,176.219 193.456,177.886 191.5,179.5C 190.833,179.5 190.167,179.5 189.5,179.5C 188.699,177.958 188.366,176.292 188.5,174.5C 181.043,173.245 180.709,170.911 187.5,167.5C 188.206,165.296 189.206,163.296 190.5,161.5 Z"/></g>
<g><path style="opacity:1" fill="#e0c4b2" d="M 335.5,163.5 C 336.675,163.281 337.675,163.614 338.5,164.5C 338.043,165.298 337.376,165.631 336.5,165.5C 336.167,164.833 335.833,164.167 335.5,163.5 Z"/></g>
<g><path style="opacity:1" fill="#ececeb" d="M 327.5,160.5 C 329.489,161.988 331.322,163.655 333,165.5C 333.667,169.833 333.667,174.167 333,178.5C 332.333,177.833 331.667,177.167 331,176.5C 330.954,170.886 329.787,165.553 327.5,160.5 Z"/></g>
<g><path style="opacity:1" fill="#e0d0a5" d="M 133.5,156.5 C 134.542,155.209 135.708,155.209 137,156.5C 139.252,160.64 140.585,164.973 141,169.5C 138.473,165.104 135.973,160.771 133.5,156.5 Z"/></g>
<g><path style="opacity:1" fill="#e5d4a7" d="M 172.5,140.5 C 173.5,140.5 174.5,140.5 175.5,140.5C 176.498,147.159 177.498,153.825 178.5,160.5C 178.167,162.167 177.833,163.833 177.5,165.5C 175.505,157.867 173.505,150.201 171.5,142.5C 171.863,141.817 172.196,141.15 172.5,140.5 Z"/></g>
<g><path style="opacity:1" fill="#e6d5a9" d="M 167.5,140.5 C 167.56,139.957 167.893,139.624 168.5,139.5C 171.005,147.686 173.005,156.02 174.5,164.5C 174.167,164.833 173.833,165.167 173.5,165.5C 171.313,157.155 169.313,148.822 167.5,140.5 Z"/></g>
<g><path style="opacity:1" fill="#ecd6c9" d="M 246.5,160.5 C 247.167,160.5 247.833,160.5 248.5,160.5C 245.552,162.755 242.219,164.422 238.5,165.5C 237.833,165.5 237.5,165.167 237.5,164.5C 240.5,163.167 243.5,161.833 246.5,160.5 Z"/></g>
<g><path style="opacity:1" fill="#ab480e" d="M 248.5,160.5 C 250.176,161.183 250.843,162.517 250.5,164.5C 246.978,165.004 243.478,165.671 240,166.5C 239.235,166.43 238.735,166.097 238.5,165.5C 242.219,164.422 245.552,162.755 248.5,160.5 Z"/></g>
<g><path style="opacity:1" fill="#8e6137" d="M 190.5,161.5 C 193.976,160.357 197.642,160.19 201.5,161C 203.066,161.608 204.4,162.442 205.5,163.5C 200.328,163.817 195.328,163.151 190.5,161.5 Z"/></g>
<g><path style="opacity:1" fill="#e2d0a6" d="M 146.5,155.5 C 147.167,156.167 147.833,156.833 148.5,157.5C 148.663,159.857 148.497,162.19 148,164.5C 146.833,162.167 145.667,159.833 144.5,157.5C 144.855,156.478 145.522,155.811 146.5,155.5 Z"/></g>
<g><path style="opacity:1" fill="#dad9d9" d="M 284.5,156.5 C 287.971,157.633 289.971,159.967 290.5,163.5C 288.799,163.966 287.299,163.966 286,163.5C 285.56,161.134 285.06,158.801 284.5,156.5 Z"/></g>
<g><path style="opacity:1" fill="#a6450c" d="M 246.5,160.5 C 243.5,161.833 240.5,163.167 237.5,164.5C 236.539,162.735 236.205,160.735 236.5,158.5C 240.122,158.322 243.456,158.989 246.5,160.5 Z"/></g>
<g><path style="opacity:1" fill="#d3c39c" d="M 158.5,154.5 C 160.555,156.234 161.888,158.567 162.5,161.5C 161.675,162.386 160.675,162.719 159.5,162.5C 159.167,159.833 158.833,157.167 158.5,154.5 Z"/></g>
<g><path style="opacity:1" fill="#ededed" d="M 314.5,157.5 C 318.007,156.994 321.174,157.66 324,159.5C 325.473,163.417 326.639,167.417 327.5,171.5C 327.43,172.772 327.097,173.938 326.5,175C 323.392,176.759 320.059,177.592 316.5,177.5C 316.174,174.689 315.341,172.022 314,169.5C 309.582,166.707 305.082,164.041 300.5,161.5C 305.141,159.892 309.808,158.558 314.5,157.5 Z"/></g>
<g><path style="opacity:1" fill="#e4d4a7" d="M 138.5,154.5 C 141.772,156.998 144.106,160.331 145.5,164.5C 145.192,165.308 144.692,165.975 144,166.5C 141.878,162.637 140.045,158.637 138.5,154.5 Z"/></g>
<g><path style="opacity:1" fill="#e4d1a6" d="M 177.5,136.5 C 178.496,136.414 179.329,136.748 180,137.5C 181.26,144.651 182.426,151.818 183.5,159C 183.231,160.607 182.397,161.774 181,162.5C 179.245,153.898 178.079,145.232 177.5,136.5 Z"/></g>
<g><path style="opacity:1" fill="#eadbd2" d="M 325.5,155.5 C 328.471,155.435 331.138,156.269 333.5,158C 332.552,158.483 331.552,158.649 330.5,158.5C 328.632,157.737 326.965,156.737 325.5,155.5 Z"/></g>
<g><path style="opacity:1" fill="#ead7aa" d="M 129.5,154.5 C 130.376,154.369 131.043,154.702 131.5,155.5C 133.473,160.779 135.973,165.779 139,170.5C 139.749,171.635 139.583,172.635 138.5,173.5C 133.195,168.213 130.195,161.88 129.5,154.5 Z"/></g>
<g><path style="opacity:1" fill="#c6ce0f" d="M 217.5,164.5 C 212.863,165.293 211.53,163.293 213.5,158.5C 212.5,157.167 211.5,155.833 210.5,154.5C 213.225,150.993 216.558,150.493 220.5,153C 221.167,154 221.833,155 222.5,156C 220.392,156.36 218.392,157.027 216.5,158C 215.304,158.654 215.304,159.154 216.5,159.5C 219.373,158.225 222.373,157.392 225.5,157C 227.321,155.257 229.321,153.757 231.5,152.5C 232.887,156.171 233.22,159.838 232.5,163.5C 232.529,165.029 233.196,166.196 234.5,167C 228.563,167.118 222.897,168.284 217.5,170.5C 217.5,168.5 217.5,166.5 217.5,164.5 Z"/></g>
<g><path style="opacity:1" fill="#332b21" d="M 217.5,164.5 C 218.058,163.21 219.058,162.377 220.5,162C 223.167,161.333 225.833,161.333 228.5,162C 224.661,162.236 220.994,163.069 217.5,164.5 Z"/></g>
<g><path style="opacity:1" fill="#e8d6a9" d="M 151.5,147.5 C 152.376,147.369 153.043,147.702 153.5,148.5C 156.117,152.949 157.117,157.615 156.5,162.5C 154.243,158.317 152.243,153.984 150.5,149.5C 150.863,148.817 151.196,148.15 151.5,147.5 Z"/></g>
<g><path style="opacity:1" fill="#f1f1f0" d="M 267.5,152.5 C 278.975,150.143 283.641,154.643 281.5,166C 278.624,166.438 275.957,167.438 273.5,169C 271.393,170.264 270.393,172.097 270.5,174.5C 265.5,174.5 260.5,174.5 255.5,174.5C 255.485,169.09 254.818,163.757 253.5,158.5C 253.833,157.5 254.167,156.5 254.5,155.5C 258.939,154.4 263.272,153.4 267.5,152.5 Z"/></g>
<g><path style="opacity:1" fill="#6a5c4d" d="M 148.5,157.5 C 147.833,156.833 147.167,156.167 146.5,155.5C 145.048,154.698 143.382,154.198 141.5,154C 143.202,152.282 145.035,152.115 147,153.5C 147.308,152.692 147.808,152.025 148.5,151.5C 151.045,154.766 151.878,158.432 151,162.5C 150.876,159.749 150.043,158.082 148.5,157.5 Z"/></g>
<g><path style="opacity:1" fill="#719e31" d="M 201.5,149.5 C 203.96,149.699 206.293,150.365 208.5,151.5C 207.205,153.328 206.205,155.328 205.5,157.5C 203.776,158.661 202.11,158.495 200.5,157C 202.5,155.333 204.5,153.667 206.5,152C 203.199,152.824 200.199,154.49 197.5,157C 195.866,157.494 194.199,157.66 192.5,157.5C 192.5,155.833 192.5,154.167 192.5,152.5C 195.785,152.072 198.785,151.072 201.5,149.5 Z"/></g>
<g><path style="opacity:1" fill="#dbc9a0" d="M 134.5,151.5 C 135.675,151.281 136.675,151.614 137.5,152.5C 135.948,153.798 134.948,153.465 134.5,151.5 Z"/></g>
<g><path style="opacity:1" fill="#ac4607" d="M 340.5,150.5 C 339.089,148.461 337.089,147.461 334.5,147.5C 328.188,146.066 328.021,144.4 334,142.5C 347.362,144.633 351.362,151.966 346,164.5C 344.691,162.314 344.524,160.147 345.5,158C 343.699,155.557 342.032,153.057 340.5,150.5 Z"/></g>
<g><path style="opacity:1" fill="#9a8b72" d="M 164.5,141.5 C 164.56,140.957 164.893,140.624 165.5,140.5C 167.898,147.654 169.065,154.987 169,162.5C 167.485,155.374 165.985,148.374 164.5,141.5 Z"/></g>
<g><path style="opacity:1" fill="#ab470b" d="M 257.5,143.5 C 258.873,143.343 260.207,143.51 261.5,144C 260.139,145.584 259.472,147.418 259.5,149.5C 258.127,149.343 256.793,149.51 255.5,150C 252.633,152.21 249.8,154.377 247,156.5C 242.74,155.786 238.906,154.119 235.5,151.5C 238.977,150.833 242.311,150.166 245.5,149.5C 249.541,147.498 253.541,145.498 257.5,143.5 Z"/></g>
<g><path style="opacity:1" fill="#86421c" d="M 263.5,146.5 C 285.644,147.766 285.811,149.1 264,150.5C 263.5,150.167 263,149.833 262.5,149.5C 263.127,148.583 263.461,147.583 263.5,146.5 Z"/></g>
<g><path style="opacity:1" fill="#c4b38f" d="M 181.5,137.5 C 183.284,138.574 184.451,140.24 185,142.5C 185.699,148.175 186.032,153.842 186,159.5C 183.795,152.309 182.295,144.975 181.5,137.5 Z"/></g>
<g><path style="opacity:1" fill="#ebd7aa" d="M 162.5,145.5 C 163.649,145.791 164.316,146.624 164.5,148C 164.957,153.293 165.957,158.46 167.5,163.5C 166.726,164.711 165.893,164.711 165,163.5C 163.056,157.835 161.222,152.168 159.5,146.5C 160.791,146.737 161.791,146.404 162.5,145.5 Z"/></g>
<g><path style="opacity:1" fill="#ab998e" d="M 334.5,147.5 C 337.089,147.461 339.089,148.461 340.5,150.5C 338.181,150.008 336.181,149.008 334.5,147.5 Z"/></g>
<g><path style="opacity:1" fill="#a84406" d="M 287.5,144.5 C 290.787,145.161 294.12,145.661 297.5,146C 293.669,148.019 290.336,150.519 287.5,153.5C 285.603,153.272 284.27,152.272 283.5,150.5C 284.467,148.21 285.8,146.21 287.5,144.5 Z"/></g>
<g><path style="opacity:1" fill="#e8d6ca" d="M 254.5,143.5 C 255.5,143.5 256.5,143.5 257.5,143.5C 253.541,145.498 249.541,147.498 245.5,149.5C 245.5,148.833 245.5,148.167 245.5,147.5C 248.456,145.851 251.456,144.517 254.5,143.5 Z"/></g>
<g><path style="opacity:1" fill="#e8d7ab" d="M 140.5,144.5 C 141.675,144.281 142.675,144.614 143.5,145.5C 142.215,147.659 140.548,148.326 138.5,147.5C 139.193,146.482 139.859,145.482 140.5,144.5 Z"/></g>
<g><path style="opacity:1" fill="#aa4507" d="M 327.5,126.5 C 331.967,126.133 336.3,126.633 340.5,128C 343.358,131.358 346.025,134.858 348.5,138.5C 347.833,138.833 347.167,139.167 346.5,139.5C 339.456,136.076 333.122,136.909 327.5,142C 324.5,142.333 321.5,142.667 318.5,143C 317.461,145.955 315.628,148.121 313,149.5C 308.205,148.459 303.872,146.459 300,143.5C 300.821,139.634 302.987,136.467 306.5,134C 307.873,133.125 309.373,132.625 311,132.5C 314.139,133.426 317.306,133.592 320.5,133C 322.729,130.6 325.063,128.433 327.5,126.5 Z"/></g>
<g><path style="opacity:1" fill="#a9470d" d="M 254.5,143.5 C 251.456,144.517 248.456,145.851 245.5,147.5C 244.763,145.695 243.763,144.029 242.5,142.5C 242.709,141.914 243.043,141.414 243.5,141C 247.022,141.875 250.688,142.708 254.5,143.5 Z"/></g>
<g><path style="opacity:1" fill="#95b61f" d="M 228.5,137.5 C 230.167,137.5 231.833,137.5 233.5,137.5C 233.351,138.552 233.517,139.552 234,140.5C 236.46,141.958 238.627,143.791 240.5,146C 238.5,146.333 236.5,146.667 234.5,147C 231.048,149.393 227.381,151.226 223.5,152.5C 223.338,150.473 223.505,148.473 224,146.5C 226.707,144.064 229.873,142.564 233.5,142C 227.847,141.575 223.347,143.742 220,148.5C 220.757,145.912 221.757,143.246 223,140.5C 225.058,139.771 226.891,138.771 228.5,137.5 Z"/></g>
<g><path style="opacity:1" fill="#d3c49d" d="M 160.5,141.5 C 161.675,141.281 162.675,141.614 163.5,142.5C 161.684,144.441 159.684,145.108 157.5,144.5C 158.34,143.265 159.34,142.265 160.5,141.5 Z"/></g>
<g><path style="opacity:1" fill="#f2e1b1" d="M 188.5,139.5 C 189.327,144.332 189.993,149.332 190.5,154.5C 190.167,155.5 189.833,156.5 189.5,157.5C 188.01,152.449 187.01,147.282 186.5,142C 187.056,140.989 187.722,140.156 188.5,139.5 Z"/></g>
<g><path style="opacity:1" fill="#d8cba1" d="M 146.5,140.5 C 149.797,140.329 150.131,140.995 147.5,142.5C 146.702,142.043 146.369,141.376 146.5,140.5 Z"/></g>
<g><path style="opacity:1" fill="#e2e1e1" d="M 211.5,142.5 C 212.791,142.737 213.791,142.404 214.5,141.5C 216.411,141.426 217.578,140.426 218,138.5C 218.762,134.413 218.596,130.413 217.5,126.5C 217.697,119.289 214.363,116.122 207.5,117C 204.865,118.961 203.031,121.461 202,124.5C 202.204,119.595 204.371,115.762 208.5,113C 213.943,112.43 217.11,114.93 218,120.5C 220,128.5 220,136.5 218,144.5C 217.097,145.701 215.931,146.535 214.5,147C 211.518,147.498 208.518,147.665 205.5,147.5C 205.33,146.178 205.663,145.011 206.5,144C 208.382,143.802 210.048,143.302 211.5,142.5 Z"/></g>
<g><path style="opacity:1" fill="#d1c19a" d="M 154.5,137.5 C 158.075,138.207 158.242,139.207 155,140.5C 153.317,139.824 153.15,138.824 154.5,137.5 Z"/></g>
<g><path style="opacity:1" fill="#f0deb0" d="M 139.5,139.5 C 140.675,139.281 141.675,139.614 142.5,140.5C 139.272,143.259 138.272,142.926 139.5,139.5 Z"/></g>
<g><path style="opacity:1" fill="#ebeaea" d="M 198.5,141.5 C 199.167,141.5 199.5,141.167 199.5,140.5C 200.117,140.389 200.617,140.056 201,139.5C 201.561,131.61 202.394,131.61 203.5,139.5C 202.923,145.987 199.256,148.987 192.5,148.5C 192.5,147.167 192.5,145.833 192.5,144.5C 195.089,144.539 197.089,143.539 198.5,141.5 Z"/></g>
<g><path style="opacity:1" fill="#f2e7df" d="M 329.5,134.5 C 346.728,134.35 346.728,135.183 329.5,137C 327.945,138.289 326.279,138.956 324.5,139C 326.063,137.264 327.73,135.764 329.5,134.5 Z"/></g>
<g><path style="opacity:1" fill="#8ba729" d="M 228.5,134.5 C 229.773,135.077 229.773,135.743 228.5,136.5C 226.831,137.89 225.164,138.223 223.5,137.5C 225.36,136.675 227.026,135.675 228.5,134.5 Z"/></g>
<g><path style="opacity:1" fill="#5d5c24" d="M 199.5,140.5 C 199.5,141.167 199.167,141.5 198.5,141.5C 196.965,142.354 195.632,142.354 194.5,141.5C 196.984,139.455 197.984,136.788 197.5,133.5C 198.222,133.082 198.722,132.416 199,131.5C 200.818,134.416 200.984,137.416 199.5,140.5 Z"/></g>
<g><path style="opacity:1" fill="#dccea4" d="M 170.5,136.5 C 176.641,136.101 176.975,137.101 171.5,139.5C 170.614,138.675 170.281,137.675 170.5,136.5 Z"/></g>
<g><path style="opacity:1" fill="#cabb96" d="M 161.5,135.5 C 163.167,135.5 164.833,135.5 166.5,135.5C 165.91,139.92 163.91,140.586 160.5,137.5C 160.863,136.817 161.196,136.15 161.5,135.5 Z"/></g>
<g><path style="opacity:1" fill="#f2e8b6" d="M 147.5,135.5 C 148.376,135.369 149.043,135.702 149.5,136.5C 147.192,137.873 146.525,137.54 147.5,135.5 Z"/></g>
<g><path style="opacity:1" fill="#dbcba2" d="M 153.5,132.5 C 156.018,133.759 155.852,135.093 153,136.5C 151.07,134.923 151.237,133.59 153.5,132.5 Z"/></g>
<g><path style="opacity:1" fill="#ebd6c8" d="M 329.5,130.5 C 338.499,131.224 338.165,132.057 328.5,133C 323.655,136.422 318.322,138.755 312.5,140C 306.586,145.841 306.253,145.508 311.5,139C 318.084,137.212 324.084,134.378 329.5,130.5 Z"/></g>
<g><path style="opacity:1" fill="#eedfd5" d="M 283.5,129.5 C 283.267,131.062 282.6,132.395 281.5,133.5C 279.983,133.511 278.816,134.177 278,135.5C 277,137.5 276,139.5 275,141.5C 274.333,140.167 274.333,138.833 275,137.5C 277.114,134.034 279.948,131.367 283.5,129.5 Z"/></g>
<g><path style="opacity:1" fill="#6cb32e" d="M 240.5,130.5 C 242.5,130.5 244.5,130.5 246.5,130.5C 245.55,136.304 242.217,138.638 236.5,137.5C 236.816,134.433 238.149,132.1 240.5,130.5 Z"/></g>
<g><path style="opacity:1" fill="#ccbe98" d="M 161.5,129.5 C 163.549,129.706 163.883,130.539 162.5,132C 157.517,132.831 157.183,131.998 161.5,129.5 Z"/></g>
<g><path style="opacity:1" fill="#99191b" d="M 145.5,127.5 C 147.483,128.902 149.149,130.736 150.5,133C 146.813,135.323 142.813,136.989 138.5,138C 137.228,139.307 136.228,140.807 135.5,142.5C 134.549,143.326 133.549,143.492 132.5,143C 136.96,137.895 141.294,132.728 145.5,127.5 Z"/></g>
<g><path style="opacity:1" fill="#49422d" d="M 197.5,127.5 C 197.167,128.167 196.833,128.833 196.5,129.5C 194.239,125.563 190.906,123.23 186.5,122.5C 185.962,124.117 185.629,125.784 185.5,127.5C 186.791,127.263 187.791,127.596 188.5,128.5C 184.689,128.596 184.689,129.262 188.5,130.5C 185.9,131.846 183.567,131.512 181.5,129.5C 182.533,116.874 187.366,114.874 196,123.5C 196.791,124.745 197.291,126.078 197.5,127.5 Z"/></g>
<g><path style="opacity:1" fill="#ab4608" d="M 284.5,115.5 C 279.698,117.127 275.532,119.794 272,123.5C 271.333,124.167 271.333,124.833 272,125.5C 274.177,122.477 277.011,120.477 280.5,119.5C 277.412,124.118 273.246,127.451 268,129.5C 265.676,132.48 264.176,135.813 263.5,139.5C 246.628,142.373 243.962,137.54 255.5,125C 258.101,124.08 260.768,123.413 263.5,123C 265.377,120.749 266.877,118.249 268,115.5C 273.838,108.83 280.338,107.997 287.5,113C 286.627,114.045 285.627,114.878 284.5,115.5 Z"/></g>
<g><path style="opacity:1" fill="#6cb22f" d="M 222.5,126.5 C 224.527,126.338 226.527,126.505 228.5,127C 224.827,135.394 222.827,135.227 222.5,126.5 Z"/></g>
<g><path style="opacity:1" fill="#cccbca" d="M 151.5,127.5 C 153.085,128.002 153.585,129.002 153,130.5C 151.961,129.756 151.461,128.756 151.5,127.5 Z"/></g>
<g><path style="opacity:1" fill="#acbb1f" d="M 206.5,120.5 C 205.422,123.402 204.756,126.402 204.5,129.5C 203.111,126.117 203.778,123.117 206.5,120.5 Z"/></g>
<g><path style="opacity:1" fill="#c1d311" d="M 186.5,122.5 C 190.906,123.23 194.239,125.563 196.5,129.5C 196.833,130.833 197.167,132.167 197.5,133.5C 197.984,136.788 196.984,139.455 194.5,141.5C 192.88,140.159 191.88,138.326 191.5,136C 189.744,135.798 188.078,135.298 186.5,134.5C 188.167,133.5 189.5,132.167 190.5,130.5C 190.145,129.478 189.478,128.811 188.5,128.5C 187.791,127.596 186.791,127.263 185.5,127.5C 185.629,125.784 185.962,124.117 186.5,122.5 Z"/></g>
<g><path style="opacity:1" fill="#e42d31" d="M 351.5,124.5 C 353.076,127.228 353.576,130.228 353,133.5C 349.367,130.832 348.867,127.832 351.5,124.5 Z"/></g>
<g><path style="opacity:1" fill="#4b4724" d="M 207.5,119.5 C 210.188,119.166 212.521,119.832 214.5,121.5C 215.687,123.072 216.687,124.739 217.5,126.5C 218.596,130.413 218.762,134.413 218,138.5C 217.578,140.426 216.411,141.426 214.5,141.5C 213.791,142.404 212.791,142.737 211.5,142.5C 210.127,142.657 208.793,142.49 207.5,142C 206.402,141.23 206.402,140.397 207.5,139.5C 210.652,140.041 213.152,139.041 215,136.5C 216.109,130.771 214.942,125.605 211.5,121C 210.216,120.316 209.049,120.483 208,121.5C 206.011,125.253 205.178,129.253 205.5,133.5C 204.566,132.432 204.232,131.099 204.5,129.5C 204.756,126.402 205.422,123.402 206.5,120.5C 206.5,119.833 206.833,119.5 207.5,119.5 Z"/></g>
<g><path style="opacity:1" fill="#a4b21f" d="M 214.5,141.5 C 213.448,141.649 212.448,141.483 211.5,141C 213.286,140.215 214.786,139.049 216,137.5C 216.3,139.066 215.8,140.399 214.5,141.5 Z"/></g>
<g><path style="opacity:1" fill="#eeded2" d="M 275.5,114.5 C 276.873,114.343 278.207,114.51 279.5,115C 277.5,116 275.5,117 273.5,118C 269.667,123.167 265.167,127.667 260,131.5C 259.261,133.221 258.427,134.887 257.5,136.5C 256.432,134.813 256.599,133.146 258,131.5C 263.84,125.8 269.673,120.133 275.5,114.5 Z"/></g>
<g><path style="opacity:1" fill="#6db52d" d="M 237.5,117.5 C 240.85,117.335 244.183,117.502 247.5,118C 249.64,118.973 251.307,120.473 252.5,122.5C 250.354,127.147 246.687,129.314 241.5,129C 238.827,130.001 236.493,131.501 234.5,133.5C 231.69,131.57 231.023,129.07 232.5,126C 229.295,124.312 228.961,122.312 231.5,120C 233.852,119.76 235.852,118.927 237.5,117.5 Z"/></g>
<g><path style="opacity:1" fill="#312d23" d="M 242.5,123.5 C 243.552,123.351 244.552,123.517 245.5,124C 242.291,125.092 239.124,126.259 236,127.5C 235.312,126.668 235.479,126.002 236.5,125.5C 238.657,124.95 240.657,124.283 242.5,123.5 Z"/></g>
<g><path style="opacity:1" fill="#d2c5bc" d="M 300.5,120.5 C 299.7,122.741 298.034,123.741 295.5,123.5C 296.659,121.75 298.326,120.75 300.5,120.5 Z"/></g>
<g><path style="opacity:1" fill="#c1d404" d="M 207.5,139.5 C 206.715,137.626 206.048,135.626 205.5,133.5C 205.178,129.253 206.011,125.253 208,121.5C 209.049,120.483 210.216,120.316 211.5,121C 214.942,125.605 216.109,130.771 215,136.5C 213.152,139.041 210.652,140.041 207.5,139.5 Z"/></g>
<g><path style="opacity:1" fill="#6f7325" d="M 165.5,118.5 C 169.282,122.245 169.449,126.245 166,130.5C 164.599,128.808 162.766,128.141 160.5,128.5C 161.919,127.549 163.585,127.216 165.5,127.5C 165.5,125.167 165.5,122.833 165.5,120.5C 165.5,119.833 165.5,119.167 165.5,118.5 Z"/></g>
<g><path style="opacity:1" fill="#e9d8cd" d="M 284.5,115.5 C 283.473,117.194 282.139,118.527 280.5,119.5C 277.011,120.477 274.177,122.477 272,125.5C 271.333,124.833 271.333,124.167 272,123.5C 275.532,119.794 279.698,117.127 284.5,115.5 Z"/></g>
<g><path style="opacity:1" fill="#a1af1e" d="M 158.5,111.5 C 151.935,110.422 149.768,113.089 152,119.5C 152.374,121.491 153.207,123.158 154.5,124.5C 155.338,124.842 155.672,125.508 155.5,126.5C 155.511,128.017 156.177,129.184 157.5,130C 156.833,130.667 156.167,130.667 155.5,130C 151.26,124.54 149.76,118.373 151,111.5C 153.621,108.86 156.121,108.86 158.5,111.5 Z"/></g>
<g><path style="opacity:1" fill="#ab4508" d="M 309.5,129.5 C 313.213,125.528 317.88,123.362 323.5,123C 323.833,122.667 324.167,122.333 324.5,122C 319.873,121.573 315.54,122.573 311.5,125C 309.859,126.129 308.859,127.629 308.5,129.5C 303.096,132.067 298.763,135.901 295.5,141C 291.796,141.804 288.296,141.304 285,139.5C 285.202,129.612 290.369,125.112 300.5,126C 308.846,113.409 318.513,112.242 329.5,122.5C 322.279,123.682 315.612,126.016 309.5,129.5 Z"/></g>
<g><path style="opacity:1" fill="#f0e2d8" d="M 312.5,119.5 C 314.199,119.34 315.866,119.506 317.5,120C 311.329,121.585 306.329,124.918 302.5,130C 297.768,131.235 294.435,134.068 292.5,138.5C 292.403,136.166 293.403,134 295.5,132C 301.63,128.356 307.297,124.189 312.5,119.5 Z"/></g>
<g><path style="opacity:1" fill="#efddd1" d="M 309.5,129.5 C 309.167,129.5 308.833,129.5 308.5,129.5C 308.859,127.629 309.859,126.129 311.5,125C 315.54,122.573 319.873,121.573 324.5,122C 324.167,122.333 323.833,122.667 323.5,123C 317.88,123.362 313.213,125.528 309.5,129.5 Z"/></g>
<g><path style="opacity:1" fill="#e3d0c4" d="M 290.5,123.5 C 288.167,125.5 285.833,127.5 283.5,129.5C 285.557,125.933 288.223,122.766 291.5,120C 293.044,118.813 294.711,118.48 296.5,119C 294.253,120.277 292.253,121.777 290.5,123.5 Z"/></g>
<g><path style="opacity:1" fill="#ccd60c" d="M 253.5,116.5 C 256.807,116.063 259.807,116.73 262.5,118.5C 258.176,122.886 255.176,122.22 253.5,116.5 Z"/></g>
<g><path style="opacity:1" fill="#aebd17" d="M 214.5,121.5 C 212.521,119.832 210.188,119.166 207.5,119.5C 208.659,117.623 210.326,117.123 212.5,118C 213.823,118.816 214.489,119.983 214.5,121.5 Z"/></g>
<g><path style="opacity:1" fill="#d4d3d2" d="M 197.5,127.5 C 197.291,126.078 196.791,124.745 196,123.5C 187.366,114.874 182.533,116.874 181.5,129.5C 180.362,127.283 180.195,124.283 181,120.5C 184.853,112.9 189.519,112.567 195,119.5C 196.753,122.005 198.253,124.671 199.5,127.5C 199.03,128.463 198.363,128.463 197.5,127.5 Z"/></g>
<g><path style="opacity:1" fill="#a4b221" d="M 186.5,122.5 C 184.87,124.026 184.037,126.026 184,128.5C 182.422,123.868 183.922,120.868 188.5,119.5C 189.737,119.556 190.737,120.056 191.5,121C 189.618,121.198 187.952,121.698 186.5,122.5 Z"/></g>
<g><path style="opacity:1" fill="#a8b71c" d="M 172.5,111.5 C 172.73,115.694 174.397,119.194 177.5,122C 176.004,122.507 174.837,122.007 174,120.5C 172.293,118.091 171.46,115.425 171.5,112.5C 171.5,111.833 171.833,111.5 172.5,111.5 Z"/></g>
<g><path style="opacity:1" fill="#d92e30" d="M 133.5,112.5 C 136.289,115.066 139.289,117.4 142.5,119.5C 138.784,123.231 135.284,127.231 132,131.5C 132.165,125.167 132.665,118.834 133.5,112.5 Z"/></g>
<g><path style="opacity:1" fill="#ab4507" d="M 300.5,120.5 C 298.326,120.75 296.659,121.75 295.5,123.5C 293.833,123.5 292.167,123.5 290.5,123.5C 292.253,121.777 294.253,120.277 296.5,119C 294.711,118.48 293.044,118.813 291.5,120C 288.223,122.766 285.557,125.933 283.5,129.5C 279.948,131.367 277.114,134.034 275,137.5C 274.333,138.833 274.333,140.167 275,141.5C 276,139.5 277,137.5 278,135.5C 278.816,134.177 279.983,133.511 281.5,133.5C 281.039,135.55 280.372,137.55 279.5,139.5C 280.605,140.892 281.939,142.059 283.5,143C 283.167,143.333 282.833,143.667 282.5,144C 277.5,144.667 272.5,144.667 267.5,144C 266.346,134.341 270.679,129.007 280.5,128C 282.773,122.06 286.773,117.727 292.5,115C 296.61,113.857 300.276,114.523 303.5,117C 302.29,118.039 301.29,119.206 300.5,120.5 Z"/></g>
<g><path style="opacity:1" fill="#66a032" d="M 227.5,114.5 C 232.435,115.383 232.435,117.05 227.5,119.5C 227.193,118.113 227.193,116.446 227.5,114.5 Z"/></g>
<g><path style="opacity:1" fill="#c0d305" d="M 165.5,120.5 C 165.5,122.833 165.5,125.167 165.5,127.5C 163.585,127.216 161.919,127.549 160.5,128.5C 159.883,128.611 159.383,128.944 159,129.5C 157.961,128.29 156.794,127.29 155.5,126.5C 155.672,125.508 155.338,124.842 154.5,124.5C 153.942,121.656 153.275,118.822 152.5,116C 153.636,112.125 155.969,111.459 159.5,114C 161.734,116.063 163.734,118.229 165.5,120.5 Z"/></g>
<g><path style="opacity:1" fill="#585336" d="M 158.5,111.5 C 159.167,111.5 159.833,111.5 160.5,111.5C 161.167,111.5 161.833,111.5 162.5,111.5C 163.812,112.145 164.812,113.145 165.5,114.5C 164.637,115.726 164.637,117.06 165.5,118.5C 165.5,119.167 165.5,119.833 165.5,120.5C 163.734,118.229 161.734,116.063 159.5,114C 155.969,111.459 153.636,112.125 152.5,116C 153.275,118.822 153.942,121.656 154.5,124.5C 153.207,123.158 152.374,121.491 152,119.5C 149.768,113.089 151.935,110.422 158.5,111.5 Z"/></g>
<g><path style="opacity:1" fill="#9f171a" d="M 229.5,108.5 C 241.911,109.046 254.244,110.213 266.5,112C 265.601,113.236 264.434,114.07 263,114.5C 259.979,113.148 256.812,112.481 253.5,112.5C 249.364,113.316 245.197,113.983 241,114.5C 236.947,114.268 233.114,113.268 229.5,111.5C 229.5,110.5 229.5,109.5 229.5,108.5 Z"/></g>
<g><path style="opacity:1" fill="#b6c81b" d="M 193.5,111.5 C 193.607,113.379 193.107,113.712 192,112.5C 191.51,111.207 191.343,109.873 191.5,108.5C 191.337,106.143 191.503,103.81 192,101.5C 192.179,105.025 192.679,108.359 193.5,111.5 Z"/></g>
<g><path style="opacity:1" fill="#5b5a23" d="M 217.5,97.5 C 220.518,98.3534 222.351,100.353 223,103.5C 223.464,102.906 223.631,102.239 223.5,101.5C 223.833,101.5 224.167,101.5 224.5,101.5C 224.774,106.263 224.441,110.93 223.5,115.5C 222.21,116.058 221.377,117.058 221,118.5C 219.915,117.264 219.082,115.931 218.5,114.5C 219.825,115.953 220.658,115.619 221,113.5C 221.667,109.5 221.667,105.5 221,101.5C 220.261,100.426 219.261,99.7591 218,99.5C 216.285,100.604 214.785,101.938 213.5,103.5C 213.833,102.167 214.167,100.833 214.5,99.5C 214.973,98.0937 215.973,97.427 217.5,97.5 Z"/></g>
<g><path style="opacity:1" fill="#6e6f28" d="M 173.5,100.5 C 175.415,100.216 177.081,100.549 178.5,101.5C 176.486,101.392 174.82,102.058 173.5,103.5C 172.493,105.361 172.16,108.028 172.5,111.5C 171.833,111.5 171.5,111.833 171.5,112.5C 171.167,112.5 170.833,112.5 170.5,112.5C 169.167,109.833 169.167,107.167 170.5,104.5C 171.143,102.924 172.143,101.59 173.5,100.5 Z"/></g>
<g><path style="opacity:1" fill="#d3d2d2" d="M 162.5,111.5 C 161.833,111.5 161.167,111.5 160.5,111.5C 159.488,109.124 157.655,108.124 155,108.5C 152.966,108.354 151.299,109.02 150,110.5C 149.508,115.551 149.508,120.551 150,125.5C 147.404,119.676 146.904,113.676 148.5,107.5C 150.26,104.979 152.593,104.146 155.5,105C 158.331,106.666 160.664,108.832 162.5,111.5 Z"/></g>
<g><path style="opacity:1" fill="#5e5e26" d="M 178.5,101.5 C 179.167,101.5 179.833,101.5 180.5,101.5C 181.5,102.167 182.5,102.833 183.5,103.5C 184.014,105.366 184.68,107.2 185.5,109C 185.43,109.765 185.097,110.265 184.5,110.5C 182.761,107.365 180.761,104.365 178.5,101.5 Z"/></g>
<g><path style="opacity:1" fill="#bfd207" d="M 178.5,101.5 C 180.761,104.365 182.761,107.365 184.5,110.5C 181.542,113.06 179.042,116.06 177,119.5C 173.941,114.645 172.774,109.311 173.5,103.5C 174.82,102.058 176.486,101.392 178.5,101.5 Z"/></g>
<g><path style="opacity:1" fill="#c69e62" d="M 115.5,99.5 C 120.598,98.4295 123.764,100.429 125,105.5C 125.855,122.558 122.855,138.891 116,154.5C 110.164,164.569 102.498,166.569 93,160.5C 89.4336,148.393 89.767,136.393 94,124.5C 97.9557,113.161 105.122,104.828 115.5,99.5 Z"/></g>
<g><path style="opacity:1" fill="#bfd108" d="M 218.5,114.5 C 216.418,111.751 214.084,109.417 211.5,107.5C 212.674,106.486 213.34,105.153 213.5,103.5C 214.785,101.938 216.285,100.604 218,99.5C 219.261,99.7591 220.261,100.426 221,101.5C 221.667,105.5 221.667,109.5 221,113.5C 220.658,115.619 219.825,115.953 218.5,114.5 Z"/></g>
<g><path style="opacity:1" fill="#c2d504" d="M 203.5,104.5 C 202.445,108.674 201.445,112.84 200.5,117C 196.415,117.105 194.415,114.939 194.5,110.5C 194.207,106.563 194.54,102.73 195.5,99C 196.5,98.3333 197.5,98.3333 198.5,99C 200.402,100.73 202.069,102.563 203.5,104.5 Z"/></g>
<g><path style="opacity:1" fill="#484324" d="M 199.5,95.5 C 202.562,96.2678 204.228,98.2678 204.5,101.5C 204.443,102.609 204.11,103.609 203.5,104.5C 202.069,102.563 200.402,100.73 198.5,99C 197.5,98.3333 196.5,98.3333 195.5,99C 194.54,102.73 194.207,106.563 194.5,110.5C 193.833,110.5 193.5,110.833 193.5,111.5C 192.679,108.359 192.179,105.025 192,101.5C 191.503,103.81 191.337,106.143 191.5,108.5C 191.167,108.5 190.833,108.5 190.5,108.5C 190.335,105.482 190.502,102.482 191,99.5C 191.278,98.5842 191.778,97.9175 192.5,97.5C 192.459,101.243 193.126,101.41 194.5,98C 197.636,96.9595 200.136,97.7928 202,100.5C 201.942,98.5646 201.109,96.8979 199.5,95.5 Z"/></g>
<g><path style="opacity:1" fill="#cfcecd" d="M 223.5,115.5 C 224.441,110.93 224.774,106.263 224.5,101.5C 224.11,96.466 221.444,94.6327 216.5,96C 212.221,98.7286 209.554,102.562 208.5,107.5C 207.842,108.398 207.176,109.398 206.5,110.5C 206.999,103.364 210.332,97.531 216.5,93C 220.986,90.4168 224.152,91.5835 226,96.5C 226.689,102.882 226.355,109.215 225,115.5C 224.527,117.779 223.527,119.779 222,121.5C 222.15,119.494 222.65,117.494 223.5,115.5 Z"/></g>
<g><path style="opacity:1" fill="#3b3327" d="M 213.5,103.5 C 213.34,105.153 212.674,106.486 211.5,107.5C 211.229,105.62 211.896,104.287 213.5,103.5 Z"/></g>
<g><path style="opacity:1" fill="#a2b01d" d="M 214.5,99.5 C 214.167,100.833 213.833,102.167 213.5,103.5C 211.896,104.287 211.229,105.62 211.5,107.5C 210.849,108.091 210.182,108.757 209.5,109.5C 208.702,109.043 208.369,108.376 208.5,107.5C 210.115,104.55 212.115,101.884 214.5,99.5 Z"/></g>
<g><path style="opacity:1" fill="#b9cb18" d="M 217.5,97.5 C 220.895,96.2166 222.895,97.55 223.5,101.5C 223.631,102.239 223.464,102.906 223,103.5C 222.351,100.353 220.518,98.3534 217.5,97.5 Z"/></g>
<g><path style="opacity:1" fill="#29221e" d="M 224.5,101.5 C 224.167,101.5 223.833,101.5 223.5,101.5C 222.895,97.55 220.895,96.2166 217.5,97.5C 215.973,97.427 214.973,98.0937 214.5,99.5C 212.115,101.884 210.115,104.55 208.5,107.5C 209.554,102.562 212.221,98.7286 216.5,96C 221.444,94.6327 224.11,96.466 224.5,101.5 Z"/></g>
<g><path style="opacity:1" fill="#c59e62" d="M 368.5,92.5 C 374.402,92.0347 378.902,94.3681 382,99.5C 386.657,106.804 389.324,114.804 390,123.5C 390.807,132.546 390.474,141.546 389,150.5C 387.098,159.751 381.598,164.585 372.5,165C 369.894,163.062 368.061,160.562 367,157.5C 361.906,140.177 359.906,122.51 361,104.5C 362.139,99.5525 364.639,95.5525 368.5,92.5 Z"/></g>
<g><path style="opacity:1" fill="#dddcdb" d="M 183.5,103.5 C 180.664,96.889 176.497,95.889 171,100.5C 170.51,101.793 170.343,103.127 170.5,104.5C 169.167,107.167 169.167,109.833 170.5,112.5C 170.274,117.55 172.274,121.383 176.5,124C 175.234,124.309 174.067,124.809 173,125.5C 168.808,117.654 167.474,109.321 169,100.5C 173.746,91.2297 178.746,91.2297 184,100.5C 184.5,101.5 185,102.5 185.5,103.5C 185.03,104.463 184.363,104.463 183.5,103.5 Z"/></g>
<g><path style="opacity:1" fill="#2e261e" d="M 183.5,103.5 C 182.5,102.833 181.5,102.167 180.5,101.5C 178.481,98.0709 176.148,97.7376 173.5,100.5C 172.143,101.59 171.143,102.924 170.5,104.5C 170.343,103.127 170.51,101.793 171,100.5C 176.497,95.889 180.664,96.889 183.5,103.5 Z"/></g>
<g><path style="opacity:1" fill="#bccf10" d="M 180.5,101.5 C 179.833,101.5 179.167,101.5 178.5,101.5C 177.081,100.549 175.415,100.216 173.5,100.5C 176.148,97.7376 178.481,98.0709 180.5,101.5 Z"/></g>
<g><path style="opacity:1" fill="#d9d8d7" d="M 204.5,101.5 C 204.228,98.2678 202.562,96.2678 199.5,95.5C 197.712,94.3775 195.712,94.2109 193.5,95C 192.748,95.6708 192.414,96.5041 192.5,97.5C 191.778,97.9175 191.278,98.5842 191,99.5C 190.502,102.482 190.335,105.482 190.5,108.5C 190.719,109.675 190.386,110.675 189.5,111.5C 187.361,103.937 188.695,97.104 193.5,91C 199.377,90.1891 203.21,92.6891 205,98.5C 205.74,99.7494 205.573,100.749 204.5,101.5 Z"/></g>
<g><path style="opacity:1" fill="#acbc1a" d="M 199.5,95.5 C 201.109,96.8979 201.942,98.5646 202,100.5C 200.136,97.7928 197.636,96.9595 194.5,98C 193.126,101.41 192.459,101.243 192.5,97.5C 194.479,95.8325 196.812,95.1658 199.5,95.5 Z"/></g>
<g><path style="opacity:1" fill="#2a231f" d="M 199.5,95.5 C 196.812,95.1658 194.479,95.8325 192.5,97.5C 192.414,96.5041 192.748,95.6708 193.5,95C 195.712,94.2109 197.712,94.3775 199.5,95.5 Z"/></g>
<g><path style="opacity:1" fill="#c0965c" d="M 213.5,189.5 C 213.116,191.293 211.95,192.293 210,192.5C 207.942,191.888 206.109,190.888 204.5,189.5C 202.957,192.39 200.624,194.057 197.5,194.5C 194.033,194.554 191.366,193.054 189.5,190C 191.692,188.641 193.359,186.808 194.5,184.5C 198.325,183.735 202.158,183.068 206,182.5C 208.305,184.97 210.805,187.303 213.5,189.5 Z"/></g>
<g><path style="opacity:1" fill="#926135" d="M 235.5,172.5 C 237.527,176.8 238.193,181.3 237.5,186C 230.247,187.557 222.914,187.89 215.5,187C 213.649,185.316 211.982,183.483 210.5,181.5C 210.855,180.478 211.522,179.811 212.5,179.5C 213.3,181.741 214.966,182.741 217.5,182.5C 217.5,183.833 217.5,185.167 217.5,186.5C 218.873,186.657 220.207,186.49 221.5,186C 222.725,184.437 224.225,183.27 226,182.5C 229.105,184.742 232.272,184.909 235.5,183C 235.27,179.552 235.27,176.052 235.5,172.5 Z"/></g>
<g><path style="opacity:1" fill="#956437" d="M 185.5,182.5 C 193.048,183.054 193.048,184.887 185.5,188C 179.833,188.667 174.167,188.667 168.5,188C 170.862,186.489 173.195,184.989 175.5,183.5C 177.607,184.3 179.774,184.967 182,185.5C 184.275,185.722 185.441,184.722 185.5,182.5 Z"/></g>
<g><path style="opacity:1" fill="#cbcaca" d="M 273.5,185.5 C 275.085,186.002 275.585,187.002 275,188.5C 273.961,187.756 273.461,186.756 273.5,185.5 Z"/></g>
<g><path style="opacity:1" fill="#eaeaea" d="M 269.5,189.5 C 272.786,190.242 274.12,192.075 273.5,195C 265.5,195.667 257.5,195.667 249.5,195C 248.328,194.581 247.328,193.915 246.5,193C 253.458,191.936 260.458,191.269 267.5,191C 268.416,190.722 269.082,190.222 269.5,189.5 Z"/></g>
<g><path style="opacity:1" fill="#8ca6b3" d="M 179.5,192.5 C 182.178,191.091 184.844,191.257 187.5,193C 184.739,193.722 182.073,193.555 179.5,192.5 Z"/></g>
<g><path style="opacity:1" fill="#906034" d="M 213.5,189.5 C 220.915,190.769 220.581,192.602 212.5,195C 207.316,195.816 202.316,195.65 197.5,194.5C 200.624,194.057 202.957,192.39 204.5,189.5C 206.109,190.888 207.942,191.888 210,192.5C 211.95,192.293 213.116,191.293 213.5,189.5 Z"/></g>
<g><path style="opacity:1" fill="#bf975d" d="M 239.5,192.5 C 238.986,194.439 237.653,195.439 235.5,195.5C 233.617,194.976 231.784,194.309 230,193.5C 228.358,193.978 227.191,194.978 226.5,196.5C 224.143,196.663 221.81,196.497 219.5,196C 220.833,194.333 222.167,192.667 223.5,191C 228.854,190.609 234.188,190.109 239.5,189.5C 239.5,190.5 239.5,191.5 239.5,192.5 Z"/></g>
<g><path style="opacity:1" fill="#e3e2e2" d="M 307.5,186.5 C 311.567,188.649 311.233,190.149 306.5,191C 299.316,193.309 291.983,194.309 284.5,194C 291.093,192.122 297.76,190.455 304.5,189C 305.942,188.623 306.942,187.79 307.5,186.5 Z"/></g>
<g><path style="opacity:1" fill="#946236" d="M 239.5,192.5 C 240.815,193.476 242.148,194.476 243.5,195.5C 237.872,196.495 232.206,196.829 226.5,196.5C 227.191,194.978 228.358,193.978 230,193.5C 231.784,194.309 233.617,194.976 235.5,195.5C 237.653,195.439 238.986,194.439 239.5,192.5 Z"/></g>
<g><path style="opacity:1" fill="#e65715" d="M 345.5,265.5 C 347.371,265.859 348.871,266.859 350,268.5C 357.166,278.007 359.833,288.673 358,300.5C 357.727,302.329 356.893,303.829 355.5,305C 347.964,307.148 342.798,304.648 340,297.5C 339.404,292.12 339.738,286.787 341,281.5C 342.609,276.177 344.109,270.844 345.5,265.5 Z"/></g>
<g><path style="opacity:1" fill="#e75615" d="M 147.5,271.5 C 152.312,277.104 156.146,283.437 159,290.5C 161.766,295.711 162.099,301.044 160,306.5C 150.342,314.849 144.342,312.849 142,300.5C 140.081,290.022 141.914,280.355 147.5,271.5 Z"/></g>
<g><path style="opacity:1" fill="#e55616" d="M 307.5,278.5 C 310.056,279.543 312.223,281.21 314,283.5C 319.793,292.003 322.126,301.337 321,311.5C 319.761,318.072 315.927,320.238 309.5,318C 305.23,316.73 302.73,313.896 302,309.5C 301.504,304.792 301.838,300.125 303,295.5C 304.406,289.787 305.906,284.12 307.5,278.5 Z"/></g>
<g><path style="opacity:1" fill="#f8b52e" d="M 347.5,280.5 C 352.106,281.637 354.94,284.637 356,289.5C 356.931,293.412 356.097,296.912 353.5,300C 350.044,301.123 347.21,300.29 345,297.5C 344.333,293.167 344.333,288.833 345,284.5C 345.662,283.016 346.496,281.683 347.5,280.5 Z"/></g>
<g><path style="opacity:1" fill="#e55615" d="M 184.5,280.5 C 191.149,289.301 195.815,299.135 198.5,310C 196.873,318.297 191.873,321.963 183.5,321C 179.346,315.387 177.679,309.054 178.5,302C 177.977,294.076 179.977,286.91 184.5,280.5 Z"/></g>
<g><path style="opacity:1" fill="#f8b52e" d="M 147.5,286.5 C 152.258,286.941 155.091,289.608 156,294.5C 157.262,298.909 156.428,302.743 153.5,306C 148.876,307.056 146.043,305.223 145,300.5C 143.911,295.444 144.744,290.778 147.5,286.5 Z"/></g>
<g><path style="opacity:1" fill="#e55716" d="M 270.5,287.5 C 272.716,288.203 274.549,289.536 276,291.5C 282.277,300.547 284.61,310.547 283,321.5C 282.837,323.676 282.004,325.509 280.5,327C 266.679,327.819 261.512,321.319 265,307.5C 266.525,300.732 268.358,294.065 270.5,287.5 Z"/></g>
<g><path style="opacity:1" fill="#f8b62e" d="M 309.5,293.5 C 310.873,293.343 312.207,293.51 313.5,294C 319.151,299.875 319.817,306.208 315.5,313C 311.74,314.176 308.907,313.01 307,309.5C 305.834,303.753 306.668,298.419 309.5,293.5 Z"/></g>
<g><path style="opacity:1" fill="#f8b52e" d="M 185.5,295.5 C 187.371,295.859 188.871,296.859 190,298.5C 193.399,303.215 194.066,308.215 192,313.5C 187.82,317.792 184.487,317.126 182,311.5C 180.52,305.451 181.686,300.118 185.5,295.5 Z"/></g>
<g><path style="opacity:1" fill="#8f8a8a" d="M 209.5,297.5 C 211.833,297.5 214.167,297.5 216.5,297.5C 216.737,298.791 216.404,299.791 215.5,300.5C 213.844,298.94 211.844,297.94 209.5,297.5 Z"/></g>
<g><path style="opacity:1" fill="#a9a6a5" d="M 260.5,301.5 C 253.833,300.167 247.167,300.167 240.5,301.5C 239.957,301.44 239.624,301.107 239.5,300.5C 246.833,299.167 254.167,299.167 261.5,300.5C 261.376,301.107 261.043,301.44 260.5,301.5 Z"/></g>
<g><path style="opacity:1" fill="#e65615" d="M 226.5,289.5 C 233.149,298.301 237.815,308.135 240.5,319C 239.354,325.644 235.354,329.477 228.5,330.5C 224.432,328.922 221.932,325.922 221,321.5C 220.178,313.445 220.512,305.445 222,297.5C 223.259,294.644 224.759,291.977 226.5,289.5 Z"/></g>
<g><path style="opacity:1" fill="#f8b52e" d="M 271.5,302.5 C 275.526,302.677 278.359,304.677 280,308.5C 280.667,312.167 280.667,315.833 280,319.5C 274.998,324.048 271.331,323.048 269,316.5C 268.555,311.612 269.388,306.945 271.5,302.5 Z"/></g>
<g><path style="opacity:1" fill="#f8b42e" d="M 226.5,304.5 C 228.981,304.323 230.814,305.323 232,307.5C 235.572,312.168 236.239,317.168 234,322.5C 229.738,326.862 226.404,326.195 224,320.5C 221.69,314.693 222.523,309.36 226.5,304.5 Z"/></g>
</svg>
