<?xml version="1.0" encoding="UTF-8"?>
<!DOCTYPE svg PUBLIC "-//W3C//DTD SVG 1.1//EN" "http://www.w3.org/Graphics/SVG/1.1/DTD/svg11.dtd">
<svg xmlns="http://www.w3.org/2000/svg" version="1.1" width="482px" height="340px" style="shape-rendering:geometricPrecision; text-rendering:geometricPrecision; image-rendering:optimizeQuality; fill-rule:evenodd; clip-rule:evenodd" xmlns:xlink="http://www.w3.org/1999/xlink">
<g><path style="opacity:1" fill="#0eff07" d="M -0.5,-0.5 C 160.167,-0.5 320.833,-0.5 481.5,-0.5C 481.5,112.833 481.5,226.167 481.5,339.5C 320.833,339.5 160.167,339.5 -0.5,339.5C -0.5,226.167 -0.5,112.833 -0.5,-0.5 Z"/></g>
<g><path style="opacity:1" fill="#e3e5e2" d="M 273.5,8.5 C 279.981,7.48743 285.148,9.48743 289,14.5C 291.14,13.2718 292.807,11.6051 294,9.5C 294.333,10.1667 294.667,10.8333 295,11.5C 296.907,11.5795 298.907,11.2461 301,10.5C 302.44,12.0456 304.273,12.879 306.5,13C 306.043,13.414 305.709,13.914 305.5,14.5C 308.535,18.4417 309.202,22.7751 307.5,27.5C 308.376,28.2508 309.376,28.7508 310.5,29C 309.833,29.3333 309.167,29.6667 308.5,30C 316.599,37.3702 316.432,44.5369 308,51.5C 305.539,50.7819 303.039,50.1153 300.5,49.5C 299.158,50.9023 298.324,50.5689 298,48.5C 296.53,51.6729 295.53,54.6729 295,57.5C 291.987,56.9838 289.32,57.9838 287,60.5C 281.333,58.8333 277.667,55.1667 276,49.5C 275.667,50.1667 275.333,50.8333 275,51.5C 273.204,50.233 271.371,50.233 269.5,51.5C 265.959,48.2433 263.292,44.41 261.5,40C 262.886,37.5164 264.553,35.183 266.5,33C 265.216,31.7025 265.383,30.5358 267,29.5C 267.669,32.0278 268.502,32.0278 269.5,29.5C 267.559,27.1659 265.893,24.6659 264.5,22C 265.177,15.7761 268.177,11.2761 273.5,8.5 Z"/></g>
<g><path style="opacity:1" fill="#3dff2c" d="M 274.5,13.5 C 275.812,13.8243 276.645,14.4909 277,15.5C 280.029,13.2888 282.696,13.9555 285,17.5C 285.333,19.1667 285.667,20.8333 286,22.5C 286.725,23.0585 287.558,23.3918 288.5,23.5C 290.883,21.5438 293.216,19.7105 295.5,18C 294.833,17.6667 294.167,17.3333 293.5,17C 296.88,16.0623 299.88,16.729 302.5,19C 300.343,20.0847 300.176,21.2513 302,22.5C 302.333,21.8333 302.667,21.1667 303,20.5C 303.65,25.0273 301.816,28.194 297.5,30C 298.167,31.3333 298.833,32.6667 299.5,34C 302.135,34.7202 304.802,35.3869 307.5,36C 306.833,36.3333 306.167,36.6667 305.5,37C 307.072,39.038 308.072,41.3713 308.5,44C 307.737,44.9435 306.737,45.4435 305.5,45.5C 302.46,44.5627 299.626,43.2294 297,41.5C 295.56,42.1476 294.06,42.4809 292.5,42.5C 292.789,45.6492 292.289,48.6492 291,51.5C 290.667,50.8333 290.333,50.1667 290,49.5C 289.5,50.6667 288.667,51.5 287.5,52C 288.706,53.0177 288.373,53.5177 286.5,53.5C 284.222,53.2186 283.055,51.8852 283,49.5C 282.667,49.8333 282.333,50.1667 282,50.5C 280.663,43.3496 277.33,41.6829 272,45.5C 267.122,41.3696 267.289,38.5363 272.5,37C 271.833,36.6667 271.167,36.3333 270.5,36C 272,34.8855 273.667,34.0521 275.5,33.5C 278.273,30.2298 277.94,27.2298 274.5,24.5C 273.575,25.6405 272.741,25.6405 272,24.5C 269.876,20.0608 270.709,16.3941 274.5,13.5 Z"/></g>
<g><path style="opacity:1" fill="#e3e5e3" d="M 212.5,58.5 C 199.988,52.8746 198.322,45.0413 207.5,35C 209.218,34.654 210.885,34.154 212.5,33.5C 213.086,33.7093 213.586,34.0426 214,34.5C 215.1,23.054 221.267,17.8873 232.5,19C 234.96,20.4578 237.127,22.2911 239,24.5C 240.666,23.6598 240.833,24.1598 239.5,26C 240.167,26.3333 240.833,26.6667 241.5,27C 240.167,27.6667 240.167,28.3333 241.5,29C 244.221,29.4404 247.054,29.2737 250,28.5C 250.667,29.1667 251.333,29.8333 252,30.5C 253.84,29.1669 254.34,29.3335 253.5,31C 256.901,34.5893 258.568,38.5893 258.5,43C 255.398,45.3526 253.398,48.0193 252.5,51C 255.167,51.6667 255.167,52.3333 252.5,53C 253.712,59.9829 250.712,64.1496 243.5,65.5C 241.307,64.4464 239.807,64.7797 239,66.5C 238.009,65.0611 236.676,64.0611 235,63.5C 234.383,64.4491 234.549,65.2825 235.5,66C 234.5,66.3333 233.5,66.6667 232.5,67C 233.654,67.9138 233.487,68.7471 232,69.5C 231.667,69.1667 231.333,68.8333 231,68.5C 229.312,70.0449 227.312,71.0449 225,71.5C 223.667,70.1667 222.333,70.1667 221,71.5C 219.167,70 217.333,68.5 215.5,67C 215.833,66.6667 216.167,66.3333 216.5,66C 215.133,63.328 214.133,60.4946 213.5,57.5C 212.893,57.6236 212.56,57.9569 212.5,58.5 Z"/></g>
<g><path style="opacity:1" fill="#46ff33" d="M 225.5,23.5 C 227.989,23.2978 230.323,23.7978 232.5,25C 235.161,29.9958 237.828,34.4958 240.5,38.5C 242.619,35.1082 245.619,33.9415 249.5,35C 248.833,35.3333 248.167,35.6667 247.5,36C 251.563,37.9636 251.897,39.9636 248.5,42C 248.833,43 249.167,44 249.5,45C 246.951,45.7514 245.284,47.418 244.5,50C 247.884,52.2277 248.718,55.061 247,58.5C 244.627,60.8501 242.127,61.0167 239.5,59C 240.336,57.7567 240.003,56.5901 238.5,55.5C 237.914,55.7093 237.414,56.0426 237,56.5C 236.121,53.6537 234.454,52.987 232,54.5C 231.727,58.5437 230.227,62.0437 227.5,65C 225.029,65.7063 222.695,65.373 220.5,64C 221.167,63.3333 221.833,62.6667 222.5,62C 221.167,61 221.167,60 222.5,59C 222.167,58.8333 221.833,58.6667 221.5,58.5C 220.719,59.7287 220.219,61.062 220,62.5C 219.833,61.6667 219.667,60.8333 219.5,60C 220.218,57.7825 220.718,55.6159 221,53.5C 219.135,51.3268 216.969,50.9934 214.5,52.5C 206.906,50.9853 205.073,46.9853 209,40.5C 210.087,42.9316 210.587,42.5983 210.5,39.5C 213.528,39.3389 216.361,40.0056 219,41.5C 219.772,41.3552 220.439,41.0219 221,40.5C 221.837,38.6494 222.671,36.8161 223.5,35C 220.526,33.4943 220.193,31.8276 222.5,30C 221.833,29.6667 221.167,29.3333 220.5,29C 223.056,27.9455 224.723,26.1122 225.5,23.5 Z"/></g>
<g><path style="opacity:1" fill="#e4e4e3" d="M 339.5,30.5 C 350.256,28.7079 356.089,32.7079 357,42.5C 357.333,41.1667 357.667,39.8333 358,38.5C 358.483,39.448 358.649,40.448 358.5,41.5C 361.598,41.5875 361.932,41.0875 359.5,40C 360.167,39.8333 360.833,39.6667 361.5,39.5C 362.468,41.0165 364.301,42.3498 367,43.5C 367.333,43.1667 367.667,42.8333 368,42.5C 371.111,46.7223 372.111,51.3889 371,56.5C 368.659,59.6709 366.159,62.6709 363.5,65.5C 367.036,72.2078 365.703,78.0411 359.5,83C 352.822,86.1657 347.656,84.6657 344,78.5C 342.207,81.2953 340.04,83.7953 337.5,86C 333.39,86.2484 329.39,86.4151 325.5,86.5C 324.141,82.9075 322.475,79.0742 320.5,75C 321.65,72.5378 322.983,70.2045 324.5,68C 321.833,67.3333 321.833,66.6667 324.5,66C 322.413,65.2078 320.579,64.0412 319,62.5C 312.663,51.4695 315.996,44.4695 329,41.5C 329.414,41.9574 329.914,42.2907 330.5,42.5C 331.036,36.9253 334.036,32.9253 339.5,30.5 Z"/></g>
<g><path style="opacity:1" fill="#44ff32" d="M 349.5,50.5 C 353.227,49.0898 357.061,47.7565 361,46.5C 366.204,47.3272 367.871,50.3272 366,55.5C 362.519,59.3843 359.352,60.051 356.5,57.5C 353.937,57.737 353.937,58.237 356.5,59C 354.866,59.4935 353.199,59.6602 351.5,59.5C 350.874,63.3754 352.541,65.2087 356.5,65C 360.533,68.1676 361.367,72.0009 359,76.5C 357.818,78.3569 356.151,79.3569 354,79.5C 351.575,78.0837 349.409,76.2504 347.5,74C 345.888,73.2797 344.388,73.4464 343,74.5C 342.333,73.8333 341.667,73.1667 341,72.5C 339.855,74.9258 338.522,77.2591 337,79.5C 331.585,83.0546 328.085,81.7212 326.5,75.5C 326.632,73.399 327.632,71.899 329.5,71C 329.167,70.6667 328.833,70.3333 328.5,70C 330.37,68.6338 332.37,67.4672 334.5,66.5C 336.174,63.2176 335.174,61.2176 331.5,60.5C 326.392,62.5336 323.559,61.2003 323,56.5C 322.667,56.8333 322.333,57.1667 322,57.5C 321.245,54.6967 321.578,52.0301 323,49.5C 323.914,50.6537 324.747,50.487 325.5,49C 325.167,48.6667 324.833,48.3333 324.5,48C 328.026,45.9131 331.026,46.5798 333.5,50C 333.167,50.3333 332.833,50.6667 332.5,51C 335.847,52.2065 338.18,51.2065 339.5,48C 338.273,45.2641 337.273,42.4308 336.5,39.5C 337.364,37.8035 338.697,36.6368 340.5,36C 343.964,35.1834 347.298,35.5167 350.5,37C 346.815,37.9145 347.148,38.5811 351.5,39C 350.692,39.3076 350.025,39.8076 349.5,40.5C 350.167,40.8333 350.833,41.1667 351.5,41.5C 349.226,44.3038 348.56,47.3038 349.5,50.5 Z"/></g>
<g><path style="opacity:1" fill="#fdfefd" d="M 349.5,50.5 C 349.483,52.0281 348.816,52.5281 347.5,52C 348.044,51.2828 348.711,50.7828 349.5,50.5 Z"/></g>
<g><path style="opacity:1" fill="#fdfefd" d="M 212.5,58.5 C 213.776,59.3864 213.776,60.3864 212.5,61.5C 211.913,60.7666 211.913,59.7666 212.5,58.5 Z"/></g>
<g><path style="opacity:1" fill="#e3e4e2" d="M 270.5,103.5 C 264.301,103.348 258.301,102.682 252.5,101.5C 265.817,101.331 265.817,100.831 252.5,100C 256.406,98.6879 260.406,98.8546 264.5,100.5C 265.192,99.9747 265.692,99.3081 266,98.5C 266.725,100.158 267.892,100.658 269.5,100C 268.944,99.6174 268.611,99.1174 268.5,98.5C 268.5,97.5 268.5,96.5 268.5,95.5C 270.707,86.6732 273.207,76.6732 276,65.5C 278.617,63.0248 280.784,63.5248 282.5,67C 279.445,76.6051 277.278,86.4384 276,96.5C 275.215,98.286 274.049,99.786 272.5,101C 274.5,101.333 276.5,101.667 278.5,102C 275.306,102.592 272.139,102.426 269,101.5C 268.167,101.667 267.333,101.833 266.5,102C 268.058,102.21 269.391,102.71 270.5,103.5 Z"/></g>
<g><path style="opacity:1" fill="#fdfefd" d="M 241.5,66.5 C 244.001,66.5109 244.168,67.1776 242,68.5C 241.536,67.9056 241.369,67.2389 241.5,66.5 Z"/></g>
<g><path style="opacity:1" fill="#fdfdfd" d="M 282.5,68.5 C 283.289,68.7828 283.956,69.2828 284.5,70C 283.184,70.5281 282.517,70.0281 282.5,68.5 Z"/></g>
<g><path style="opacity:1" fill="#e3e3e3" d="M 250.5,69.5 C 252.144,69.2865 253.644,69.6198 255,70.5C 255.333,76.1667 255.667,81.8333 256,87.5C 256.5,88 257,88.5 257.5,89C 257.105,91.7805 255.772,93.9472 253.5,95.5C 256.066,99.0075 255.566,99.3409 252,96.5C 251.529,94.7536 250.862,93.087 250,91.5C 249.814,84.5863 249.314,77.7529 248.5,71C 249.416,70.7216 250.082,70.2216 250.5,69.5 Z"/></g>
<g><path style="opacity:1" fill="#e4e5e4" d="M 305.5,73.5 C 307.75,73.9513 309.084,75.2847 309.5,77.5C 308.266,81.0335 306.933,84.5335 305.5,88C 305.645,88.772 305.978,89.4387 306.5,90C 303.898,92.775 301.064,95.9416 298,99.5C 294.006,97.7532 293.506,95.2532 296.5,92C 296.167,91.6667 295.833,91.3333 295.5,91C 299.113,85.3325 302.446,79.4992 305.5,73.5 Z"/></g>
<g><path style="opacity:1" fill="#d6edcc" d="M 392.5,99.5 C 389.75,96.5685 387.084,93.4019 384.5,90C 376.16,84.263 367.827,84.0964 359.5,89.5C 358.952,88.3115 358.619,87.1448 358.5,86C 371.462,79.5361 381.795,81.8694 389.5,93C 391.633,95.0619 392.633,97.2285 392.5,99.5 Z"/></g>
<g><path style="opacity:1" fill="#d3f2c7" d="M 207.5,92.5 C 207.5,93.1667 207.5,93.8333 207.5,94.5C 205.5,92.0284 203.167,89.8617 200.5,88C 193.282,86.5193 188.448,89.3526 186,96.5C 183.914,93.9061 181.414,91.9061 178.5,90.5C 178.842,89.6618 179.508,89.3284 180.5,89.5C 181.391,88.8902 182.391,88.5569 183.5,88.5C 184.614,93.6294 185.281,93.6294 185.5,88.5C 188.06,88.5612 190.227,87.2279 192,84.5C 194.636,84.5451 197.47,84.7118 200.5,85C 202.249,86.2915 204.082,87.4582 206,88.5C 206.791,89.745 207.291,91.0783 207.5,92.5 Z"/></g>
<g><path style="opacity:1" fill="#defad3" d="M 235.5,98.5 C 236.167,99.1667 236.833,99.8333 237.5,100.5C 234.833,100.5 232.167,100.5 229.5,100.5C 229.671,91.5022 225.338,87.6689 216.5,89C 213.37,91.128 210.537,93.628 208,96.5C 207.536,95.9056 207.369,95.2389 207.5,94.5C 207.5,93.8333 207.5,93.1667 207.5,92.5C 208.078,90.8126 209.245,89.1459 211,87.5C 212.193,89.443 213.693,89.2763 215.5,87C 221.314,84.2286 226.147,85.3952 230,90.5C 230.464,92.7 230.964,95.0333 231.5,97.5C 232.822,97.67 233.989,97.3366 235,96.5C 235.464,97.0944 235.631,97.7611 235.5,98.5 Z"/></g>
<g><path style="opacity:1" fill="#fefdfe" d="M 105.5,88.5 C 106.077,87.2267 106.743,87.2267 107.5,88.5C 107.03,89.463 106.363,89.463 105.5,88.5 Z"/></g>
<g><path style="opacity:1" fill="#e6f4e0" d="M 180.5,89.5 C 179.508,89.3284 178.842,89.6618 178.5,90.5C 175.721,90.2786 173.054,90.612 170.5,91.5C 169.316,90.3121 169.316,89.1455 170.5,88C 173.167,87.3333 175.833,87.3333 178.5,88C 179.416,88.2784 180.082,88.7784 180.5,89.5 Z"/></g>
<g><path style="opacity:1" fill="#d7f2cc" d="M 145.5,105.5 C 145.229,107.312 144.562,108.978 143.5,110.5C 138.061,105.138 132.727,99.6384 127.5,94C 121.203,90.9176 114.87,90.7509 108.5,93.5C 107.833,93.5 107.5,93.1667 107.5,92.5C 110.367,91.4762 112.867,89.8095 115,87.5C 115.519,88.5156 116.353,89.1822 117.5,89.5C 119.765,89.3236 122.098,88.9903 124.5,88.5C 130.841,94.6741 137.341,100.674 144,106.5C 144.383,105.944 144.883,105.611 145.5,105.5 Z"/></g>
<g><path style="opacity:1" fill="#00ff00" d="M 183.5,88.5 C 184.167,88.5 184.833,88.5 185.5,88.5C 185.281,93.6294 184.614,93.6294 183.5,88.5 Z"/></g>
<g><path style="opacity:1" fill="#e7f2e1" d="M 107.5,92.5 C 107.5,93.1667 107.833,93.5 108.5,93.5C 104.568,96.0917 100.901,99.0917 97.5,102.5C 97.1961,101.85 96.8627,101.183 96.5,100.5C 98.6289,98.3438 100.962,96.6771 103.5,95.5C 103.351,94.448 103.517,93.448 104,92.5C 104.986,93.1712 106.153,93.1712 107.5,92.5 Z"/></g>
<g><path style="opacity:1" fill="#e3f2dd" d="M 396.5,113.5 C 395.398,109.527 394.065,105.527 392.5,101.5C 393.473,100.209 394.473,100.209 395.5,101.5C 396.711,102.274 396.711,103.107 395.5,104C 396.333,104.833 397.167,105.667 398,106.5C 397.859,108.462 398.026,110.296 398.5,112C 398.056,113.762 397.556,113.595 397,111.5C 396.536,112.094 396.369,112.761 396.5,113.5 Z"/></g>
<g><path style="opacity:1" fill="#daf0d0" d="M 97.5,102.5 C 91.8558,110.121 87.5225,118.454 84.5,127.5C 83.596,126.791 83.2627,125.791 83.5,124.5C 83.842,120.527 85.5087,116.694 88.5,113C 88.1667,112.667 87.8333,112.333 87.5,112C 88.6226,110.956 89.9559,110.29 91.5,110C 90.8333,109.667 90.1667,109.333 89.5,109C 90.614,107.43 91.9474,106.097 93.5,105C 93.1667,104.667 92.8333,104.333 92.5,104C 94.2475,103.648 95.9142,103.148 97.5,102.5 Z"/></g>
<g><path style="opacity:1" fill="#d2fcc3" d="M 396.5,114.5 C 397.397,115.598 398.23,115.598 399,114.5C 400.84,123.33 400.673,131.997 398.5,140.5C 398.961,131.708 398.295,123.041 396.5,114.5 Z"/></g>
<g><path style="opacity:1" fill="#fefefe" d="M 79.5,119.5 C 81.0847,120.002 81.5847,121.002 81,122.5C 79.9614,121.756 79.4614,120.756 79.5,119.5 Z"/></g>
<g><path style="opacity:1" fill="#efefef" d="M 83.5,124.5 C 83.2627,125.791 83.596,126.791 84.5,127.5C 84.7373,128.791 84.404,129.791 83.5,130.5C 82.1201,130.935 81.1201,130.102 80.5,128C 82.8912,126.691 82.8912,125.691 80.5,125C 81.3523,123.272 82.3523,123.105 83.5,124.5 Z"/></g>
<g><path style="opacity:1" fill="#d3f7c6" d="M 399.5,149.5 C 398.778,149.918 398.278,150.584 398,151.5C 397.601,151.272 397.435,150.938 397.5,150.5C 397.205,148.265 397.539,146.265 398.5,144.5C 399.268,143.737 399.768,142.737 400,141.5C 400.801,144.367 400.634,147.034 399.5,149.5 Z"/></g>
<g><path style="opacity:1" fill="#e9e9e8" d="M 399.5,149.5 C 399.473,151.199 398.806,152.533 397.5,153.5C 397.167,153.5 396.833,153.5 396.5,153.5C 396.263,152.209 396.596,151.209 397.5,150.5C 397.435,150.938 397.601,151.272 398,151.5C 398.278,150.584 398.778,149.918 399.5,149.5 Z"/></g>
<g><path style="opacity:1" fill="#fefefe" d="M 79.5,165.5 C 80.2891,165.783 80.9558,166.283 81.5,167C 80.184,167.528 79.5173,167.028 79.5,165.5 Z"/></g>
<g><path style="opacity:1" fill="#fefefe" d="M 388.5,172.5 C 389.386,171.224 390.386,171.224 391.5,172.5C 390.767,173.087 389.767,173.087 388.5,172.5 Z"/></g>
<g><path style="opacity:1" fill="#d2f6c4" d="M 396.5,153.5 C 396.833,153.5 397.167,153.5 397.5,153.5C 398.148,154.979 398.481,156.479 398.5,158C 398.048,159.612 396.715,160.612 394.5,161C 397.493,161.427 397.993,162.594 396,164.5C 395.667,163.833 395.333,163.167 395,162.5C 394.333,163.833 393.667,165.167 393,166.5C 389.019,171.195 384.685,174.862 380,177.5C 377.509,180.99 374.675,184.157 371.5,187C 372.598,187.77 372.598,188.603 371.5,189.5C 370.504,189.586 369.671,189.252 369,188.5C 367.606,190.388 366.44,192.388 365.5,194.5C 365.649,195.552 365.483,196.552 365,197.5C 364.768,196.263 364.268,195.263 363.5,194.5C 370.733,183.264 379.733,173.598 390.5,165.5C 393.059,161.714 395.059,157.714 396.5,153.5 Z"/></g>
<g><path style="opacity:1" fill="#fefffd" d="M 374.5,189.5 C 373.537,188.637 373.537,187.97 374.5,187.5C 375.773,188.257 375.773,188.923 374.5,189.5 Z"/></g>
<g><path style="opacity:1" fill="#fefefe" d="M 371.5,189.5 C 372.5,189.5 373.5,189.5 374.5,189.5C 374.043,191.557 373.043,191.557 371.5,189.5 Z"/></g>
<g><path style="opacity:1" fill="#c9eabc" d="M 363.5,194.5 C 364.268,195.263 364.768,196.263 365,197.5C 365.483,196.552 365.649,195.552 365.5,194.5C 366.944,201.782 367.611,209.282 367.5,217C 367.114,222.207 367.114,227.207 367.5,232C 366.877,234.607 366.21,237.107 365.5,239.5C 365.795,237.265 365.461,235.265 364.5,233.5C 364.756,220.47 364.423,207.47 363.5,194.5 Z"/></g>
<g><path style="opacity:1" fill="#d3ebc8" d="M 83.5,131.5 C 82.3941,139.785 82.2274,148.118 83,156.5C 89.916,172.417 101.249,184.083 117,191.5C 117.208,204.553 118.042,217.553 119.5,230.5C 119.768,232.099 119.434,233.432 118.5,234.5C 116.628,230.645 115.294,226.812 114.5,223C 116.43,215.948 116.93,208.781 116,201.5C 115.667,206.5 115.333,211.5 115,216.5C 113.999,208.663 113.832,200.663 114.5,192.5C 112.61,192.703 111.11,192.037 110,190.5C 108.16,191.833 107.66,191.666 108.5,190C 107.579,188.244 106.412,188.077 105,189.5C 103.174,188.99 103.007,188.156 104.5,187C 102.545,186.047 100.878,184.713 99.5,183C 98.552,182.517 97.552,182.351 96.5,182.5C 95.5733,178.405 93.0733,175.739 89,174.5C 87.9918,170.632 85.9918,167.299 83,164.5C 82.5291,162.754 81.8624,161.087 81,159.5C 79.5779,150.859 79.0779,142.359 79.5,134C 80.1258,133.25 80.6258,132.416 81,131.5C 81.7697,132.598 82.603,132.598 83.5,131.5 Z"/></g>
<g><path style="opacity:1" fill="#00ff00" d="M 364.5,233.5 C 365.461,235.265 365.795,237.265 365.5,239.5C 364.566,240.568 364.232,241.901 364.5,243.5C 364.167,243.5 363.833,243.5 363.5,243.5C 363.833,240.167 364.167,236.833 364.5,233.5 Z"/></g>
<g><path style="opacity:1" fill="#fdfdfd" d="M 365.5,239.5 C 366.443,241.001 366.109,242.335 364.5,243.5C 364.232,241.901 364.566,240.568 365.5,239.5 Z"/></g>
<g><path style="opacity:1" fill="#d2f2c5" d="M 119.5,230.5 C 123.269,246.038 130.269,260.038 140.5,272.5C 139.1,275.035 138.1,277.702 137.5,280.5C 136.732,281.263 136.232,282.263 136,283.5C 135.517,282.552 135.351,281.552 135.5,280.5C 135.854,278.459 135.854,276.626 135.5,275C 136.357,274.311 137.023,273.478 137.5,272.5C 135.871,269.374 133.705,266.707 131,264.5C 129.904,259.74 127.071,256.573 122.5,255C 125.965,254.066 126.298,252.566 123.5,250.5C 123.709,249.914 124.043,249.414 124.5,249C 122.658,247.656 120.992,246.156 119.5,244.5C 119.833,243.833 120.167,243.167 120.5,242.5C 119.215,239.979 118.548,237.313 118.5,234.5C 119.434,233.432 119.768,232.099 119.5,230.5 Z"/></g>
<g><path style="opacity:1" fill="#fefefe" d="M 366.5,247.5 C 367.043,247.56 367.376,247.893 367.5,248.5C 366.635,249.583 365.635,249.749 364.5,249C 365.416,248.722 366.082,248.222 366.5,247.5 Z"/></g>
<g><path style="opacity:1" fill="#fefeff" d="M 120.5,249.5 C 122.975,249.747 122.975,250.413 120.5,251.5C 119.537,251.03 119.537,250.363 120.5,249.5 Z"/></g>
<g><path style="opacity:1" fill="#fefefe" d="M 364.5,250.5 C 367.001,250.511 367.168,251.178 365,252.5C 364.536,251.906 364.369,251.239 364.5,250.5 Z"/></g>
<g><path style="opacity:1" fill="#d6f1cc" d="M 363.5,243.5 C 363.833,243.5 364.167,243.5 364.5,243.5C 364.429,246.742 363.429,249.575 361.5,252C 361.833,252.333 362.167,252.667 362.5,253C 360.595,254.815 358.928,256.815 357.5,259C 358.167,259.333 358.833,259.667 359.5,260C 357.55,259.877 355.883,260.877 354.5,263C 357.726,265.964 360.059,269.464 361.5,273.5C 361.672,274.492 361.338,275.158 360.5,275.5C 358.223,271.119 355.556,266.952 352.5,263C 356.807,257.682 359.807,251.682 361.5,245C 361.836,243.97 362.503,243.47 363.5,243.5 Z"/></g>
<g><path style="opacity:1" fill="#fefeff" d="M 366.5,272.5 C 367.773,273.077 367.773,273.743 366.5,274.5C 365.537,274.03 365.537,273.363 366.5,272.5 Z"/></g>
<g><path style="opacity:1" fill="#d6efcc" d="M 335.5,281.5 C 335.167,281.5 334.833,281.5 334.5,281.5C 333.075,279.969 332.409,280.302 332.5,282.5C 329.774,282.264 327.441,283.097 325.5,285C 326.167,285.333 326.833,285.667 327.5,286C 324.85,288.082 325.184,289.749 328.5,291C 327.833,291.333 327.167,291.667 326.5,292C 326.906,294.817 328.24,297.483 330.5,300C 329.584,300.278 328.918,300.778 328.5,301.5C 327.518,304.962 327.185,308.629 327.5,312.5C 327.167,316.5 326.833,316.5 326.5,312.5C 327.65,302.439 325.65,293.106 320.5,284.5C 325.341,281.579 330.341,278.912 335.5,276.5C 336.434,278.095 336.434,279.761 335.5,281.5 Z"/></g>
<g><path style="opacity:1" fill="#e3fcda" d="M 361.5,273.5 C 363.973,273.604 364.639,274.604 363.5,276.5C 363.846,277.696 364.346,277.696 365,276.5C 365.309,277.766 365.809,278.933 366.5,280C 366.52,284.274 366.187,288.608 365.5,293C 365.944,294.762 366.444,294.595 367,292.5C 367.167,293.167 367.333,293.833 367.5,294.5C 366.805,295.476 366.138,296.476 365.5,297.5C 365.84,299.548 365.507,300.548 364.5,300.5C 365.193,291.799 363.86,283.466 360.5,275.5C 361.338,275.158 361.672,274.492 361.5,273.5 Z"/></g>
<g><path style="opacity:1" fill="#261b18" d="M 392.5,99.5 C 392.5,100.167 392.5,100.833 392.5,101.5C 394.065,105.527 395.398,109.527 396.5,113.5C 396.5,113.833 396.5,114.167 396.5,114.5C 398.295,123.041 398.961,131.708 398.5,140.5C 398.5,141.833 398.5,143.167 398.5,144.5C 397.539,146.265 397.205,148.265 397.5,150.5C 396.596,151.209 396.263,152.209 396.5,153.5C 395.059,157.714 393.059,161.714 390.5,165.5C 379.733,173.598 370.733,183.264 363.5,194.5C 364.423,207.47 364.756,220.47 364.5,233.5C 364.167,236.833 363.833,240.167 363.5,243.5C 362.503,243.47 361.836,243.97 361.5,245C 359.807,251.682 356.807,257.682 352.5,263C 355.556,266.952 358.223,271.119 360.5,275.5C 363.86,283.466 365.193,291.799 364.5,300.5C 361.613,309.783 355.279,313.116 345.5,310.5C 340.553,308.552 336.886,305.219 334.5,300.5C 334.5,299.833 334.5,299.167 334.5,298.5C 334.375,292.797 334.708,287.13 335.5,281.5C 336.434,279.761 336.434,278.095 335.5,276.5C 330.341,278.912 325.341,281.579 320.5,284.5C 325.65,293.106 327.65,302.439 326.5,312.5C 324.487,321.362 318.82,325.029 309.5,323.5C 305.03,322.351 301.363,320.018 298.5,316.5C 297.662,316.158 297.328,315.492 297.5,314.5C 296.728,310.548 296.395,306.548 296.5,302.5C 296.927,299.624 297.594,296.791 298.5,294C 298.167,293.5 297.833,293 297.5,292.5C 294.718,293.516 292.051,294.516 289.5,295.5C 288.167,295.5 286.833,295.5 285.5,295.5C 285.229,297.38 285.896,298.713 287.5,299.5C 287.5,300.833 287.5,302.167 287.5,303.5C 288.675,307.042 289.341,310.709 289.5,314.5C 289.5,315.833 289.5,317.167 289.5,318.5C 288.539,330.168 282.206,334.834 270.5,332.5C 268.544,331.508 266.544,330.508 264.5,329.5C 262.738,328.738 261.738,327.404 261.5,325.5C 261.011,324.005 260.345,322.671 259.5,321.5C 259.36,315.464 259.693,309.464 260.5,303.5C 260.539,302.417 260.873,301.417 261.5,300.5C 254.167,299.167 246.833,299.167 239.5,300.5C 244.32,307.797 246.153,315.797 245,324.5C 240.546,331.652 234.046,335.652 225.5,336.5C 222.833,334.5 220.5,332.167 218.5,329.5C 215.425,322.861 214.092,315.861 214.5,308.5C 214.5,307.833 214.5,307.167 214.5,306.5C 215.301,304.958 215.634,303.292 215.5,301.5C 215.5,301.167 215.5,300.833 215.5,300.5C 216.404,299.791 216.737,298.791 216.5,297.5C 211.13,297.608 205.797,297.275 200.5,296.5C 203.529,303.277 204.029,310.277 202,317.5C 196.271,326.197 188.605,328.531 179,324.5C 176.794,320.738 174.627,317.071 172.5,313.5C 172.5,312.167 172.5,310.833 172.5,309.5C 172.5,309.167 172.5,308.833 172.5,308.5C 172.5,307.833 172.5,307.167 172.5,306.5C 172.228,302.098 172.561,297.765 173.5,293.5C 171.029,291.929 168.363,290.929 165.5,290.5C 170.248,308.22 163.581,317.054 145.5,317C 141.877,313.551 138.877,309.717 136.5,305.5C 136.295,297.133 136.629,288.8 137.5,280.5C 138.1,277.702 139.1,275.035 140.5,272.5C 130.269,260.038 123.269,246.038 119.5,230.5C 118.042,217.553 117.208,204.553 117,191.5C 101.249,184.083 89.916,172.417 83,156.5C 82.2274,148.118 82.3941,139.785 83.5,131.5C 83.5,131.167 83.5,130.833 83.5,130.5C 84.404,129.791 84.7373,128.791 84.5,127.5C 87.5225,118.454 91.8558,110.121 97.5,102.5C 100.901,99.0917 104.568,96.0917 108.5,93.5C 114.87,90.7509 121.203,90.9176 127.5,94C 132.727,99.6384 138.061,105.138 143.5,110.5C 144.562,108.978 145.229,107.312 145.5,105.5C 146.5,105.167 147.167,104.5 147.5,103.5C 147.5,102.833 147.833,102.5 148.5,102.5C 150.379,101.659 152.379,101.325 154.5,101.5C 154.833,101.5 155.167,101.5 155.5,101.5C 158.495,103.098 161.329,105.098 164,107.5C 164.822,104.883 165.322,102.216 165.5,99.5C 166.58,97.0038 167.914,94.6705 169.5,92.5C 169.5,91.8333 169.833,91.5 170.5,91.5C 173.054,90.612 175.721,90.2786 178.5,90.5C 181.414,91.9061 183.914,93.9061 186,96.5C 188.448,89.3526 193.282,86.5193 200.5,88C 203.167,89.8617 205.5,92.0284 207.5,94.5C 207.369,95.2389 207.536,95.9056 208,96.5C 210.537,93.628 213.37,91.128 216.5,89C 225.338,87.6689 229.671,91.5022 229.5,100.5C 232.167,100.5 234.833,100.5 237.5,100.5C 241.97,101.486 246.637,101.819 251.5,101.5C 251.833,101.5 252.167,101.5 252.5,101.5C 258.301,102.682 264.301,103.348 270.5,103.5C 270.833,103.5 271.167,103.5 271.5,103.5C 278.949,105.134 286.615,106.134 294.5,106.5C 298.519,106.646 302.519,106.979 306.5,107.5C 309.084,109.472 312.084,110.472 315.5,110.5C 317.292,111.309 319.292,111.809 321.5,112C 322.126,112.75 322.626,113.584 323,114.5C 323.671,113.748 324.504,113.414 325.5,113.5C 326.209,114.404 327.209,114.737 328.5,114.5C 332.566,116.369 336.566,118.536 340.5,121C 344.016,120.851 346.516,119.017 348,115.5C 351.517,106.6 355.351,97.9331 359.5,89.5C 367.827,84.0964 376.16,84.263 384.5,90C 387.084,93.4019 389.75,96.5685 392.5,99.5 Z"/></g>
<g><path style="opacity:1" fill="#e55615" d="M 184.5,280.5 C 191.149,289.301 195.815,299.135 198.5,310C 196.873,318.297 191.873,321.963 183.5,321C 179.346,315.387 177.679,309.054 178.5,302C 177.977,294.076 179.977,286.91 184.5,280.5 Z"/></g>
<g><path style="opacity:1" fill="#dededd" d="M 334.5,281.5 C 334.833,281.5 335.167,281.5 335.5,281.5C 334.708,287.13 334.375,292.797 334.5,298.5C 333.833,294.833 333.167,291.167 332.5,287.5C 332.5,285.833 332.5,284.167 332.5,282.5C 333.967,285.258 334.633,284.925 334.5,281.5 Z"/></g>
<g><path style="opacity:1" fill="#e75715" d="M 345.5,265.5 C 347.371,265.859 348.871,266.859 350,268.5C 357.166,278.007 359.833,288.673 358,300.5C 357.727,302.329 356.893,303.829 355.5,305C 347.964,307.148 342.798,304.648 340,297.5C 339.404,292.12 339.738,286.787 341,281.5C 342.609,276.177 344.109,270.844 345.5,265.5 Z"/></g>
<g><path style="opacity:1" fill="#f8b52e" d="M 347.5,280.5 C 352.106,281.637 354.94,284.637 356,289.5C 356.931,293.412 356.097,296.912 353.5,300C 350.044,301.123 347.21,300.29 345,297.5C 344.333,293.167 344.333,288.833 345,284.5C 345.662,283.016 346.496,281.683 347.5,280.5 Z"/></g>
<g><path style="opacity:1" fill="#e55616" d="M 307.5,278.5 C 310.056,279.543 312.223,281.21 314,283.5C 319.793,292.003 322.126,301.337 321,311.5C 319.761,318.072 315.927,320.238 309.5,318C 305.23,316.73 302.73,313.896 302,309.5C 301.504,304.792 301.838,300.125 303,295.5C 304.406,289.787 305.906,284.12 307.5,278.5 Z"/></g>
<g><path style="opacity:1" fill="#00ff00" d="M 334.5,281.5 C 334.633,284.925 333.967,285.258 332.5,282.5C 332.409,280.302 333.075,279.969 334.5,281.5 Z"/></g>
<g><path style="opacity:1" fill="#e75615" d="M 147.5,271.5 C 152.312,277.104 156.146,283.437 159,290.5C 161.766,295.711 162.099,301.044 160,306.5C 150.342,314.849 144.342,312.849 142,300.5C 140.081,290.022 141.914,280.355 147.5,271.5 Z"/></g>
<g><path style="opacity:1" fill="#906035" d="M 167.5,168.5 C 177.124,174.56 176.79,180.06 166.5,185C 162.113,185.706 157.78,185.54 153.5,184.5C 154.812,182.521 156.479,180.855 158.5,179.5C 161.703,182.122 164.87,182.122 168,179.5C 167.89,175.871 167.724,172.204 167.5,168.5 Z"/></g>
<g><path style="opacity:1" fill="#bb955c" d="M 185.5,182.5 C 185.441,184.722 184.275,185.722 182,185.5C 179.774,184.967 177.607,184.3 175.5,183.5C 178.298,178.78 177.964,174.28 174.5,170C 175.448,169.517 176.448,169.351 177.5,169.5C 177.876,175.253 180.542,179.586 185.5,182.5 Z"/></g>
<g><path style="opacity:1" fill="#c69e61" d="M 235.5,172.5 C 235.27,176.052 235.27,179.552 235.5,183C 232.272,184.909 229.105,184.742 226,182.5C 224.225,183.27 222.725,184.437 221.5,186C 220.207,186.49 218.873,186.657 217.5,186.5C 217.5,185.167 217.5,183.833 217.5,182.5C 214.966,182.741 213.3,181.741 212.5,179.5C 213.479,178.235 214.479,176.901 215.5,175.5C 219.384,174.559 223.051,173.059 226.5,171C 229.863,170.073 232.863,170.573 235.5,172.5 Z"/></g>
<g><path style="opacity:1" fill="#e62d30" d="M 350.5,171.5 C 352.442,175.026 353.609,179.026 354,183.5C 356.763,202.133 357.096,220.8 355,239.5C 353.217,245.067 350.883,250.401 348,255.5C 339.089,266.088 327.923,272.922 314.5,276C 312.289,272.725 309.289,271.392 305.5,272C 303.446,275.498 301.779,279.165 300.5,283C 294.586,285.145 288.586,286.978 282.5,288.5C 278.74,285.248 274.573,282.581 270,280.5C 269.167,280.833 268.333,281.167 267.5,281.5C 266.065,284.643 264.732,287.81 263.5,291C 253.833,291.667 244.167,291.667 234.5,291C 232.714,287.388 230.38,284.221 227.5,281.5C 224.34,283.828 221.673,286.661 219.5,290C 211.444,289.979 203.444,289.146 195.5,287.5C 193.187,281.844 189.687,277.177 185,273.5C 183.056,274.439 181.389,275.773 180,277.5C 178.569,280.04 176.902,282.373 175,284.5C 169.063,282.948 163.563,280.448 158.5,277C 155.833,272.667 153.167,268.333 150.5,264C 148.633,263.289 147.133,263.789 146,265.5C 133.887,251.842 127.22,235.842 126,217.5C 125.167,202.489 125.334,187.489 126.5,172.5C 134.992,183.755 145.992,191.589 159.5,196C 183.674,202.89 208.341,205.723 233.5,204.5C 257.304,204.972 280.971,203.472 304.5,200C 322.376,195.651 337.543,186.818 350,173.5C 350.464,172.906 350.631,172.239 350.5,171.5 Z"/></g>
<g><path style="opacity:1" fill="#c2e6b4" d="M 290.5,192.5 C 292.099,192.232 293.432,192.566 294.5,193.5C 291.221,194.492 287.888,194.659 284.5,194C 286.345,192.872 288.345,192.372 290.5,192.5 Z"/></g>
<g><path style="opacity:1" fill="#dadada" d="M 290.5,192.5 C 292.265,191.539 294.265,191.205 296.5,191.5C 296.842,192.338 297.508,192.672 298.5,192.5C 297.432,193.434 296.099,193.768 294.5,193.5C 293.432,192.566 292.099,192.232 290.5,192.5 Z"/></g>
<g><path style="opacity:1" fill="#906034" d="M 213.5,189.5 C 220.915,190.769 220.581,192.602 212.5,195C 207.316,195.816 202.316,195.65 197.5,194.5C 200.624,194.057 202.957,192.39 204.5,189.5C 206.109,190.888 207.942,191.888 210,192.5C 211.95,192.293 213.116,191.293 213.5,189.5 Z"/></g>
<g><path style="opacity:1" fill="#8ca6b3" d="M 179.5,192.5 C 182.178,191.091 184.844,191.257 187.5,193C 184.739,193.722 182.073,193.555 179.5,192.5 Z"/></g>
<g><path style="opacity:1" fill="#b58b55" d="M 235.5,189.5 C 236.833,189.5 238.167,189.5 239.5,189.5C 239.595,192.272 240.929,194.272 243.5,195.5C 235.521,196.665 227.521,196.832 219.5,196C 220.833,194.333 222.167,192.667 223.5,191C 227.688,190.824 231.688,190.324 235.5,189.5 Z"/></g>
<g><path style="opacity:1" fill="#cbe4c0" d="M 269.5,189.5 C 271.729,190.055 273.395,191.389 274.5,193.5C 273.619,194.971 272.286,195.804 270.5,196C 264.5,196.667 258.5,196.667 252.5,196C 250.221,195.527 248.221,194.527 246.5,193C 253.458,191.936 260.458,191.269 267.5,191C 268.416,190.722 269.082,190.222 269.5,189.5 Z"/></g>
<g><path style="opacity:1" fill="#baf2a8" d="M 298.5,192.5 C 297.508,192.672 296.842,192.338 296.5,191.5C 300.879,190.428 305.212,189.261 309.5,188C 310.833,188.667 310.833,189.333 309.5,190C 305.779,190.681 302.113,191.514 298.5,192.5 Z"/></g>
<g><path style="opacity:1" fill="#956437" d="M 185.5,182.5 C 193.048,183.054 193.048,184.887 185.5,188C 179.833,188.667 174.167,188.667 168.5,188C 170.862,186.489 173.195,184.989 175.5,183.5C 177.607,184.3 179.774,184.967 182,185.5C 184.275,185.722 185.441,184.722 185.5,182.5 Z"/></g>
<g><path style="opacity:1" fill="#926135" d="M 235.5,172.5 C 237.527,176.8 238.193,181.3 237.5,186C 230.247,187.557 222.914,187.89 215.5,187C 213.649,185.316 211.982,183.483 210.5,181.5C 210.855,180.478 211.522,179.811 212.5,179.5C 213.3,181.741 214.966,182.741 217.5,182.5C 217.5,183.833 217.5,185.167 217.5,186.5C 218.873,186.657 220.207,186.49 221.5,186C 222.725,184.437 224.225,183.27 226,182.5C 229.105,184.742 232.272,184.909 235.5,183C 235.27,179.552 235.27,176.052 235.5,172.5 Z"/></g>
<g><path style="opacity:1" fill="#c0965c" d="M 213.5,189.5 C 213.116,191.293 211.95,192.293 210,192.5C 207.942,191.888 206.109,190.888 204.5,189.5C 202.957,192.39 200.624,194.057 197.5,194.5C 194.033,194.554 191.366,193.054 189.5,190C 191.692,188.641 193.359,186.808 194.5,184.5C 198.325,183.735 202.158,183.068 206,182.5C 208.305,184.97 210.805,187.303 213.5,189.5 Z"/></g>
<g><path style="opacity:1" fill="#85817f" d="M 323.5,179.5 C 323.5,179.833 323.5,180.167 323.5,180.5C 321.396,180.201 319.396,180.534 317.5,181.5C 318.85,182.95 320.516,183.617 322.5,183.5C 323.167,183.5 323.833,183.5 324.5,183.5C 322.372,184.629 320.039,184.796 317.5,184C 316.62,182.644 316.286,181.144 316.5,179.5C 318.833,179.5 321.167,179.5 323.5,179.5 Z"/></g>
<g><path style="opacity:1" fill="#e2e6e0" d="M 324.5,183.5 C 323.833,183.5 323.167,183.5 322.5,183.5C 323.091,182.849 323.757,182.182 324.5,181.5C 324.376,180.893 324.043,180.56 323.5,180.5C 323.5,180.167 323.5,179.833 323.5,179.5C 325.17,179.249 326.67,178.582 328,177.5C 328.833,178.333 329.667,179.167 330.5,180C 328.636,181.431 326.636,182.597 324.5,183.5 Z"/></g>
<g><path style="opacity:1" fill="#b7faa2" d="M 323.5,180.5 C 324.043,180.56 324.376,180.893 324.5,181.5C 323.757,182.182 323.091,182.849 322.5,183.5C 320.516,183.617 318.85,182.95 317.5,181.5C 319.396,180.534 321.396,180.201 323.5,180.5 Z"/></g>
<g><path style="opacity:1" fill="#cbd7c5" d="M 265.5,178.5 C 267.693,177.203 270.027,177.203 272.5,178.5C 272.833,179.167 273.167,179.833 273.5,180.5C 270.216,181.657 266.882,181.824 263.5,181C 262.692,180.692 262.025,180.192 261.5,179.5C 262.689,178.571 264.022,178.238 265.5,178.5 Z"/></g>
<g><path style="opacity:1" fill="#00ff00" d="M 265.5,178.5 C 267.337,178.639 267.67,179.306 266.5,180.5C 265.702,180.043 265.369,179.376 265.5,178.5 Z"/></g>
<g><path style="opacity:1" fill="#d8e6d2" d="M 305.5,168.5 C 308.315,169.324 310.482,170.991 312,173.5C 313.327,178.12 313.993,182.787 314,187.5C 312.667,186.167 311.333,184.833 310,183.5C 309.4,178.203 307.9,173.203 305.5,168.5 Z"/></g>
<g><path style="opacity:1" fill="#8f6034" d="M 188.5,161.5 C 189.167,161.5 189.833,161.5 190.5,161.5C 189.206,163.296 188.206,165.296 187.5,167.5C 180.709,170.911 181.043,173.245 188.5,174.5C 188.366,176.292 188.699,177.958 189.5,179.5C 182.978,178.126 180.145,174.126 181,167.5C 182.371,165.959 183.871,164.625 185.5,163.5C 186.71,163.068 187.71,162.401 188.5,161.5 Z"/></g>
<g><path style="opacity:1" fill="#976536" d="M 151.5,166.5 C 150.406,168.359 149.573,170.359 149,172.5C 142.763,176.104 143.096,178.771 150,180.5C 150.49,181.793 150.657,183.127 150.5,184.5C 144.22,182.951 141.72,178.951 143,172.5C 145.177,169.477 148.011,167.477 151.5,166.5 Z"/></g>
<g><path style="opacity:1" fill="#992e2e" d="M 117.5,182.5 C 117.821,176.974 117.488,171.64 116.5,166.5C 116.783,165.711 117.283,165.044 118,164.5C 118.819,170.681 118.653,176.681 117.5,182.5 Z"/></g>
<g><path style="opacity:1" fill="#e22d30" d="M 358.5,159.5 C 361.206,165.046 365.206,169.546 370.5,173C 367.667,175.833 364.833,178.667 362,181.5C 360.506,174.21 359.34,166.877 358.5,159.5 Z"/></g>
<g><path style="opacity:1" fill="#e6f1e2" d="M 243.5,168.5 C 246.247,168.187 248.914,168.52 251.5,169.5C 251.907,172.929 252.907,176.095 254.5,179C 258.773,182.802 263.773,184.969 269.5,185.5C 267.78,186.934 265.78,187.767 263.5,188C 256.488,188.434 249.488,188.934 242.5,189.5C 241.613,183.665 240.613,177.832 239.5,172C 240.347,170.229 241.68,169.063 243.5,168.5 Z"/></g>
<g><path style="opacity:1" fill="#946234" d="M 206.5,163.5 C 214.483,168.825 214.483,173.992 206.5,179C 201.511,179.499 196.511,179.666 191.5,179.5C 193.456,177.886 195.456,176.219 197.5,174.5C 200.703,177.122 203.87,177.122 207,174.5C 207.429,172.331 206.929,170.331 205.5,168.5C 206.309,166.929 206.643,165.262 206.5,163.5 Z"/></g>
<g><path style="opacity:1" fill="#c2995e" d="M 167.5,168.5 C 167.724,172.204 167.89,175.871 168,179.5C 164.87,182.122 161.703,182.122 158.5,179.5C 156.479,180.855 154.812,182.521 153.5,184.5C 152.5,184.5 151.5,184.5 150.5,184.5C 150.657,183.127 150.49,181.793 150,180.5C 143.096,178.771 142.763,176.104 149,172.5C 149.573,170.359 150.406,168.359 151.5,166.5C 157.132,164.796 162.465,165.463 167.5,168.5 Z"/></g>
<g><path style="opacity:1" fill="#e32d30" d="M 116.5,166.5 C 117.488,171.64 117.821,176.974 117.5,182.5C 111.993,180.323 107.326,176.99 103.5,172.5C 108.239,171.296 112.573,169.296 116.5,166.5 Z"/></g>
<g><path style="opacity:1" fill="#eaf2e6" d="M 292.5,165.5 C 295.119,165.232 297.619,165.565 300,166.5C 301.623,170.71 303.623,174.71 306,178.5C 307.271,182.166 306.104,184.666 302.5,186C 294.882,187.819 287.216,189.319 279.5,190.5C 278.28,184.886 276.614,179.386 274.5,174C 275.333,172.5 276.5,171.333 278,170.5C 283.108,169.299 287.941,167.632 292.5,165.5 Z"/></g>
<g><path style="opacity:1" fill="#a84509" d="M 330.5,158.5 C 331.552,158.649 332.552,158.483 333.5,158C 331.138,156.269 328.471,155.435 325.5,155.5C 316.706,155.091 308.04,155.924 299.5,158C 297.978,160.305 295.978,161.805 293.5,162.5C 292.937,160.09 292.437,157.757 292,155.5C 294.564,153.273 297.397,151.439 300.5,150C 305.29,150.956 310.124,152.122 315,153.5C 318.62,152.197 322.287,150.864 326,149.5C 337.102,150.605 342.602,156.772 342.5,168C 341.407,172.428 339.574,172.595 337,168.5C 336.565,163.945 334.398,160.611 330.5,158.5 Z"/></g>
<g><path style="opacity:1" fill="#d4eeca" d="M 327.5,160.5 C 329.489,161.988 331.322,163.655 333,165.5C 333.667,169.833 333.667,174.167 333,178.5C 332.333,177.833 331.667,177.167 331,176.5C 330.954,170.886 329.787,165.553 327.5,160.5 Z"/></g>
<g><path style="opacity:1" fill="#c69e61" d="M 190.5,161.5 C 195.328,163.151 200.328,163.817 205.5,163.5C 205.833,163.5 206.167,163.5 206.5,163.5C 206.643,165.262 206.309,166.929 205.5,168.5C 206.929,170.331 207.429,172.331 207,174.5C 203.87,177.122 200.703,177.122 197.5,174.5C 195.456,176.219 193.456,177.886 191.5,179.5C 190.833,179.5 190.167,179.5 189.5,179.5C 188.699,177.958 188.366,176.292 188.5,174.5C 181.043,173.245 180.709,170.911 187.5,167.5C 188.206,165.296 189.206,163.296 190.5,161.5 Z"/></g>
<g><path style="opacity:1" fill="#e0d0a5" d="M 133.5,156.5 C 134.705,155.314 136.039,155.314 137.5,156.5C 139.295,160.729 140.462,165.063 141,169.5C 138.473,165.104 135.973,160.771 133.5,156.5 Z"/></g>
<g><path style="opacity:1" fill="#e6d5a9" d="M 167.5,139.5 C 168.931,139.881 169.764,140.881 170,142.5C 171.439,149.86 172.939,157.194 174.5,164.5C 173.833,165.833 173.167,165.833 172.5,164.5C 171.933,162.018 171.266,159.684 170.5,157.5C 169.909,151.406 168.909,145.406 167.5,139.5 Z"/></g>
<g><path style="opacity:1" fill="#ebd9ab" d="M 129.5,154.5 C 131.144,154.81 132.144,155.81 132.5,157.5C 134.128,162.09 136.295,166.423 139,170.5C 139.749,171.635 139.583,172.635 138.5,173.5C 133.195,168.213 130.195,161.88 129.5,154.5 Z"/></g>
<g><path style="opacity:1" fill="#ecd6c9" d="M 246.5,160.5 C 247.167,160.5 247.833,160.5 248.5,160.5C 245.552,162.755 242.219,164.422 238.5,165.5C 237.833,165.5 237.5,165.167 237.5,164.5C 240.5,163.167 243.5,161.833 246.5,160.5 Z"/></g>
<g><path style="opacity:1" fill="#ab480e" d="M 248.5,160.5 C 250.176,161.183 250.843,162.517 250.5,164.5C 246.978,165.004 243.478,165.671 240,166.5C 239.235,166.43 238.735,166.097 238.5,165.5C 242.219,164.422 245.552,162.755 248.5,160.5 Z"/></g>
<g><path style="opacity:1" fill="#8e6137" d="M 190.5,161.5 C 193.976,160.357 197.642,160.19 201.5,161C 203.066,161.608 204.4,162.442 205.5,163.5C 200.328,163.817 195.328,163.151 190.5,161.5 Z"/></g>
<g><path style="opacity:1" fill="#e2d0a6" d="M 148.5,157.5 C 148.802,160.059 148.468,162.393 147.5,164.5C 146.788,162.072 145.788,159.739 144.5,157.5C 145.865,154.875 147.198,154.875 148.5,157.5 Z"/></g>
<g><path style="opacity:1" fill="#d8dcd5" d="M 284.5,156.5 C 287.971,157.633 289.971,159.967 290.5,163.5C 288.799,163.966 287.299,163.966 286,163.5C 285.56,161.134 285.06,158.801 284.5,156.5 Z"/></g>
<g><path style="opacity:1" fill="#a6450c" d="M 246.5,160.5 C 243.5,161.833 240.5,163.167 237.5,164.5C 236.539,162.735 236.205,160.735 236.5,158.5C 240.122,158.322 243.456,158.989 246.5,160.5 Z"/></g>
<g><path style="opacity:1" fill="#d3c39c" d="M 158.5,154.5 C 160.555,156.234 161.888,158.567 162.5,161.5C 161.675,162.386 160.675,162.719 159.5,162.5C 159.167,159.833 158.833,157.167 158.5,154.5 Z"/></g>
<g><path style="opacity:1" fill="#e4eddf" d="M 314.5,157.5 C 318.007,156.994 321.174,157.66 324,159.5C 325.473,163.417 326.639,167.417 327.5,171.5C 327.43,172.772 327.097,173.938 326.5,175C 323.392,176.759 320.059,177.592 316.5,177.5C 316.174,174.689 315.341,172.022 314,169.5C 309.582,166.707 305.082,164.041 300.5,161.5C 305.141,159.892 309.808,158.558 314.5,157.5 Z"/></g>
<g><path style="opacity:1" fill="#e4d4a7" d="M 138.5,154.5 C 141.772,156.998 144.106,160.331 145.5,164.5C 145.137,165.183 144.804,165.85 144.5,166.5C 141.946,162.877 139.946,158.877 138.5,154.5 Z"/></g>
<g><path style="opacity:1" fill="#eadbd2" d="M 325.5,155.5 C 328.471,155.435 331.138,156.269 333.5,158C 332.552,158.483 331.552,158.649 330.5,158.5C 328.632,157.737 326.965,156.737 325.5,155.5 Z"/></g>
<g><path style="opacity:1" fill="#c6ce0f" d="M 227.5,154.5 C 229.044,154.297 230.378,153.63 231.5,152.5C 232.887,156.171 233.22,159.838 232.5,163.5C 232.529,165.029 233.196,166.196 234.5,167C 228.563,167.118 222.897,168.284 217.5,170.5C 217.5,168.5 217.5,166.5 217.5,164.5C 215.052,165.99 213.385,165.323 212.5,162.5C 212.421,161.07 212.754,159.736 213.5,158.5C 212.5,157.167 211.5,155.833 210.5,154.5C 213.225,150.993 216.558,150.493 220.5,153C 221.167,154 221.833,155 222.5,156C 220.392,156.36 218.392,157.027 216.5,158C 215.304,158.654 215.304,159.154 216.5,159.5C 219.373,158.225 222.373,157.392 225.5,157C 226.381,156.292 227.047,155.458 227.5,154.5 Z"/></g>
<g><path style="opacity:1" fill="#332b21" d="M 217.5,164.5 C 218.058,163.21 219.058,162.377 220.5,162C 223.167,161.333 225.833,161.333 228.5,162C 224.661,162.236 220.994,163.069 217.5,164.5 Z"/></g>
<g><path style="opacity:1" fill="#e8d6a9" d="M 151.5,147.5 C 152.376,147.369 153.043,147.702 153.5,148.5C 156.117,152.949 157.117,157.615 156.5,162.5C 155.575,161.643 154.908,160.643 154.5,159.5C 153.369,156.111 152.036,152.778 150.5,149.5C 150.863,148.817 151.196,148.15 151.5,147.5 Z"/></g>
<g><path style="opacity:1" fill="#eaf1e7" d="M 267.5,152.5 C 278.975,150.143 283.641,154.643 281.5,166C 278.624,166.438 275.957,167.438 273.5,169C 271.393,170.264 270.393,172.097 270.5,174.5C 265.5,174.5 260.5,174.5 255.5,174.5C 255.485,169.09 254.818,163.757 253.5,158.5C 253.833,157.5 254.167,156.5 254.5,155.5C 258.939,154.4 263.272,153.4 267.5,152.5 Z"/></g>
<g><path style="opacity:1" fill="#ac4607" d="M 340.5,150.5 C 339.089,148.461 337.089,147.461 334.5,147.5C 328.188,146.066 328.021,144.4 334,142.5C 347.362,144.633 351.362,151.966 346,164.5C 344.691,162.314 344.524,160.147 345.5,158C 343.699,155.557 342.032,153.057 340.5,150.5 Z"/></g>
<g><path style="opacity:1" fill="#9a8b72" d="M 169.5,161.5 C 169.5,162.167 169.167,162.5 168.5,162.5C 167.01,154.944 166.01,147.61 165.5,140.5C 167.602,147.342 168.935,154.342 169.5,161.5 Z"/></g>
<g><path style="opacity:1" fill="#3c312b" d="M 140.5,137.5 C 141.167,138.167 141.833,138.833 142.5,139.5C 143.558,140.6 144.392,141.934 145,143.5C 145.612,140.968 147.112,140.135 149.5,141C 148.362,142.734 147.862,144.568 148,146.5C 148.689,145.643 149.522,144.977 150.5,144.5C 150.964,145.636 151.298,146.636 151.5,147.5C 151.196,148.15 150.863,148.817 150.5,149.5C 152.036,152.778 153.369,156.111 154.5,159.5C 153.15,160.483 152.15,161.816 151.5,163.5C 151.013,160.529 150.013,158.529 148.5,157.5C 147.198,154.875 145.865,154.875 144.5,157.5C 145.788,159.739 146.788,162.072 147.5,164.5C 146.778,165.551 145.778,166.218 144.5,166.5C 144.804,165.85 145.137,165.183 145.5,164.5C 144.106,160.331 141.772,156.998 138.5,154.5C 137.054,153.387 135.387,153.22 133.5,154C 135.437,154.122 136.77,154.955 137.5,156.5C 136.039,155.314 134.705,155.314 133.5,156.5C 133.5,157.167 133.167,157.5 132.5,157.5C 132.144,155.81 131.144,154.81 129.5,154.5C 129.918,153.778 130.584,153.278 131.5,153C 128.094,152.397 127.761,151.231 130.5,149.5C 131.086,149.709 131.586,150.043 132,150.5C 132.606,147.614 134.106,145.448 136.5,144C 135.906,143.536 135.239,143.369 134.5,143.5C 135.687,142.466 136.52,141.133 137,139.5C 137.816,138.177 138.983,137.511 140.5,137.5 Z"/></g>
<g><path style="opacity:1" fill="#ab470b" d="M 257.5,143.5 C 258.873,143.343 260.207,143.51 261.5,144C 260.139,145.584 259.472,147.418 259.5,149.5C 258.127,149.343 256.793,149.51 255.5,150C 252.633,152.21 249.8,154.377 247,156.5C 242.74,155.786 238.906,154.119 235.5,151.5C 238.977,150.833 242.311,150.166 245.5,149.5C 249.541,147.498 253.541,145.498 257.5,143.5 Z"/></g>
<g><path style="opacity:1" fill="#86421c" d="M 263.5,146.5 C 285.644,147.766 285.811,149.1 264,150.5C 263.5,150.167 263,149.833 262.5,149.5C 263.127,148.583 263.461,147.583 263.5,146.5 Z"/></g>
<g><path style="opacity:1" fill="#ebd7aa" d="M 162.5,145.5 C 163.649,145.791 164.316,146.624 164.5,148C 164.957,153.293 165.957,158.46 167.5,163.5C 166.726,164.711 165.893,164.711 165,163.5C 163.056,157.835 161.222,152.168 159.5,146.5C 160.791,146.737 161.791,146.404 162.5,145.5 Z"/></g>
<g><path style="opacity:1" fill="#ab998e" d="M 334.5,147.5 C 337.089,147.461 339.089,148.461 340.5,150.5C 338.181,150.008 336.181,149.008 334.5,147.5 Z"/></g>
<g><path style="opacity:1" fill="#a84406" d="M 287.5,144.5 C 290.787,145.161 294.12,145.661 297.5,146C 293.669,148.019 290.336,150.519 287.5,153.5C 285.603,153.272 284.27,152.272 283.5,150.5C 284.467,148.21 285.8,146.21 287.5,144.5 Z"/></g>
<g><path style="opacity:1" fill="#2e251f" d="M 192.5,97.5 C 191.034,102.96 191.2,108.293 193,113.5C 193.232,112.263 193.732,111.263 194.5,110.5C 194.558,113.623 195.892,115.956 198.5,117.5C 199.442,117.392 200.275,117.059 201,116.5C 201.191,114.292 201.691,112.292 202.5,110.5C 202.241,112.989 203.241,114.656 205.5,115.5C 204.189,117.336 203.022,119.336 202,121.5C 201.333,122.5 201.333,123.5 202,124.5C 204.821,116.136 209.654,114.47 216.5,119.5C 216.5,120.5 216.5,121.5 216.5,122.5C 215.833,122.167 215.167,121.833 214.5,121.5C 213.872,118.045 211.872,116.878 208.5,118C 207.944,118.383 207.611,118.883 207.5,119.5C 206.833,119.5 206.5,119.833 206.5,120.5C 203.778,123.117 203.111,126.117 204.5,129.5C 204.232,131.099 204.566,132.432 205.5,133.5C 206.048,135.626 206.715,137.626 207.5,139.5C 206.402,140.397 206.402,141.23 207.5,142C 208.793,142.49 210.127,142.657 211.5,142.5C 211.5,142.833 211.5,143.167 211.5,143.5C 207.759,142.599 205.759,143.932 205.5,147.5C 207.833,147.5 210.167,147.5 212.5,147.5C 216.453,146.985 218.619,144.652 219,140.5C 219.665,133.805 219.498,127.138 218.5,120.5C 218.56,119.957 218.893,119.624 219.5,119.5C 220.182,120.243 220.849,120.909 221.5,121.5C 222.167,121.167 222.833,120.833 223.5,120.5C 223.435,120.938 223.601,121.272 224,121.5C 224.995,120.934 225.828,120.267 226.5,119.5C 226.833,119.5 227.167,119.5 227.5,119.5C 225.875,122.216 226.208,124.549 228.5,126.5C 226.5,126.5 224.5,126.5 222.5,126.5C 222.659,135.119 224.659,135.452 228.5,127.5C 228.498,129.831 229.331,131.831 231,133.5C 231.278,132.584 231.778,131.918 232.5,131.5C 232.833,132.167 233.167,132.833 233.5,133.5C 232.602,134.158 231.602,134.824 230.5,135.5C 231.602,136.176 232.602,136.842 233.5,137.5C 229.706,137.481 226.206,138.481 223,140.5C 221.757,143.246 220.757,145.912 220,148.5C 223.347,143.742 227.847,141.575 233.5,142C 229.873,142.564 226.707,144.064 224,146.5C 223.505,148.473 223.338,150.473 223.5,152.5C 224.671,153.345 226.005,154.011 227.5,154.5C 227.047,155.458 226.381,156.292 225.5,157C 222.373,157.392 219.373,158.225 216.5,159.5C 215.304,159.154 215.304,158.654 216.5,158C 218.392,157.027 220.392,156.36 222.5,156C 221.833,155 221.167,154 220.5,153C 216.558,150.493 213.225,150.993 210.5,154.5C 211.5,155.833 212.5,157.167 213.5,158.5C 212.754,159.736 212.421,161.07 212.5,162.5C 211.442,161.4 210.608,160.066 210,158.5C 209.692,159.308 209.192,159.975 208.5,160.5C 207.14,159.82 205.807,159.153 204.5,158.5C 205.979,156.31 207.312,153.976 208.5,151.5C 206.754,150.605 204.92,149.938 203,149.5C 199.569,150.811 196.069,151.811 192.5,152.5C 192.5,153.5 192.5,154.5 192.5,155.5C 191.71,156.609 191.21,157.942 191,159.5C 190.005,158.934 189.172,158.267 188.5,157.5C 187.167,158.833 187.167,160.167 188.5,161.5C 187.71,162.401 186.71,163.068 185.5,163.5C 184.659,161.621 184.325,159.621 184.5,157.5C 185.222,157.918 185.722,158.584 186,159.5C 186.032,153.842 185.699,148.175 185,142.5C 184.243,140.685 183.41,139.019 182.5,137.5C 181.15,136.176 181.317,135.176 183,134.5C 183.106,135.794 184.106,136.461 186,136.5C 187.07,136.472 187.903,136.139 188.5,135.5C 189.552,135.351 190.552,135.517 191.5,136C 191.88,138.326 192.88,140.159 194.5,141.5C 195.833,141.833 197.167,142.167 198.5,142.5C 196.703,143.73 194.703,144.396 192.5,144.5C 192.5,145.833 192.5,147.167 192.5,148.5C 202.538,148.109 205.871,143.109 202.5,133.5C 200.571,128.628 197.905,124.295 194.5,120.5C 192.797,115.813 189.463,113.98 184.5,115C 183.748,115.671 183.414,116.504 183.5,117.5C 182.094,117.973 181.427,118.973 181.5,120.5C 180.521,123.625 180.187,126.958 180.5,130.5C 180.5,131.833 180.5,133.167 180.5,134.5C 177.921,134.917 175.754,134.25 174,132.5C 173.5,133.667 172.667,134.5 171.5,135C 174.365,135.183 177.031,135.683 179.5,136.5C 178.235,137.514 177.569,139.014 177.5,141C 178.612,148.172 179.779,155.339 181,162.5C 181.383,161.944 181.883,161.611 182.5,161.5C 181.467,163.085 180.134,164.419 178.5,165.5C 177.739,166.391 176.739,167.058 175.5,167.5C 173.591,166.652 171.591,166.318 169.5,166.5C 169.567,165.041 169.234,163.708 168.5,162.5C 169.167,162.5 169.5,162.167 169.5,161.5C 170.434,160.432 170.768,159.099 170.5,157.5C 171.266,159.684 171.933,162.018 172.5,164.5C 173.167,165.833 173.833,165.833 174.5,164.5C 172.939,157.194 171.439,149.86 170,142.5C 169.764,140.881 168.931,139.881 167.5,139.5C 167.5,138.833 167.167,138.5 166.5,138.5C 166.5,137.5 166.5,136.5 166.5,135.5C 164.023,135.051 162.023,135.717 160.5,137.5C 161.243,138.182 161.909,138.849 162.5,139.5C 162.5,140.167 162.5,140.833 162.5,141.5C 160.716,141.893 159.05,142.559 157.5,143.5C 157.565,143.062 157.399,142.728 157,142.5C 156,145.167 155,145.167 154,142.5C 153.223,144.701 152.056,144.701 150.5,142.5C 151.167,141.833 151.833,141.167 152.5,140.5C 150.319,138.652 147.985,138.318 145.5,139.5C 144.478,139.145 143.811,138.478 143.5,137.5C 144.272,136.306 145.272,135.306 146.5,134.5C 148.912,134.244 150.579,135.244 151.5,137.5C 152.107,137.376 152.44,137.043 152.5,136.5C 154.935,135.87 155.602,134.537 154.5,132.5C 153.583,133.127 152.583,133.461 151.5,133.5C 150.424,130.129 149.424,126.796 148.5,123.5C 149.222,123.918 149.722,124.584 150,125.5C 149.69,120.893 149.524,116.227 149.5,111.5C 150.167,110.167 151.167,109.167 152.5,108.5C 154.527,108.338 156.527,108.505 158.5,109C 159.471,110.481 160.804,111.315 162.5,111.5C 163.812,112.145 164.812,113.145 165.5,114.5C 164.637,115.726 164.637,117.06 165.5,118.5C 165.5,119.167 165.5,119.833 165.5,120.5C 163.734,118.229 161.734,116.063 159.5,114C 155.969,111.459 153.636,112.125 152.5,116C 153.451,118.822 153.951,121.655 154,124.5C 151.844,120.738 151.177,116.738 152,112.5C 154.069,111.736 156.236,111.236 158.5,111C 155.863,108.926 153.363,109.093 151,111.5C 149.591,118.878 151.424,125.211 156.5,130.5C 156.833,130.333 157.167,130.167 157.5,130C 154.992,125.556 155.492,125.389 159,129.5C 159.383,128.944 159.883,128.611 160.5,128.5C 160.5,129.167 160.833,129.5 161.5,129.5C 160.571,130.315 159.571,131.148 158.5,132C 159.448,132.483 160.448,132.649 161.5,132.5C 164.691,131.489 168.191,131.489 172,132.5C 172.772,131.151 173.939,130.318 175.5,130C 174.376,129.751 173.376,129.251 172.5,128.5C 173.912,127.194 175.579,126.36 177.5,126C 176.207,125.51 174.873,125.343 173.5,125.5C 174.263,124.732 175.263,124.232 176.5,124C 172.274,121.383 170.274,117.55 170.5,112.5C 171.355,115.175 172.522,117.842 174,120.5C 174.837,122.007 176.004,122.507 177.5,122C 175.106,120.048 173.606,117.548 173,114.5C 172.192,110.062 172.359,106.396 173.5,103.5C 172.774,109.311 173.941,114.645 177,119.5C 179.042,116.06 181.542,113.06 184.5,110.5C 185.167,110.5 185.5,110.167 185.5,109.5C 186.774,110.189 186.774,111.023 185.5,112C 186.749,112.74 187.749,112.573 188.5,111.5C 190.275,107.614 191.108,103.28 191,98.5C 191.383,97.944 191.883,97.6107 192.5,97.5 Z"/></g>
<g><path style="opacity:1" fill="#e4d1a6" d="M 179.5,136.5 C 181.746,144.861 182.746,153.194 182.5,161.5C 181.883,161.611 181.383,161.944 181,162.5C 179.779,155.339 178.612,148.172 177.5,141C 177.569,139.014 178.235,137.514 179.5,136.5 Z"/></g>
<g><path style="opacity:1" fill="#e4d2a6" d="M 178.5,165.5 C 177.069,165.119 176.236,164.119 176,162.5C 175.073,155.696 173.573,149.029 171.5,142.5C 172.32,140.889 173.654,140.222 175.5,140.5C 177.151,148.754 178.151,157.087 178.5,165.5 Z"/></g>
<g><path style="opacity:1" fill="#719e31" d="M 204.5,158.5 C 203.078,158.291 201.745,157.791 200.5,157C 202.5,155.333 204.5,153.667 206.5,152C 203.199,152.824 200.199,154.49 197.5,157C 196.667,157.167 195.833,157.333 195,157.5C 193.624,157.316 192.791,156.649 192.5,155.5C 192.5,154.5 192.5,153.5 192.5,152.5C 196.069,151.811 199.569,150.811 203,149.5C 204.92,149.938 206.754,150.605 208.5,151.5C 207.312,153.976 205.979,156.31 204.5,158.5 Z"/></g>
<g><path style="opacity:1" fill="#c4b38f" d="M 182.5,137.5 C 183.41,139.019 184.243,140.685 185,142.5C 185.699,148.175 186.032,153.842 186,159.5C 185.722,158.584 185.222,157.918 184.5,157.5C 183.628,151.14 182.628,144.806 181.5,138.5C 181.624,137.893 181.957,137.56 182.5,137.5 Z"/></g>
<g><path style="opacity:1" fill="#e8d7ab" d="M 140.5,144.5 C 141.675,144.281 142.675,144.614 143.5,145.5C 142.215,147.659 140.548,148.326 138.5,147.5C 139.193,146.482 139.859,145.482 140.5,144.5 Z"/></g>
<g><path style="opacity:1" fill="#dfccb4" d="M 254.5,143.5 C 255.5,143.5 256.5,143.5 257.5,143.5C 253.541,145.498 249.541,147.498 245.5,149.5C 245.5,148.833 245.5,148.167 245.5,147.5C 248.456,145.851 251.456,144.517 254.5,143.5 Z"/></g>
<g><path style="opacity:1" fill="#a9470d" d="M 254.5,143.5 C 251.456,144.517 248.456,145.851 245.5,147.5C 244.763,145.695 243.763,144.029 242.5,142.5C 242.709,141.914 243.043,141.414 243.5,141C 247.022,141.875 250.688,142.708 254.5,143.5 Z"/></g>
<g><path style="opacity:1" fill="#95b61f" d="M 233.5,137.5 C 233.351,138.552 233.517,139.552 234,140.5C 236.46,141.958 238.627,143.791 240.5,146C 238.5,146.333 236.5,146.667 234.5,147C 231.048,149.393 227.381,151.226 223.5,152.5C 223.338,150.473 223.505,148.473 224,146.5C 226.707,144.064 229.873,142.564 233.5,142C 227.847,141.575 223.347,143.742 220,148.5C 220.757,145.912 221.757,143.246 223,140.5C 226.206,138.481 229.706,137.481 233.5,137.5 Z"/></g>
<g><path style="opacity:1" fill="#d3fac5" d="M 211.5,143.5 C 212.5,143.5 213.5,143.5 214.5,143.5C 214.473,145.199 213.806,146.533 212.5,147.5C 210.167,147.5 207.833,147.5 205.5,147.5C 205.759,143.932 207.759,142.599 211.5,143.5 Z"/></g>
<g><path style="opacity:1" fill="#d3c49d" d="M 162.5,141.5 C 163.043,141.56 163.376,141.893 163.5,142.5C 161.999,143.752 160.332,144.752 158.5,145.5C 157.702,145.043 157.369,144.376 157.5,143.5C 159.05,142.559 160.716,141.893 162.5,141.5 Z"/></g>
<g><path style="opacity:1" fill="#c9d0c4" d="M 216.5,117.5 C 217.167,118.5 217.833,119.5 218.5,120.5C 219.498,127.138 219.665,133.805 219,140.5C 218.619,144.652 216.453,146.985 212.5,147.5C 213.806,146.533 214.473,145.199 214.5,143.5C 213.5,143.5 212.5,143.5 211.5,143.5C 211.5,143.167 211.5,142.833 211.5,142.5C 212.791,142.737 213.791,142.404 214.5,141.5C 216.411,141.426 217.578,140.426 218,138.5C 218.841,132.909 218.341,127.576 216.5,122.5C 216.5,121.5 216.5,120.5 216.5,119.5C 216.5,118.833 216.5,118.167 216.5,117.5 Z"/></g>
<g><path style="opacity:1" fill="#f2e1b1" d="M 188.5,157.5 C 187.998,152.312 187.331,147.145 186.5,142C 187.009,140.831 187.842,139.998 189,139.5C 189.335,144.519 189.835,149.519 190.5,154.5C 190.36,156.03 189.693,157.03 188.5,157.5 Z"/></g>
<g><path style="opacity:1" fill="#d5eacc" d="M 202.5,133.5 C 205.871,143.109 202.538,148.109 192.5,148.5C 192.5,147.167 192.5,145.833 192.5,144.5C 194.703,144.396 196.703,143.73 198.5,142.5C 199.078,143.547 199.744,143.38 200.5,142C 199.944,141.617 199.611,141.117 199.5,140.5C 201.02,138.412 202.02,136.078 202.5,133.5 Z"/></g>
<g><path style="opacity:1" fill="#616728" d="M 199.5,140.5 C 199.611,141.117 199.944,141.617 200.5,142C 199.744,143.38 199.078,143.547 198.5,142.5C 197.167,142.167 195.833,141.833 194.5,141.5C 196.984,139.455 197.984,136.788 197.5,133.5C 198.222,133.082 198.722,132.416 199,131.5C 200.818,134.416 200.984,137.416 199.5,140.5 Z"/></g>
<g><path style="opacity:1" fill="#d1c19a" d="M 154.5,137.5 C 158.075,138.207 158.242,139.207 155,140.5C 153.317,139.824 153.15,138.824 154.5,137.5 Z"/></g>
<g><path style="opacity:1" fill="#f0deb0" d="M 142.5,139.5 C 141.895,141.026 140.729,142.026 139,142.5C 138.667,140.066 139.834,139.066 142.5,139.5 Z"/></g>
<g><path style="opacity:1" fill="#eadbcc" d="M 283.5,129.5 C 283.267,131.062 282.6,132.395 281.5,133.5C 279.983,133.511 278.816,134.177 278,135.5C 277,137.5 276,139.5 275,141.5C 274.333,140.167 274.333,138.833 275,137.5C 277.114,134.034 279.948,131.367 283.5,129.5 Z"/></g>
<g><path style="opacity:1" fill="#8ba729" d="M 228.5,134.5 C 229.773,135.077 229.773,135.743 228.5,136.5C 226.831,137.89 225.164,138.223 223.5,137.5C 225.36,136.675 227.026,135.675 228.5,134.5 Z"/></g>
<g><path style="opacity:1" fill="#dccea4" d="M 170.5,136.5 C 176.641,136.101 176.975,137.101 171.5,139.5C 170.614,138.675 170.281,137.675 170.5,136.5 Z"/></g>
<g><path style="opacity:1" fill="#cabb96" d="M 166.5,138.5 C 165.292,139.234 163.959,139.567 162.5,139.5C 161.909,138.849 161.243,138.182 160.5,137.5C 162.023,135.717 164.023,135.051 166.5,135.5C 166.5,136.5 166.5,137.5 166.5,138.5 Z"/></g>
<g><path style="opacity:1" fill="#dbcba2" d="M 152.5,136.5 C 151.89,135.609 151.557,134.609 151.5,133.5C 152.583,133.461 153.583,133.127 154.5,132.5C 155.602,134.537 154.935,135.87 152.5,136.5 Z"/></g>
<g><path style="opacity:1" fill="#6cb32e" d="M 240.5,130.5 C 242.5,130.5 244.5,130.5 246.5,130.5C 245.55,136.304 242.217,138.638 236.5,137.5C 236.816,134.433 238.149,132.1 240.5,130.5 Z"/></g>
<g><path style="opacity:1" fill="#ccbe98" d="M 161.5,129.5 C 163.985,130.26 163.985,131.26 161.5,132.5C 160.448,132.649 159.448,132.483 158.5,132C 159.571,131.148 160.571,130.315 161.5,129.5 Z"/></g>
<g><path style="opacity:1" fill="#99191b" d="M 146.5,134.5 C 145.272,135.306 144.272,136.306 143.5,137.5C 142.5,137.5 141.5,137.5 140.5,137.5C 138.983,137.511 137.816,138.177 137,139.5C 136.52,141.133 135.687,142.466 134.5,143.5C 133.761,143.631 133.094,143.464 132.5,143C 136.825,137.509 141.492,132.342 146.5,127.5C 147.711,129.422 149.044,131.255 150.5,133C 148.942,133.21 147.609,133.71 146.5,134.5 Z"/></g>
<g><path style="opacity:1" fill="#484324" d="M 207.5,119.5 C 210.188,119.166 212.521,119.832 214.5,121.5C 215.167,121.833 215.833,122.167 216.5,122.5C 218.341,127.576 218.841,132.909 218,138.5C 217.578,140.426 216.411,141.426 214.5,141.5C 213.791,142.404 212.791,142.737 211.5,142.5C 210.127,142.657 208.793,142.49 207.5,142C 206.402,141.23 206.402,140.397 207.5,139.5C 210.652,140.041 213.152,139.041 215,136.5C 216.409,130.684 215.242,125.517 211.5,121C 210.5,120.333 209.5,120.333 208.5,121C 206.074,124.801 205.074,128.968 205.5,133.5C 204.566,132.432 204.232,131.099 204.5,129.5C 204.756,126.402 205.422,123.402 206.5,120.5C 206.5,119.833 206.833,119.5 207.5,119.5 Z"/></g>
<g><path style="opacity:1" fill="#a4b21f" d="M 214.5,141.5 C 213.448,141.649 212.448,141.483 211.5,141C 213.286,140.215 214.786,139.049 216,137.5C 216.3,139.066 215.8,140.399 214.5,141.5 Z"/></g>
<g><path style="opacity:1" fill="#4b4432" d="M 186.5,117.5 C 187.5,117.5 188.5,117.5 189.5,117.5C 190.965,118.737 192.632,119.737 194.5,120.5C 197.905,124.295 200.571,128.628 202.5,133.5C 202.02,136.078 201.02,138.412 199.5,140.5C 200.984,137.416 200.818,134.416 199,131.5C 198.722,132.416 198.222,133.082 197.5,133.5C 196.09,127.423 192.423,123.756 186.5,122.5C 185.962,124.117 185.629,125.784 185.5,127.5C 186.791,127.263 187.791,127.596 188.5,128.5C 184.689,128.596 184.689,129.262 188.5,130.5C 186.088,131.949 184.088,131.616 182.5,129.5C 182.5,127.167 182.5,124.833 182.5,122.5C 182.427,120.973 183.094,119.973 184.5,119.5C 185.5,119.167 186.167,118.5 186.5,117.5 Z"/></g>
<g><path style="opacity:1" fill="#ab4608" d="M 284.5,115.5 C 279.698,117.127 275.532,119.794 272,123.5C 271.333,124.167 271.333,124.833 272,125.5C 274.177,122.477 277.011,120.477 280.5,119.5C 277.412,124.118 273.246,127.451 268,129.5C 265.676,132.48 264.176,135.813 263.5,139.5C 246.628,142.373 243.962,137.54 255.5,125C 258.101,124.08 260.768,123.413 263.5,123C 265.377,120.749 266.877,118.249 268,115.5C 273.838,108.83 280.338,107.997 287.5,113C 286.627,114.045 285.627,114.878 284.5,115.5 Z"/></g>
<g><path style="opacity:1" fill="#6cb22f" d="M 228.5,126.5 C 228.5,126.833 228.5,127.167 228.5,127.5C 224.659,135.452 222.659,135.119 222.5,126.5C 224.5,126.5 226.5,126.5 228.5,126.5 Z"/></g>
<g><path style="opacity:1" fill="#aa4507" d="M 327.5,126.5 C 331.967,126.133 336.3,126.633 340.5,128C 343.358,131.358 346.025,134.858 348.5,138.5C 347.833,138.833 347.167,139.167 346.5,139.5C 339.456,136.076 333.122,136.909 327.5,142C 324.5,142.333 321.5,142.667 318.5,143C 317.461,145.955 315.628,148.121 313,149.5C 308.205,148.459 303.872,146.459 300,143.5C 300.821,139.634 302.987,136.467 306.5,134C 307.873,133.125 309.373,132.625 311,132.5C 314.139,133.426 317.306,133.592 320.5,133C 322.729,130.6 325.063,128.433 327.5,126.5 Z"/></g>
<g><path style="opacity:1" fill="#f2e7df" d="M 329.5,134.5 C 346.728,134.35 346.728,135.183 329.5,137C 327.945,138.289 326.279,138.956 324.5,139C 326.063,137.264 327.73,135.764 329.5,134.5 Z"/></g>
<g><path style="opacity:1" fill="#ebd6c8" d="M 329.5,130.5 C 338.499,131.224 338.165,132.057 328.5,133C 323.655,136.422 318.322,138.755 312.5,140C 306.586,145.841 306.253,145.508 311.5,139C 318.084,137.212 324.084,134.378 329.5,130.5 Z"/></g>
<g><path style="opacity:1" fill="#acbb1f" d="M 206.5,120.5 C 205.422,123.402 204.756,126.402 204.5,129.5C 203.111,126.117 203.778,123.117 206.5,120.5 Z"/></g>
<g><path style="opacity:1" fill="#c1d311" d="M 186.5,122.5 C 192.423,123.756 196.09,127.423 197.5,133.5C 197.984,136.788 196.984,139.455 194.5,141.5C 192.88,140.159 191.88,138.326 191.5,136C 190.552,135.517 189.552,135.351 188.5,135.5C 187.624,135.631 186.957,135.298 186.5,134.5C 188.167,133.5 189.5,132.167 190.5,130.5C 190.145,129.478 189.478,128.811 188.5,128.5C 187.791,127.596 186.791,127.263 185.5,127.5C 185.629,125.784 185.962,124.117 186.5,122.5 Z"/></g>
<g><path style="opacity:1" fill="#e42d31" d="M 351.5,124.5 C 353.076,127.228 353.576,130.228 353,133.5C 349.367,130.832 348.867,127.832 351.5,124.5 Z"/></g>
<g><path style="opacity:1" fill="#c4c2c2" d="M 181.5,120.5 C 181.328,121.492 181.662,122.158 182.5,122.5C 182.5,124.833 182.5,127.167 182.5,129.5C 181.833,129.833 181.167,130.167 180.5,130.5C 180.187,126.958 180.521,123.625 181.5,120.5 Z"/></g>
<g><path style="opacity:1" fill="#ecdecf" d="M 275.5,114.5 C 276.873,114.343 278.207,114.51 279.5,115C 277.5,116 275.5,117 273.5,118C 269.667,123.167 265.167,127.667 260,131.5C 259.261,133.221 258.427,134.887 257.5,136.5C 256.432,134.813 256.599,133.146 258,131.5C 263.84,125.8 269.673,120.133 275.5,114.5 Z"/></g>
<g><path style="opacity:1" fill="#a4b221" d="M 186.5,122.5 C 184.87,124.026 184.037,126.026 184,128.5C 182.422,123.868 183.922,120.868 188.5,119.5C 189.737,119.556 190.737,120.056 191.5,121C 189.618,121.198 187.952,121.698 186.5,122.5 Z"/></g>
<g><path style="opacity:1" fill="#6db52d" d="M 233.5,133.5 C 233.167,132.833 232.833,132.167 232.5,131.5C 231.245,129.72 231.245,127.887 232.5,126C 229.295,124.312 228.961,122.312 231.5,120C 236.625,117.754 241.958,117.087 247.5,118C 250.24,119.05 251.74,120.883 252,123.5C 249.626,127.356 246.126,129.189 241.5,129C 238.671,130.356 236.004,131.856 233.5,133.5 Z"/></g>
<g><path style="opacity:1" fill="#312d23" d="M 242.5,123.5 C 243.552,123.351 244.552,123.517 245.5,124C 242.291,125.092 239.124,126.259 236,127.5C 235.312,126.668 235.479,126.002 236.5,125.5C 238.657,124.95 240.657,124.283 242.5,123.5 Z"/></g>
<g><path style="opacity:1" fill="#c1c6a5" d="M 300.5,120.5 C 299.7,122.741 298.034,123.741 295.5,123.5C 296.659,121.75 298.326,120.75 300.5,120.5 Z"/></g>
<g><path style="opacity:1" fill="#dbd3bb" d="M 290.5,123.5 C 288.167,125.5 285.833,127.5 283.5,129.5C 285.557,125.933 288.223,122.766 291.5,120C 293.044,118.813 294.711,118.48 296.5,119C 294.253,120.277 292.253,121.777 290.5,123.5 Z"/></g>
<g><path style="opacity:1" fill="#c1d405" d="M 207.5,139.5 C 206.715,137.626 206.048,135.626 205.5,133.5C 205.074,128.968 206.074,124.801 208.5,121C 209.5,120.333 210.5,120.333 211.5,121C 215.242,125.517 216.409,130.684 215,136.5C 213.152,139.041 210.652,140.041 207.5,139.5 Z"/></g>
<g><path style="opacity:1" fill="#6f7325" d="M 165.5,118.5 C 169.282,122.245 169.449,126.245 166,130.5C 164.599,128.808 162.766,128.141 160.5,128.5C 161.919,127.549 163.585,127.216 165.5,127.5C 165.5,125.167 165.5,122.833 165.5,120.5C 165.5,119.833 165.5,119.167 165.5,118.5 Z"/></g>
<g><path style="opacity:1" fill="#e9d8cd" d="M 284.5,115.5 C 283.473,117.194 282.139,118.527 280.5,119.5C 277.011,120.477 274.177,122.477 272,125.5C 271.333,124.833 271.333,124.167 272,123.5C 275.532,119.794 279.698,117.127 284.5,115.5 Z"/></g>
<g><path style="opacity:1" fill="#ab4508" d="M 309.5,129.5 C 313.213,125.528 317.88,123.362 323.5,123C 323.833,122.667 324.167,122.333 324.5,122C 319.873,121.573 315.54,122.573 311.5,125C 309.859,126.129 308.859,127.629 308.5,129.5C 303.096,132.067 298.763,135.901 295.5,141C 291.796,141.804 288.296,141.304 285,139.5C 285.202,129.612 290.369,125.112 300.5,126C 308.846,113.409 318.513,112.242 329.5,122.5C 322.279,123.682 315.612,126.016 309.5,129.5 Z"/></g>
<g><path style="opacity:1" fill="#f0e2d8" d="M 312.5,119.5 C 314.199,119.34 315.866,119.506 317.5,120C 311.329,121.585 306.329,124.918 302.5,130C 297.768,131.235 294.435,134.068 292.5,138.5C 292.403,136.166 293.403,134 295.5,132C 301.63,128.356 307.297,124.189 312.5,119.5 Z"/></g>
<g><path style="opacity:1" fill="#efddd1" d="M 309.5,129.5 C 309.167,129.5 308.833,129.5 308.5,129.5C 308.859,127.629 309.859,126.129 311.5,125C 315.54,122.573 319.873,121.573 324.5,122C 324.167,122.333 323.833,122.667 323.5,123C 317.88,123.362 313.213,125.528 309.5,129.5 Z"/></g>
<g><path style="opacity:1" fill="#ccd60c" d="M 253.5,116.5 C 256.807,116.063 259.807,116.73 262.5,118.5C 258.176,122.886 255.176,122.22 253.5,116.5 Z"/></g>
<g><path style="opacity:1" fill="#aebd17" d="M 214.5,121.5 C 212.521,119.832 210.188,119.166 207.5,119.5C 207.611,118.883 207.944,118.383 208.5,118C 211.872,116.878 213.872,118.045 214.5,121.5 Z"/></g>
<g><path style="opacity:1" fill="#9ffa88" d="M 183.5,117.5 C 183.833,118.167 184.167,118.833 184.5,119.5C 183.094,119.973 182.427,120.973 182.5,122.5C 181.662,122.158 181.328,121.492 181.5,120.5C 181.427,118.973 182.094,117.973 183.5,117.5 Z"/></g>
<g><path style="opacity:1" fill="#b6c1ae" d="M 149.5,106.5 C 148.904,108.398 148.904,110.065 149.5,111.5C 149.524,116.227 149.69,120.893 150,125.5C 149.722,124.584 149.222,123.918 148.5,123.5C 148.002,120.533 147.669,117.533 147.5,114.5C 147.287,111.473 147.953,108.807 149.5,106.5 Z"/></g>
<g><path style="opacity:1" fill="#97a220" d="M 173.5,100.5 C 175.415,100.216 177.081,100.549 178.5,101.5C 176.486,101.392 174.82,102.058 173.5,103.5C 172.359,106.396 172.192,110.062 173,114.5C 173.606,117.548 175.106,120.048 177.5,122C 176.004,122.507 174.837,122.007 174,120.5C 172.522,117.842 171.355,115.175 170.5,112.5C 170.336,109.813 170.503,107.146 171,104.5C 171.2,102.68 172.034,101.347 173.5,100.5 Z"/></g>
<g><path style="opacity:1" fill="#d92e30" d="M 133.5,112.5 C 136.289,115.066 139.289,117.4 142.5,119.5C 138.784,123.231 135.284,127.231 132,131.5C 132.165,125.167 132.665,118.834 133.5,112.5 Z"/></g>
<g><path style="opacity:1" fill="#def1d6" d="M 359.5,89.5 C 355.351,97.9331 351.517,106.6 348,115.5C 346.516,119.017 344.016,120.851 340.5,121C 336.566,118.536 332.566,116.369 328.5,114.5C 328.842,113.662 329.508,113.328 330.5,113.5C 331.458,113.047 332.292,112.381 333,111.5C 333.617,112.449 333.451,113.282 332.5,114C 335.93,115.441 339.097,117.274 342,119.5C 342.333,118.167 342.667,116.833 343,115.5C 343.333,116.167 343.667,116.833 344,117.5C 346.262,113.545 348.428,109.545 350.5,105.5C 350.167,104.833 349.833,104.167 349.5,103.5C 351.387,101.112 352.054,98.6122 351.5,96C 353.301,95.6827 353.634,95.016 352.5,94C 354,93.1667 355.167,92 356,90.5C 356.333,90.8333 356.667,91.1667 357,91.5C 357.708,90.6195 358.542,89.9528 359.5,89.5 Z"/></g>
<g><path style="opacity:1" fill="#ab4507" d="M 300.5,120.5 C 298.326,120.75 296.659,121.75 295.5,123.5C 293.833,123.5 292.167,123.5 290.5,123.5C 292.253,121.777 294.253,120.277 296.5,119C 294.711,118.48 293.044,118.813 291.5,120C 288.223,122.766 285.557,125.933 283.5,129.5C 279.948,131.367 277.114,134.034 275,137.5C 274.333,138.833 274.333,140.167 275,141.5C 276,139.5 277,137.5 278,135.5C 278.816,134.177 279.983,133.511 281.5,133.5C 281.039,135.55 280.372,137.55 279.5,139.5C 280.605,140.892 281.939,142.059 283.5,143C 283.167,143.333 282.833,143.667 282.5,144C 277.5,144.667 272.5,144.667 267.5,144C 266.346,134.341 270.679,129.007 280.5,128C 282.773,122.06 286.773,117.727 292.5,115C 296.61,113.857 300.276,114.523 303.5,117C 302.29,118.039 301.29,119.206 300.5,120.5 Z"/></g>
<g><path style="opacity:1" fill="#66a032" d="M 227.5,119.5 C 227.167,119.5 226.833,119.5 226.5,119.5C 227.301,117.958 227.634,116.292 227.5,114.5C 232.392,115.42 232.392,117.087 227.5,119.5 Z"/></g>
<g><path style="opacity:1" fill="#ced6c8" d="M 194.5,120.5 C 192.632,119.737 190.965,118.737 189.5,117.5C 188.739,116.609 187.739,115.942 186.5,115.5C 185.537,115.97 185.537,116.637 186.5,117.5C 186.167,118.5 185.5,119.167 184.5,119.5C 184.167,118.833 183.833,118.167 183.5,117.5C 183.414,116.504 183.748,115.671 184.5,115C 189.463,113.98 192.797,115.813 194.5,120.5 Z"/></g>
<g><path style="opacity:1" fill="#00ff00" d="M 189.5,117.5 C 188.5,117.5 187.5,117.5 186.5,117.5C 185.537,116.637 185.537,115.97 186.5,115.5C 187.739,115.942 188.739,116.609 189.5,117.5 Z"/></g>
<g><path style="opacity:1" fill="#bcccb2" d="M 168.5,103.5 C 168.833,103.5 169.167,103.5 169.5,103.5C 169.19,106.713 169.523,109.713 170.5,112.5C 170.274,117.55 172.274,121.383 176.5,124C 175.263,124.232 174.263,124.732 173.5,125.5C 169.102,118.91 167.435,111.577 168.5,103.5 Z"/></g>
<g><path style="opacity:1" fill="#bbcd0d" d="M 165.5,120.5 C 165.5,122.833 165.5,125.167 165.5,127.5C 163.585,127.216 161.919,127.549 160.5,128.5C 159.883,128.611 159.383,128.944 159,129.5C 155.492,125.389 154.992,125.556 157.5,130C 157.167,130.167 156.833,130.333 156.5,130.5C 151.424,125.211 149.591,118.878 151,111.5C 153.363,109.093 155.863,108.926 158.5,111C 156.236,111.236 154.069,111.736 152,112.5C 151.177,116.738 151.844,120.738 154,124.5C 153.951,121.655 153.451,118.822 152.5,116C 153.636,112.125 155.969,111.459 159.5,114C 161.734,116.063 163.734,118.229 165.5,120.5 Z"/></g>
<g><path style="opacity:1" fill="#caddc1" d="M 216.5,117.5 C 216.5,118.167 216.5,118.833 216.5,119.5C 209.654,114.47 204.821,116.136 202,124.5C 201.333,123.5 201.333,122.5 202,121.5C 203.022,119.336 204.189,117.336 205.5,115.5C 209.988,111.202 213.654,111.869 216.5,117.5 Z"/></g>
<g><path style="opacity:1" fill="#00ff00" d="M 209.5,113.5 C 212.137,115.154 211.803,115.654 208.5,115C 209.056,114.617 209.389,114.117 209.5,113.5 Z"/></g>
<g><path style="opacity:1" fill="#ecebeb" d="M 325.5,111.5 C 327.698,111.12 329.365,111.787 330.5,113.5C 329.508,113.328 328.842,113.662 328.5,114.5C 327.209,114.737 326.209,114.404 325.5,113.5C 326.239,113.631 326.906,113.464 327.5,113C 326.584,112.722 325.918,112.222 325.5,111.5 Z"/></g>
<g><path style="opacity:1" fill="#9f171a" d="M 229.5,108.5 C 241.911,109.046 254.244,110.213 266.5,112C 265.601,113.236 264.434,114.07 263,114.5C 259.979,113.148 256.812,112.481 253.5,112.5C 249.364,113.316 245.197,113.983 241,114.5C 236.947,114.268 233.114,113.268 229.5,111.5C 229.5,110.5 229.5,109.5 229.5,108.5 Z"/></g>
<g><path style="opacity:1" fill="#b4e7a3" d="M 315.5,108.5 C 315.918,109.222 316.584,109.722 317.5,110C 316.906,110.464 316.239,110.631 315.5,110.5C 312.084,110.472 309.084,109.472 306.5,107.5C 308.167,107.5 309.833,107.5 311.5,107.5C 313.124,107.64 314.29,106.973 315,105.5C 315.75,106.126 316.584,106.626 317.5,107C 316.584,107.278 315.918,107.778 315.5,108.5 Z"/></g>
<g><path style="opacity:1" fill="#bed9b1" d="M 325.5,111.5 C 325.918,112.222 326.584,112.722 327.5,113C 326.906,113.464 326.239,113.631 325.5,113.5C 324.504,113.414 323.671,113.748 323,114.5C 322.626,113.584 322.126,112.75 321.5,112C 319.292,111.809 317.292,111.309 315.5,110.5C 316.239,110.631 316.906,110.464 317.5,110C 316.584,109.722 315.918,109.222 315.5,108.5C 319.235,107.677 322.568,108.677 325.5,111.5 Z"/></g>
<g><path style="opacity:1" fill="#5b5a23" d="M 217.5,97.5 C 220.518,98.3534 222.351,100.353 223,103.5C 223.464,102.906 223.631,102.239 223.5,101.5C 223.833,101.5 224.167,101.5 224.5,101.5C 224.774,106.263 224.441,110.93 223.5,115.5C 222.21,116.058 221.377,117.058 221,118.5C 219.915,117.264 219.082,115.931 218.5,114.5C 219.825,115.953 220.658,115.619 221,113.5C 221.667,109.5 221.667,105.5 221,101.5C 220.261,100.426 219.261,99.7591 218,99.5C 216.285,100.604 214.785,101.938 213.5,103.5C 213.833,102.167 214.167,100.833 214.5,99.5C 214.973,98.0937 215.973,97.427 217.5,97.5 Z"/></g>
<g><path style="opacity:1" fill="#c4d0bc" d="M 155.5,105.5 C 158.427,106.757 160.761,108.757 162.5,111.5C 160.804,111.315 159.471,110.481 158.5,109C 156.527,108.505 154.527,108.338 152.5,108.5C 153.9,107.9 154.9,106.9 155.5,105.5 Z"/></g>
<g><path style="opacity:1" fill="#fcfdfc" d="M 311.5,107.5 C 309.833,107.5 308.167,107.5 306.5,107.5C 308.167,104.833 309.833,104.833 311.5,107.5 Z"/></g>
<g><path style="opacity:1" fill="#c0fdad" d="M 155.5,105.5 C 154.9,106.9 153.9,107.9 152.5,108.5C 151.167,109.167 150.167,110.167 149.5,111.5C 148.904,110.065 148.904,108.398 149.5,106.5C 151.379,105.659 153.379,105.325 155.5,105.5 Z"/></g>
<g><path style="opacity:1" fill="#888f22" d="M 199.5,95.5 C 201.109,96.8979 201.942,98.5646 202,100.5C 199.872,97.5422 197.206,96.8756 194,98.5C 193.308,99.4368 193.475,100.103 194.5,100.5C 194.5,103.833 194.5,107.167 194.5,110.5C 193.732,111.263 193.232,112.263 193,113.5C 191.2,108.293 191.034,102.96 192.5,97.5C 194.479,95.8325 196.812,95.1658 199.5,95.5 Z"/></g>
<g><path style="opacity:1" fill="#fdfffe" d="M 346.5,103.5 C 349.001,103.511 349.168,104.178 347,105.5C 346.536,104.906 346.369,104.239 346.5,103.5 Z"/></g>
<g><path style="opacity:1" fill="#fefefe" d="M 309.5,104.5 C 310.849,103.203 312.182,103.37 313.5,105C 312.181,105.195 310.847,105.028 309.5,104.5 Z"/></g>
<g><path style="opacity:1" fill="#5e5e26" d="M 178.5,101.5 C 179.167,101.5 179.833,101.5 180.5,101.5C 181.5,102.167 182.5,102.833 183.5,103.5C 184.167,105.5 184.833,107.5 185.5,109.5C 185.5,110.167 185.167,110.5 184.5,110.5C 182.761,107.365 180.761,104.365 178.5,101.5 Z"/></g>
<g><path style="opacity:1" fill="#bfd207" d="M 178.5,101.5 C 180.761,104.365 182.761,107.365 184.5,110.5C 181.542,113.06 179.042,116.06 177,119.5C 173.941,114.645 172.774,109.311 173.5,103.5C 174.82,102.058 176.486,101.392 178.5,101.5 Z"/></g>
<g><path style="opacity:1" fill="#d0e3c7" d="M 294.5,106.5 C 286.615,106.134 278.949,105.134 271.5,103.5C 281.457,102.297 291.123,102.797 300.5,105C 298.292,105.191 296.292,105.691 294.5,106.5 Z"/></g>
<g><path style="opacity:1" fill="#e0e0de" d="M 147.5,103.5 C 147.167,104.5 146.5,105.167 145.5,105.5C 144.5,103.167 145.167,102.5 147.5,103.5 Z"/></g>
<g><path style="opacity:1" fill="#c69e62" d="M 115.5,99.5 C 120.598,98.4295 123.764,100.429 125,105.5C 125.855,122.558 122.855,138.891 116,154.5C 110.164,164.569 102.498,166.569 93,160.5C 89.4336,148.393 89.767,136.393 94,124.5C 97.9557,113.161 105.122,104.828 115.5,99.5 Z"/></g>
<g><path style="opacity:1" fill="#bfd108" d="M 218.5,114.5 C 216.418,111.751 214.084,109.417 211.5,107.5C 212.674,106.486 213.34,105.153 213.5,103.5C 214.785,101.938 216.285,100.604 218,99.5C 219.261,99.7591 220.261,100.426 221,101.5C 221.667,105.5 221.667,109.5 221,113.5C 220.658,115.619 219.825,115.953 218.5,114.5 Z"/></g>
<g><path style="opacity:1" fill="#bad9ad" d="M 251.5,101.5 C 246.637,101.819 241.97,101.486 237.5,100.5C 236.833,99.8333 236.167,99.1667 235.5,98.5C 240.361,97.9753 245.361,98.1419 250.5,99C 251.252,99.6708 251.586,100.504 251.5,101.5 Z"/></g>
<g><path style="opacity:1" fill="#c2d504" d="M 202.5,110.5 C 201.691,112.292 201.191,114.292 201,116.5C 200.275,117.059 199.442,117.392 198.5,117.5C 195.892,115.956 194.558,113.623 194.5,110.5C 194.5,107.167 194.5,103.833 194.5,100.5C 194.866,99.3054 195.699,98.6387 197,98.5C 202.393,100.948 204.226,104.948 202.5,110.5 Z"/></g>
<g><path style="opacity:1" fill="#cdd9c6" d="M 173.5,94.5 C 174.946,93.3871 176.613,93.2204 178.5,94C 181.444,96.722 183.777,99.8887 185.5,103.5C 185.03,104.463 184.363,104.463 183.5,103.5C 181.951,98.6305 178.617,96.6305 173.5,97.5C 176.098,96.5278 176.098,95.5278 173.5,94.5 Z"/></g>
<g><path style="opacity:1" fill="#d4d3d2" d="M 170.5,97.5 C 170.842,98.3382 171.508,98.6716 172.5,98.5C 171.308,100.113 170.308,101.78 169.5,103.5C 169.167,103.5 168.833,103.5 168.5,103.5C 168.595,101.214 169.262,99.2143 170.5,97.5 Z"/></g>
<g><path style="opacity:1" fill="#302724" d="M 173.5,97.5 C 178.617,96.6305 181.951,98.6305 183.5,103.5C 182.5,102.833 181.5,102.167 180.5,101.5C 178.481,98.0709 176.148,97.7376 173.5,100.5C 172.034,101.347 171.2,102.68 171,104.5C 170.503,107.146 170.336,109.813 170.5,112.5C 169.523,109.713 169.19,106.713 169.5,103.5C 170.308,101.78 171.308,100.113 172.5,98.5C 172.5,97.8333 172.833,97.5 173.5,97.5 Z"/></g>
<g><path style="opacity:1" fill="#bccf10" d="M 180.5,101.5 C 179.833,101.5 179.167,101.5 178.5,101.5C 177.081,100.549 175.415,100.216 173.5,100.5C 176.148,97.7376 178.481,98.0709 180.5,101.5 Z"/></g>
<g><path style="opacity:1" fill="#d8f1ce" d="M 164.5,97.5 C 164.328,98.4916 164.662,99.1583 165.5,99.5C 165.322,102.216 164.822,104.883 164,107.5C 161.329,105.098 158.495,103.098 155.5,101.5C 157.044,101.297 158.378,100.63 159.5,99.5C 159.109,100.891 159.942,101.891 162,102.5C 162.099,100.347 162.933,98.6808 164.5,97.5 Z"/></g>
<g><path style="opacity:1" fill="#fefefe" d="M 153.5,97.5 C 156.001,97.5109 156.168,98.1776 154,99.5C 153.536,98.9056 153.369,98.2389 153.5,97.5 Z"/></g>
<g><path style="opacity:1" fill="#f3fcef" d="M 154.5,101.5 C 152.379,101.325 150.379,101.659 148.5,102.5C 148.196,101.85 147.863,101.183 147.5,100.5C 148.934,99.7702 150.1,98.7702 151,97.5C 152.487,98.2529 152.654,99.0862 151.5,100C 152.737,100.232 153.737,100.732 154.5,101.5 Z"/></g>
<g><path style="opacity:1" fill="#fefeff" d="M 157.5,97.5 C 158.077,96.2267 158.743,96.2267 159.5,97.5C 159.03,98.463 158.363,98.463 157.5,97.5 Z"/></g>
<g><path style="opacity:1" fill="#c59e62" d="M 368.5,92.5 C 374.402,92.0347 378.902,94.3681 382,99.5C 386.657,106.804 389.324,114.804 390,123.5C 390.807,132.546 390.474,141.546 389,150.5C 387.098,159.751 381.598,164.585 372.5,165C 369.894,163.062 368.061,160.562 367,157.5C 361.906,140.177 359.906,122.51 361,104.5C 362.139,99.5525 364.639,95.5525 368.5,92.5 Z"/></g>
<g><path style="opacity:1" fill="#fdfefd" d="M 268.5,95.5 C 268.5,96.5 268.5,97.5 268.5,98.5C 266.443,96.9567 266.443,95.9567 268.5,95.5 Z"/></g>
<g><path style="opacity:1" fill="#adfe97" d="M 173.5,94.5 C 176.098,95.5278 176.098,96.5278 173.5,97.5C 172.833,97.5 172.5,97.8333 172.5,98.5C 171.508,98.6716 170.842,98.3382 170.5,97.5C 171.167,96.1667 172.167,95.1667 173.5,94.5 Z"/></g>
<g><path style="opacity:1" fill="#c8cfc2" d="M 223.5,120.5 C 222.833,120.833 222.167,121.167 221.5,121.5C 222.167,119.5 222.833,117.5 223.5,115.5C 224.441,110.93 224.774,106.263 224.5,101.5C 223.816,96.1496 220.816,94.3163 215.5,96C 211.996,99.1845 209.663,103.018 208.5,107.5C 207.842,108.398 207.176,109.398 206.5,110.5C 206.999,103.364 210.332,97.531 216.5,93C 220.986,90.4168 224.152,91.5835 226,96.5C 226.921,104.702 226.088,112.702 223.5,120.5 Z"/></g>
<g><path style="opacity:1" fill="#3b3327" d="M 213.5,103.5 C 213.34,105.153 212.674,106.486 211.5,107.5C 211.229,105.62 211.896,104.287 213.5,103.5 Z"/></g>
<g><path style="opacity:1" fill="#a2b01d" d="M 214.5,99.5 C 214.167,100.833 213.833,102.167 213.5,103.5C 211.896,104.287 211.229,105.62 211.5,107.5C 210.849,108.091 210.182,108.757 209.5,109.5C 208.702,109.043 208.369,108.376 208.5,107.5C 210.115,104.55 212.115,101.884 214.5,99.5 Z"/></g>
<g><path style="opacity:1" fill="#b9cb18" d="M 217.5,97.5 C 220.895,96.2166 222.895,97.55 223.5,101.5C 223.631,102.239 223.464,102.906 223,103.5C 222.351,100.353 220.518,98.3534 217.5,97.5 Z"/></g>
<g><path style="opacity:1" fill="#2b2422" d="M 224.5,101.5 C 224.167,101.5 223.833,101.5 223.5,101.5C 222.895,97.55 220.895,96.2166 217.5,97.5C 215.973,97.427 214.973,98.0937 214.5,99.5C 212.115,101.884 210.115,104.55 208.5,107.5C 209.663,103.018 211.996,99.1845 215.5,96C 220.816,94.3163 223.816,96.1496 224.5,101.5 Z"/></g>
<g><path style="opacity:1" fill="#c8d5c2" d="M 199.5,95.5 C 197.712,94.3775 195.712,94.2109 193.5,95C 192.748,95.6708 192.414,96.5041 192.5,97.5C 191.883,97.6107 191.383,97.944 191,98.5C 191.108,103.28 190.275,107.614 188.5,111.5C 187.358,103.905 189.025,97.0716 193.5,91C 200.818,90.6508 204.652,94.1508 205,101.5C 204.285,98.3589 202.452,96.3589 199.5,95.5 Z"/></g>
<g><path style="opacity:1" fill="#2a231f" d="M 199.5,95.5 C 196.812,95.1658 194.479,95.8325 192.5,97.5C 192.414,96.5041 192.748,95.6708 193.5,95C 195.712,94.2109 197.712,94.3775 199.5,95.5 Z"/></g>
<g><path style="opacity:1" fill="#d5f4ca" d="M 169.5,92.5 C 167.914,94.6705 166.58,97.0038 165.5,99.5C 164.662,99.1583 164.328,98.4916 164.5,97.5C 164.313,93.3576 165.979,91.691 169.5,92.5 Z"/></g>
<g><path style="opacity:1" fill="#fdfdfd" d="M 332.5,287.5 C 332.5,291.5 332.5,295.5 332.5,299.5C 330.227,298.729 329.894,297.396 331.5,295.5C 331.019,292.917 330.352,290.417 329.5,288C 330.448,287.517 331.448,287.351 332.5,287.5 Z"/></g>
<g><path style="opacity:1" fill="#00ff00" d="M 332.5,287.5 C 333.167,291.167 333.833,294.833 334.5,298.5C 334.5,299.167 334.5,299.833 334.5,300.5C 334.565,300.938 334.399,301.272 334,301.5C 333.722,300.584 333.222,299.918 332.5,299.5C 332.5,295.5 332.5,291.5 332.5,287.5 Z"/></g>
<g><path style="opacity:1" fill="#f8b52e" d="M 147.5,286.5 C 152.258,286.941 155.091,289.608 156,294.5C 157.262,298.909 156.428,302.743 153.5,306C 148.876,307.056 146.043,305.223 145,300.5C 143.911,295.444 144.744,290.778 147.5,286.5 Z"/></g>
<g><path style="opacity:1" fill="#e55716" d="M 270.5,287.5 C 272.716,288.203 274.549,289.536 276,291.5C 282.277,300.547 284.61,310.547 283,321.5C 282.837,323.676 282.004,325.509 280.5,327C 266.679,327.819 261.512,321.319 265,307.5C 266.525,300.732 268.358,294.065 270.5,287.5 Z"/></g>
<g><path style="opacity:1" fill="#b7c1b0" d="M 135.5,280.5 C 135.351,281.552 135.517,282.552 136,283.5C 136.232,282.263 136.732,281.263 137.5,280.5C 136.629,288.8 136.295,297.133 136.5,305.5C 136.5,306.5 136.5,307.5 136.5,308.5C 134.085,306.409 133.585,304.076 135,301.5C 135.262,294.305 135.429,287.305 135.5,280.5 Z"/></g>
<g><path style="opacity:1" fill="#f8b62e" d="M 309.5,293.5 C 310.873,293.343 312.207,293.51 313.5,294C 319.151,299.875 319.817,306.208 315.5,313C 311.74,314.176 308.907,313.01 307,309.5C 305.834,303.753 306.668,298.419 309.5,293.5 Z"/></g>
<g><path style="opacity:1" fill="#c4e9b6" d="M 296.5,302.5 C 295.71,303.609 295.21,304.942 295,306.5C 294.51,305.207 294.343,303.873 294.5,302.5C 294.799,300.396 294.466,298.396 293.5,296.5C 292.264,297.246 290.93,297.579 289.5,297.5C 289.5,296.833 289.5,296.167 289.5,295.5C 292.051,294.516 294.718,293.516 297.5,292.5C 297.833,293 298.167,293.5 298.5,294C 297.594,296.791 296.927,299.624 296.5,302.5 Z"/></g>
<g><path style="opacity:1" fill="#bbe9ab" d="M 289.5,295.5 C 289.5,296.167 289.5,296.833 289.5,297.5C 288.167,297.5 287.5,298.167 287.5,299.5C 285.896,298.713 285.229,297.38 285.5,295.5C 286.833,295.5 288.167,295.5 289.5,295.5 Z"/></g>
<g><path style="opacity:1" fill="#fcfcfc" d="M 289.5,297.5 C 289.66,299.199 289.494,300.866 289,302.5C 288.768,301.263 288.268,300.263 287.5,299.5C 287.5,298.167 288.167,297.5 289.5,297.5 Z"/></g>
<g><path style="opacity:1" fill="#f8b52e" d="M 185.5,295.5 C 187.371,295.859 188.871,296.859 190,298.5C 193.399,303.215 194.066,308.215 192,313.5C 187.82,317.792 184.487,317.126 182,311.5C 180.52,305.451 181.686,300.118 185.5,295.5 Z"/></g>
<g><path style="opacity:1" fill="#00ff00" d="M 212.5,301.5 C 213.209,300.596 214.209,300.263 215.5,300.5C 215.5,300.833 215.5,301.167 215.5,301.5C 214.732,302.263 214.232,303.263 214,304.5C 213.768,303.263 213.268,302.263 212.5,301.5 Z"/></g>
<g><path style="opacity:1" fill="#d0f2c3" d="M 215.5,300.5 C 214.209,300.263 213.209,300.596 212.5,301.5C 210.566,300.22 208.733,299.554 207,299.5C 206.508,300.549 206.674,301.549 207.5,302.5C 205.041,304.472 205.041,306.472 207.5,308.5C 207.5,309.5 207.5,310.5 207.5,311.5C 206.449,314.158 205.115,316.658 203.5,319C 203.833,319.333 204.167,319.667 204.5,320C 199.376,326.447 192.209,329.947 183,330.5C 181.738,328.697 180.071,327.364 178,326.5C 177.667,326.833 177.333,327.167 177,327.5C 176.099,324.929 174.766,322.596 173,320.5C 172.51,319.207 172.343,317.873 172.5,316.5C 172.5,315.5 172.5,314.5 172.5,313.5C 174.627,317.071 176.794,320.738 179,324.5C 188.605,328.531 196.271,326.197 202,317.5C 204.029,310.277 203.529,303.277 200.5,296.5C 205.797,297.275 211.13,297.608 216.5,297.5C 216.737,298.791 216.404,299.791 215.5,300.5 Z"/></g>
<g><path style="opacity:1" fill="#e8e7e7" d="M 212.5,301.5 C 213.268,302.263 213.768,303.263 214,304.5C 214.232,303.263 214.732,302.263 215.5,301.5C 215.634,303.292 215.301,304.958 214.5,306.5C 213.883,306.611 213.383,306.944 213,307.5C 212.505,305.527 212.338,303.527 212.5,301.5 Z"/></g>
<g><path style="opacity:1" fill="#fdfdfd" d="M 328.5,301.5 C 329.289,301.783 329.956,302.283 330.5,303C 329.718,305.74 329.218,308.574 329,311.5C 328.502,308.183 328.335,304.85 328.5,301.5 Z"/></g>
<g><path style="opacity:1" fill="#f8b52e" d="M 271.5,302.5 C 275.526,302.677 278.359,304.677 280,308.5C 280.667,312.167 280.667,315.833 280,319.5C 274.998,324.048 271.331,323.048 269,316.5C 268.555,311.612 269.388,306.945 271.5,302.5 Z"/></g>
<g><path style="opacity:1" fill="#eaf6e5" d="M 294.5,302.5 C 294.343,303.873 294.51,305.207 295,306.5C 295.21,304.942 295.71,303.609 296.5,302.5C 296.395,306.548 296.728,310.548 297.5,314.5C 296.778,314.918 296.278,315.584 296,316.5C 293.925,312.318 292.759,308.151 292.5,304C 293.044,303.283 293.711,302.783 294.5,302.5 Z"/></g>
<g><path style="opacity:1" fill="#cde9c2" d="M 258.5,303.5 C 258.351,304.552 258.517,305.552 259,306.5C 259.232,305.263 259.732,304.263 260.5,303.5C 259.693,309.464 259.36,315.464 259.5,321.5C 258.833,321.5 258.167,321.5 257.5,321.5C 256.711,321.217 256.044,320.717 255.5,320C 256.113,314.339 257.113,308.839 258.5,303.5 Z"/></g>
<g><path style="opacity:1" fill="#caf3bb" d="M 332.5,299.5 C 333.222,299.918 333.722,300.584 334,301.5C 334.399,301.272 334.565,300.938 334.5,300.5C 336.886,305.219 340.553,308.552 345.5,310.5C 345.158,311.338 344.492,311.672 343.5,311.5C 341.436,311.313 339.436,310.813 337.5,310C 337.833,309.667 338.167,309.333 338.5,309C 335.335,306.49 333.335,303.324 332.5,299.5 Z"/></g>
<g><path style="opacity:1" fill="#dcfcd0" d="M 287.5,303.5 C 288.5,303.5 289.5,303.5 290.5,303.5C 290.779,306.118 291.446,308.618 292.5,311C 291.542,312.147 291.875,313.147 293.5,314C 292.318,315.768 290.985,315.935 289.5,314.5C 289.341,310.709 288.675,307.042 287.5,303.5 Z"/></g>
<g><path style="opacity:1" fill="#fdfdfd" d="M 172.5,308.5 C 172.5,308.833 172.5,309.167 172.5,309.5C 171.842,310.398 171.176,311.398 170.5,312.5C 169.604,313.506 168.938,313.506 168.5,312.5C 169.863,311.107 170.696,309.441 171,307.5C 171.383,308.056 171.883,308.389 172.5,308.5 Z"/></g>
<g><path style="opacity:1" fill="#fefefe" d="M 207.5,308.5 C 209.557,310.043 209.557,311.043 207.5,311.5C 207.5,310.5 207.5,309.5 207.5,308.5 Z"/></g>
<g><path style="opacity:1" fill="#d2e9c8" d="M 365.5,297.5 C 366.236,305.302 362.736,310.969 355,314.5C 350.961,313.944 347.128,312.944 343.5,311.5C 344.492,311.672 345.158,311.338 345.5,310.5C 355.279,313.116 361.613,309.783 364.5,300.5C 365.507,300.548 365.84,299.548 365.5,297.5 Z"/></g>
<g><path style="opacity:1" fill="#fdfdfd" d="M 172.5,313.5 C 172.5,314.5 172.5,315.5 172.5,316.5C 170.443,314.957 170.443,313.957 172.5,313.5 Z"/></g>
<g><path style="opacity:1" fill="#def2d6" d="M 214.5,308.5 C 214.092,315.861 215.425,322.861 218.5,329.5C 218.672,330.492 218.338,331.158 217.5,331.5C 215.493,332.679 215.16,332.179 216.5,330C 213.777,326.855 212.944,323.355 214,319.5C 212.997,321.935 212.497,321.602 212.5,318.5C 212.901,314.976 213.567,311.642 214.5,308.5 Z"/></g>
<g><path style="opacity:1" fill="#e0f3d8" d="M 172.5,306.5 C 171.833,304.5 171.167,302.5 170.5,300.5C 170.662,302.527 170.495,304.527 170,306.5C 168.334,305.66 168.167,306.16 169.5,308C 165.79,311.942 161.956,315.775 158,319.5C 155.119,318.933 152.119,318.933 149,319.5C 146.698,319.4 144.698,318.733 143,317.5C 142.195,319.901 141.362,319.734 140.5,317C 140.833,316.667 141.167,316.333 141.5,316C 140.552,315.517 139.552,315.351 138.5,315.5C 136.644,313.35 135.978,311.017 136.5,308.5C 136.5,307.5 136.5,306.5 136.5,305.5C 138.877,309.717 141.877,313.551 145.5,317C 163.581,317.054 170.248,308.22 165.5,290.5C 168.363,290.929 171.029,291.929 173.5,293.5C 172.561,297.765 172.228,302.098 172.5,306.5 Z"/></g>
<g><path style="opacity:1" fill="#00ff00" d="M 170.5,300.5 C 169.71,299.391 169.21,298.058 169,296.5C 168.667,298.833 168.333,301.167 168,303.5C 166.957,300.014 167.624,297.014 170,294.5C 170.495,296.473 170.662,298.473 170.5,300.5 Z"/></g>
<g><path style="opacity:1" fill="#fefefe" d="M 167.5,315.5 C 169.337,315.639 169.67,316.306 168.5,317.5C 167.702,317.043 167.369,316.376 167.5,315.5 Z"/></g>
<g><path style="opacity:1" fill="#daf8cf" d="M 298.5,316.5 C 301.363,320.018 305.03,322.351 309.5,323.5C 309.918,324.222 310.584,324.722 311.5,325C 310.906,325.464 310.239,325.631 309.5,325.5C 304.195,324.681 299.529,322.514 295.5,319C 296.942,318.623 297.942,317.79 298.5,316.5 Z"/></g>
<g><path style="opacity:1" fill="#fdfefd" d="M 208.5,321.5 C 209.773,322.077 209.773,322.743 208.5,323.5C 207.537,323.03 207.537,322.363 208.5,321.5 Z"/></g>
<g><path style="opacity:1" fill="#e4eddf" d="M 257.5,321.5 C 258.167,321.5 258.833,321.5 259.5,321.5C 260.345,322.671 261.011,324.005 261.5,325.5C 260.778,325.918 260.278,326.584 260,327.5C 258.441,325.783 257.608,323.783 257.5,321.5 Z"/></g>
<g><path style="opacity:1" fill="#dbead4" d="M 326.5,312.5 C 326.833,316.5 327.167,316.5 327.5,312.5C 328.858,317.203 327.191,320.703 322.5,323C 322.833,323.333 323.167,323.667 323.5,324C 320.888,324.639 318.554,325.806 316.5,327.5C 314.629,326.233 312.796,326.233 311,327.5C 310.283,326.956 309.783,326.289 309.5,325.5C 310.239,325.631 310.906,325.464 311.5,325C 310.584,324.722 309.918,324.222 309.5,323.5C 318.82,325.029 324.487,321.362 326.5,312.5 Z"/></g>
<g><path style="opacity:1" fill="#e45516" d="M 226.5,289.5 C 233.149,298.301 237.815,308.135 240.5,319C 239.354,325.644 235.354,329.477 228.5,330.5C 224.432,328.922 221.932,325.922 221,321.5C 220.178,313.445 220.512,305.445 222,297.5C 223.259,294.644 224.759,291.977 226.5,289.5 Z"/></g>
<g><path style="opacity:1" fill="#f8b42e" d="M 226.5,304.5 C 228.981,304.323 230.814,305.323 232,307.5C 235.572,312.168 236.239,317.168 234,322.5C 229.738,326.862 226.404,326.195 224,320.5C 221.69,314.693 222.523,309.36 226.5,304.5 Z"/></g>
<g><path style="opacity:1" fill="#fefefe" d="M 292.5,326.5 C 294.089,325.379 295.756,325.546 297.5,327C 295.735,327.64 294.068,327.473 292.5,326.5 Z"/></g>
<g><path style="opacity:1" fill="#cbf0be" d="M 260.5,303.5 C 259.732,304.263 259.232,305.263 259,306.5C 258.517,305.552 258.351,304.552 258.5,303.5C 254.689,302.355 250.689,302.188 246.5,303C 247.696,303.654 247.696,304.154 246.5,304.5C 244.618,302.307 244.118,302.973 245,306.5C 245.75,307.126 246.584,307.626 247.5,308C 247.167,308.333 246.833,308.667 246.5,309C 248.921,315.017 248.921,321.017 246.5,327C 245.728,328.221 244.728,329.221 243.5,330C 246.394,332.96 246.061,333.794 242.5,332.5C 240.866,332.968 239.7,333.968 239,335.5C 238.667,335.167 238.333,334.833 238,334.5C 236.005,336.747 233.505,337.747 230.5,337.5C 228.585,337.784 226.919,337.451 225.5,336.5C 234.046,335.652 240.546,331.652 245,324.5C 246.153,315.797 244.32,307.797 239.5,300.5C 246.833,299.167 254.167,299.167 261.5,300.5C 260.873,301.417 260.539,302.417 260.5,303.5 Z"/></g>
<g><path style="opacity:1" fill="#e7f0e3" d="M 264.5,329.5 C 266.544,330.508 268.544,331.508 270.5,332.5C 269.508,332.328 268.842,332.662 268.5,333.5C 265.107,333.536 263.773,332.203 264.5,329.5 Z"/></g>
<g><path style="opacity:1" fill="#e4f6dc" d="M 218.5,329.5 C 220.5,332.167 222.833,334.5 225.5,336.5C 226.919,337.451 228.585,337.784 230.5,337.5C 224.428,339.362 220.095,337.362 217.5,331.5C 218.338,331.158 218.672,330.492 218.5,329.5 Z"/></g>
<g><path style="opacity:1" fill="#d0f0c4" d="M 271.5,334.5 C 270.791,333.596 269.791,333.263 268.5,333.5C 268.842,332.662 269.508,332.328 270.5,332.5C 282.206,334.834 288.539,330.168 289.5,318.5C 290.423,317.697 291.423,317.53 292.5,318C 291.167,319.667 291.167,321.333 292.5,323C 290.606,324.079 290.273,325.413 291.5,327C 288.097,329.281 285.263,332.114 283,335.5C 279.122,335.654 275.288,335.32 271.5,334.5 Z"/></g>
<g><path style="opacity:1" fill="#fcfdfd" d="M 268.5,333.5 C 269.791,333.263 270.791,333.596 271.5,334.5C 270.504,334.414 269.671,334.748 269,335.5C 268.536,334.906 268.369,334.239 268.5,333.5 Z"/></g>
</svg>
